<svg xmlns="http://www.w3.org/2000/svg" viewBox="0 0 130 30"><g fill="#9d7cd6"><path d="M12.6 0h.7c2.7 7.6 5.4 15.3 8.1 22.9.4.9.7 2 1.4 2.7.6.6 1.6.6 2.4.6v.7h-10v-.7c.7 0 1.6 0 2.1-.5.5-.6.3-1.4.1-2.1l-1.8-5.1H8.3c-.6 1.6-1.1 3.3-1.6 4.9-.2.7-.5 1.5 0 2.2.6.8 1.7.6 2.6.7v.6h-8v-.6c.8-.1 1.7-.1 2.3-.7.7-.6 1-1.5 1.3-2.4C7.5 15.5 10 7.7 12.6 0M8.7 17h6.4c-1.1-3.1-2.2-6.3-3.3-9.4-1.1 3.1-2 6.3-3.1 9.4zM65.1 6.5c.1 0 .4 0 .5-.1 1.9 5.7 3.8 11.3 5.7 16.9.3.8.5 1.7 1.1 2.4.4.5 1.1.5 1.7.6v.5h-7.2v-.5c.5-.1 1.3 0 1.6-.5.3-.4.2-1 0-1.5-.4-1.3-.9-2.6-1.3-3.9h-5.3c-.4 1.6-1.1 3.1-1.3 4.7-.1 1.1 1.2 1.3 2 1.2v.5H57v-.5c.5-.1 1-.1 1.5-.4.6-.5.9-1.3 1.1-2 1.8-5.8 3.6-11.6 5.5-17.4m-.6 5.7c-.7 2.4-1.5 4.7-2.2 7.1h4.6c-.8-2.4-1.6-4.8-2.4-7.1zM119.3 7.2c2-.9 4.5-1 6.5 0 .5.2.9.5 1.4.5.5-.2.5-.8.6-1.2.1 0 .3 0 .5.1.2 2.2.2 4.4.4 6.5-.1 0-.4 0-.5-.1-.2-1.4-.6-2.8-1.5-3.8-1.5-1.9-4.4-2.2-6.4-1-1.1.7-1.8 1.9-2.2 3.1-.8 2.3-.9 4.7-.8 7.1.1 1.9.4 3.8 1.4 5.5 1.8 2.9 6.6 3.2 8.7.5.6-.6.9-1.4 1.5-2 .1.1.3.2.4.2-.8 1.6-1.9 3.1-3.4 3.9-2.4 1.2-5.3 1-7.6-.4-2.2-1.3-3.7-3.7-4.1-6.2-.4-2.4-.3-4.9.5-7.2.7-2.3 2.3-4.4 4.6-5.5zM29.6 6.9h5.1l5.4 14.7 5.4-14.7h4.9v.5c-.7.1-1.5.1-1.9.8-.2.5-.3 1.1-.3 1.6V24c0 .7 0 1.6.8 2 .5.3 1.5-.1 1.4.7h-7.5v-.5c.7-.1 1.5 0 2-.5.5-.6.5-1.5.5-2.2V10.1c-2.1 5.5-4.1 11.1-6.1 16.7-.4 0-.5-.5-.6-.8-1.7-4.6-3.4-9.2-5.1-13.7-.2-.5-.4-1.1-.6-1.6-.1 4.3 0 8.7 0 13 0 .7 0 1.4.5 2 .5.5 1.3.5 2 .5v.5h-5.9v-.5c.7-.1 1.5 0 2-.6.3-.6.3-1.3.4-1.9v-14c0-.7 0-1.4-.5-1.9-.5-.4-1.2-.4-1.8-.4-.1-.2-.1-.4-.1-.5zM77 6.9h15.3v4.5c-.1 0-.4-.1-.5-.1 0-1.1-.2-2.3-1.3-2.9-1.4-.7-3-.4-4.4-.5v16c0 .7.1 1.6.8 2 .6.3 1.3.2 2 .3v.5h-8.3v-.5c.7 0 1.6.1 2.2-.4.5-.6.5-1.5.5-2.3V7.9c-1.5.1-3.1-.3-4.5.5-1 .6-1.2 1.9-1.2 2.9h-.5C77 9.9 77 8.4 77 6.9zM98.5 6.9h8.1v.5c-.7 0-1.5-.1-2.1.5-.5.6-.5 1.4-.5 2.1v13.8c0 .8.1 1.7.8 2.2.5.3 1.2.2 1.8.3v.5h-8.1c0-.1 0-.4.1-.5.6-.1 1.4 0 1.9-.4.6-.5.6-1.3.6-1.9V9.7c0-.7-.1-1.4-.6-1.9-.6-.5-1.3-.4-2-.4v-.5zM0 29.1h130v.9H0v-.9z"/></g></svg>