<svg xmlns="http://www.w3.org/2000/svg" viewBox="0 0 601.691 186.877"><linearGradient id="a" gradientUnits="userSpaceOnUse" x1="300.845" y1="0" x2="300.845" y2="186.877"><stop offset="0" stop-color="#0b67b2"/><stop offset="1" stop-color="#2bace2"/></linearGradient><path d="M47.812 3.02zm11.202 3.394zm-7.809 0l-44.797 44.8a5.491 5.491 0 00-1.61 3.891c0 1.417.537 2.833 1.605 3.908l44.802 44.796a5.5 5.5 0 003.906 1.605 5.533 5.533 0 003.908-1.6l44.793-44.805a5.487 5.487 0 001.614-3.9 5.5 5.5 0 00-1.613-3.895L59.001 6.401a5.485 5.485 0 00-3.887-1.604 5.496 5.496 0 00-3.909 1.617zm11.202-3.393l17.915 17.916c13.796-10.57 24.022-16.919 24.053-16.938l.855-.556.862.543c.274.173 96.062 60.191 96.062 117.487 0 13.98-5.513 26.653-14.414 35.833-8.915 9.192-21.232 14.885-34.816 14.885-10.012 0-19.863-3.011-28.17-8.228-6.14-3.859-11.446-8.93-15.355-14.89 4.423 32.708 39.23 34.507 43.174 34.606l.37.006-.019 1.593v1.599H57.578v-3.192l.35-.006c3.944-.1 38.72-1.898 43.168-34.553-3.89 5.954-9.167 11.004-15.284 14.845-8.317 5.221-18.192 8.22-28.234 8.22-13.605 0-25.915-5.687-34.824-14.873-8.904-9.181-14.411-21.859-14.411-35.845 0-7.142 1.458-14.317 4.017-21.402 2.314-6.418 5.536-12.758 9.391-18.936L3.015 62.402A10.344 10.344 0 010 55.105c0-2.638 1.006-5.277 3.015-7.285l44.81-44.812A10.332 10.332 0 0155.114 0c2.635 0 5.278 1.006 7.293 3.02zm152.544 96.62V42.263h32.458c5.062 0 8.76.574 11.083 1.72 2.68 1.377 4.716 3.6 6.093 6.668.975 2.135 1.463 4.343 1.463 6.637 0 2.968-.789 5.735-2.366 8.316-1.578 2.566-3.57 4.344-5.979 5.319 5.563 2.566 8.345 7.068 8.345 13.52 0 3.756-.89 6.91-2.653 9.433-1.506 2.18-3.484 3.699-5.907 4.516-2.423.832-6.021 1.247-10.795 1.247H214.95zm12.214-33.807h16.632c1.734 0 2.996-.086 3.784-.272.803-.186 1.563-.56 2.28-1.119 1.792-1.376 2.681-3.283 2.681-5.705 0-2.323-.832-4.043-2.509-5.148-1.204-.788-3.197-1.175-5.978-1.175h-16.89v13.42zm0 23.656h16.632c1.734 0 2.996-.086 3.813-.272a5.395 5.395 0 002.25-1.133c1.793-1.39 2.682-3.297 2.682-5.735 0-2.35-.832-4.071-2.509-5.176-1.204-.788-3.197-1.19-5.978-1.19h-16.89V89.49zm90.897-47.226v10.15h-15.914c-4.172 0-7.211.287-9.104.876-1.878.573-3.455 1.69-4.717 3.354-.846 1.133-1.42 2.28-1.72 3.44-.316 1.148-.574 3.126-.803 5.922h32.258v10.15h-32.258c.416 4.99 1.864 8.46 4.33 10.41 2.466 1.949 6.652 2.924 12.559 2.924h15.369v10.15h-15.914c-4.315 0-8.114-.272-11.383-.802-5.148-.832-9.248-3.097-12.302-6.767-4.344-5.262-6.509-12.416-6.509-21.434 0-10.007 3.068-17.778 9.19-23.326 2.108-1.878 4.344-3.197 6.724-3.928 2.38-.746 5.563-1.119 9.577-1.119h20.617zm9.06 0h12.216v32.258c.172 4.086.344 6.81.545 8.158.387 2.61 1.634 4.387 3.742 5.362 2.122.96 5.82 1.448 11.125 1.448h11.685v10.15h-12.947c-6.107.03-10.551-.315-13.319-1.046-6.336-1.85-10.35-5.864-12.028-12.043-.66-2.366-.99-6.38-1.018-12.029V42.264zM369.79 99.64l23.743-57.376h14.064l23.728 57.376H417l-5.534-13.247h-21.806l-5.549 13.247H369.79zm30.797-43.555l-8.187 20.157h16.33l-8.143-20.157zm42.78-3.67V99.64h12.216V52.415h19.01v-10.15H425.13v10.15h18.237zm49.679 25.376v21.85h-12.216V42.263h28.015c8.043 0 13.663 1.018 16.875 3.068 2.15 1.377 3.827 3.183 5.017 5.434 1.19 2.265 1.793 4.746 1.793 7.47 0 5.462-1.391 9.663-4.173 12.602-1.72 1.792-4 3.154-6.838 4.114 2.25.76 3.942 1.577 5.09 2.48 1.146.904 2.179 2.223 3.11 3.958.703 1.347 1.19 2.652 1.491 3.928.287 1.276.53 3.168.731 5.663.33 4.115.804 7.01 1.391 8.66h-13.706c-.416-1.348-.831-4.072-1.247-8.172-.344-3.37-.946-5.936-1.835-7.728-.875-1.778-2.222-3.169-4.015-4.187-2.208-1.204-5.433-1.792-9.648-1.763h-9.835zm0-10.15h17.133c2.867 0 4.903-.43 6.107-1.276 1.82-1.29 2.738-3.513 2.738-6.682 0-3.512-1.376-5.777-4.129-6.766-.946-.33-2.524-.502-4.716-.502h-17.133V67.64zm43.756 32l23.742-57.377h14.064l23.728 57.376h-14.322l-5.534-13.247h-21.807l-5.548 13.247H536.8zm30.796-43.556l-8.186 20.157h16.33l-8.144-20.157zm-295.893 80.402h28.13v34.065h-25.578c-4.444 0-7.972-.33-10.552-.99a18.941 18.941 0 01-7.068-3.47c-6.007-4.644-9.018-12.644-9.018-24 0-7.454 1.42-13.634 4.272-18.537 2.137-3.613 5.018-6.25 8.66-7.9 3.656-1.648 8.416-2.48 14.294-2.48h24.99v10.15H276.22c-5.06 0-8.746 1.12-11.054 3.37-2.695 2.653-4.043 7.384-4.043 14.222 0 3.513.359 6.681 1.061 9.506.717 2.824 1.678 4.932 2.897 6.308 1.118 1.261 2.623 2.193 4.5 2.781 1.894.588 4.245.889 7.055.889h10.982v-13.763h-15.914v-10.15zm33.09 34.065l23.742-57.377H342.6l23.728 57.377h-14.322l-5.535-13.248h-21.806l-5.548 13.248h-14.323zm30.796-43.556l-8.187 20.158h16.33l-8.143-20.158zm54.552-13.82l14.28 44.773 15.039-44.774h17.792v57.377H425.64v-43.054l-14.996 43.054h-12.56l-14.164-43.054v43.054h-11.613v-57.377h17.835zm101.878 0v10.15h-15.914c-4.171 0-7.211.286-9.104.874-1.878.574-3.455 1.692-4.717 3.355-.846 1.133-1.419 2.28-1.72 3.441-.315 1.147-.573 3.126-.803 5.921h32.258v10.151h-32.258c.416 4.989 1.864 8.459 4.33 10.408 2.466 1.95 6.652 2.925 12.56 2.925h15.368v10.15h-15.914c-4.315 0-8.114-.272-11.383-.802-5.147-.832-9.248-3.097-12.301-6.767-4.345-5.262-6.51-12.416-6.51-21.434 0-10.007 3.069-17.778 9.19-23.326 2.108-1.878 4.345-3.197 6.725-3.928 2.38-.746 5.562-1.119 9.577-1.119h20.616zm9.49 57.376V160.4h26.21c4.214 0 7.024-.416 8.43-1.262 2.02-1.218 3.039-3.025 3.039-5.448 0-2.795-1.176-4.831-3.542-6.121-1.347-.732-3.498-1.104-6.451-1.104h-10.653c-6.508 0-11.197-1.176-14.064-3.527-1.792-1.491-3.197-3.355-4.2-5.62-1.019-2.251-1.52-4.66-1.52-7.197 0-4.044 1.175-7.728 3.54-11.069 2.295-3.21 5.994-5.09 11.069-5.62 1.72-.172 4.272-.258 7.67-.258h28.473v10.15h-25.706c-3.842.03-6.394.201-7.67.517-2.58.645-3.871 2.61-3.871 5.893 0 2.78 1.075 4.645 3.24 5.605 1.463.645 3.886.975 7.255.975h9.204c4.732 0 8.244.401 10.58 1.219 4.072 1.361 6.868 3.77 8.388 7.211 1.233 2.767 1.85 5.735 1.85 8.903 0 3.47-.804 6.58-2.395 9.348-2.25 3.914-5.634 6.251-10.165 7.01-2.18.36-5.477.546-9.85.546h-28.86zm92.658-138.248c-1.291 0-2.528.322-3.712.969a6.976 6.976 0 00-2.795 2.772c-.678 1.204-1.016 2.464-1.016 3.782 0 1.31.332 2.558.996 3.748a7.144 7.144 0 002.779 2.78c1.19.663 2.437.995 3.748.995 1.31 0 2.558-.332 3.748-.996a7.144 7.144 0 002.779-2.779c.664-1.19.996-2.437.996-3.748 0-1.318-.34-2.578-1.016-3.782a6.975 6.975 0 00-2.796-2.772c-1.184-.647-2.42-.97-3.711-.97zm.006 1.489a6.142 6.142 0 00-2.977.774 5.618 5.618 0 00-2.242 2.226c-.547.966-.822 1.981-.822 3.038a6.08 6.08 0 00.802 3.01 5.705 5.705 0 002.232 2.236 6.055 6.055 0 003.007.805 6.038 6.038 0 003.008-.805 5.735 5.735 0 002.236-2.236 6.048 6.048 0 00.804-3.01c0-1.057-.275-2.072-.821-3.038a5.605 5.605 0 00-2.246-2.226c-.956-.516-1.948-.774-2.98-.774zm-3.406 10.057h1.63v-3.279h.419c.449 0 .818.114 1.113.339.291.224.66.774 1.106 1.643l.66 1.297h2.012l-.935-1.606c-.336-.57-.53-.892-.59-.972-.228-.298-.41-.503-.54-.61a1.996 1.996 0 00-.56-.299c.677-.1 1.203-.352 1.579-.76a2.1 2.1 0 00.563-1.476c0-.415-.1-.798-.298-1.14-.201-.345-.45-.6-.745-.764-.298-.167-.714-.275-1.25-.319-.181-.013-1.033-.02-2.548-.02h-1.616v7.966zm1.63-4.546v-2.152h.653c.919 0 1.496.037 1.73.11.235.074.416.198.543.37.128.17.191.368.191.586 0 .228-.063.429-.194.607-.13.177-.308.301-.533.372-.225.07-.805.107-1.737.107h-.653z" fill-rule="evenodd" clip-rule="evenodd" fill="url(#a)"/></svg>