<svg width="2160" height="352pt" viewBox="0 0 1620 352" xmlns="http://www.w3.org/2000/svg"><g fill="#ef612a"><path d="M443.32 0h18.39c26.45.98 53.44 4.98 77.37 16.88 16.49 8.19 31.25 21.09 38.91 38.1 6.94 14.68 6.76 31.8 2.56 47.23-5.36 19.54-15.97 37.2-28.12 53.23-29.09 37.56-66.83 67.43-106.46 93.16-2.04-1.39-4.35-2.83-5.06-5.36-1.32-4.25-.64-8.81.12-13.11 3.6-19.14 7.16-38.29 10.77-57.43 9.07-.07 18.15.13 27.22-.07 1.96-8.05 2.9-16.33 4.52-24.46-8.18-.37-16.39-.47-24.58-.08-1.14-.07-2.27-.24-3.38-.49 2.37-11.85 4.13-23.83 6.24-35.73-10 .19-20.03-.39-30.01.31-1.77 11.92-3.99 23.77-6 35.65-7.18.01-14.36-.01-21.53.35-1.44 8.17-2.95 16.32-4.23 24.52 7.29.03 14.58-.05 21.87.04-3.66 20.06-7.4 40.1-11.07 60.15-1.18 8-2.19 16.52.8 24.26 1.15 3.32 3.27 6.15 5.45 8.86-45.57 25.97-94.1 46.71-144.25 62.03-39.99 12.04-81.18 20.61-122.91 23.24-27.11 1.45-54.62.68-81.09-5.86-18.39-4.67-36.72-12.33-50.3-25.98-7.15-7.28-12.48-16.3-15.31-26.11l-.78.4c-.59-5.97-1.32-11.99-2.46-17.82v-10.65c1.29-16.71 6.86-32.84 14.74-47.55 9.72-18.14 22.62-34.4 36.82-49.23 22.04-22.74 47.23-42.27 73.83-59.39-8.68 50-17.59 99.95-26.31 149.94-.76 4.37-1.72 8.72-2.07 13.15 9.4.04 18.8-.03 28.2.03 1.48-7.2 2.45-14.5 3.85-21.72 4.27 6.99 9.72 13.44 17.02 17.4 13.49 7.84 30.11 9 45.03 5.11 14.29-3.96 27.03-13.07 35.68-25.08 11.85-16.23 16.84-36.94 15.08-56.84-1.26-14.08-8.07-27.87-19.51-36.4-13.11-9.74-30.75-12.05-46.42-8.33-12.8 3.09-23.62 11.53-31.41 21.94 4.66-26.64 9.78-53.21 14.84-79.78 49.76-27.36 102.42-49.49 156.77-65.96C357.47 10.25 400.12 1.49 443.32 0M301.34 151.38c-14.38 6.68-26.14 18.54-33.16 32.71-6.97 13.74-9.62 29.59-7.97 44.88 1.49 14.45 9.23 28.33 21.41 36.44 15.16 10.3 34.7 12.18 52.35 8.68 15.43-3.01 29.3-11.7 39.93-23.11-5.44-5.17-10.96-10.25-16.38-15.42-1.28-1.31-2.32 1.02-3.27 1.66-7.64 7.91-18.1 13.36-29.23 13.66-10.71.98-22.15-2.35-29.58-10.37-5.24-5.55-7.52-13.44-6.76-20.97 30.7 0 61.41-.08 92.12.04 3.68-16.13 5.55-34.01-1.77-49.44-5.59-12.06-17.29-20.46-30.06-23.49-15.79-3.75-32.91-2.19-47.63 4.73zM1434.28 111.75c10.02-.03 20.05-.02 30.08-.01-1.99 12-4.07 23.98-6.21 35.95 9.29.23 18.59.03 27.88.1-1.23 8.39-2.89 16.72-4.39 25.06-9.15.01-18.29-.08-27.42.05-3.69 20.38-7.65 40.72-11.35 61.1-.64 4.59-.58 10.52 3.84 13.29 6.74 3.98 15.05 2.55 22.33 1.05-.55 7.67-1.27 15.34-1.75 23.02-9.58 3.76-20.2 4.02-30.29 2.67-7.73-1.04-15.72-4.26-20.14-11.01-6.08-8.33-5.27-19.29-4-28.96 3.64-20.42 7.55-40.79 11.22-61.21-7.32-.03-14.64 0-21.96-.01 1.46-8.38 2.84-16.77 4.57-25.09 7.11.08 14.22.04 21.34.02 2.11-12.01 3.99-24.05 6.25-36.02zM610.03 152.94c14.47-8.52 32.23-10.23 48.47-6.7 11.56 2.59 21.49 10.57 27.06 20.95 1.3-6.42 2.16-12.93 3.29-19.38 9.65-.06 19.3.03 28.95-.05-2.5 17.12-5.86 34.11-8.66 51.19-3.9 22.3-7.67 44.62-11.63 66.91-3.53 16.81-8.96 33.99-20.62 47.04-10.78 12.32-26.79 19.03-42.85 20.68-19.88 2.51-40.53-1.06-58.26-10.44-5.25-2.84-10.3-6.21-14.44-10.55-.7-1.15.86-2.01 1.4-2.85 6.15-6.55 12.11-13.26 18.28-19.8 9.86 11.46 24.95 17.87 39.99 17.82 8.86.13 17.97-1.46 25.56-6.25 7.03-4.28 12.37-11.01 15.46-18.59 3.72-8.94 5.79-18.46 7.56-27.94-7.51 9.05-17.91 15.73-29.47 18.18-14.42 2.93-30.21 1.48-42.92-6.33-11.33-6.84-19.11-18.76-21.78-31.62-2.37-11.44-1.64-23.34.88-34.68 4.53-19.37 16.18-37.64 33.73-47.59m28.61 16.94c-9.82 2.21-18.64 8.28-24.36 16.53-6.77 9.73-9.64 21.86-9.05 33.62.43 9.34 4.64 18.74 12.26 24.38 5.89 4.21 13.39 5.52 20.51 5.1 12.05-.68 23.42-7.3 30.55-16.95 8.2-10.94 12.13-25.24 9.81-38.78-1.46-8.61-6.78-16.52-14.38-20.86-7.65-4.26-16.9-4.72-25.34-3.04zM747.5 160.73c15.71-11.22 35.32-16.63 54.55-16.15 11.19.42 22.84 2.62 32.12 9.26 7.23 5.07 12.25 13.22 13.28 22.02.58 5.44.36 10.96-.36 16.38-2.4 12.62-4.49 25.29-6.85 37.92-2.52 13.95-5.22 27.94-5.74 42.14-9.32-.05-18.63 0-27.95-.02-.16-5.06.83-10.03 1.29-15.04-7.9 9.97-20.12 15.93-32.68 17.13-10.89 1.03-22.51.21-32.2-5.29-7.7-4.24-13.25-12.19-14.38-20.92-1.49-11.17.61-23.56 8.57-32.01 10.57-11.72 26.24-17 41.35-19.8 12.86-2.04 25.9-2.83 38.92-2.93 1.1-6.14 1.68-13.27-2.43-18.48-3.98-4.49-10.33-5.64-16.03-6.14-14.24-.99-28.09 4.56-39.79 12.29-3.9-6.78-7.7-13.62-11.67-20.36m29.49 57.76c-5.23 1.37-10.32 3.61-14.5 7.08-5.06 4.2-6.18 11.85-3.74 17.76 1.65 3.89 5.36 6.53 9.32 7.74 12.82 3.74 27.71-.39 36.43-10.6 6.31-6.91 8.58-16.23 10.06-25.21-12.56.14-25.33.07-37.57 3.23zM932.92 148.89c9.2-4.95 20.21-5.09 30.29-3.37 11.99 2.04 22.84 10.85 26.21 22.7 2.33-1.94 3.82-4.66 6-6.75 7.75-8.34 18-14.79 29.44-16.28 13.77-2.03 29.22.25 39.65 10.16 10.05 9.41 12.03 24.44 9.97 37.45-4.65 26.51-9.3 53.03-14.13 79.51-10.09-.12-20.19.09-30.28-.1 3.08-18.4 6.42-36.75 9.55-55.14 1.26-8.04 3.16-16 3.67-24.13.17-6.44-1.18-13.64-6.29-18.05-5.43-4.61-13.13-5.27-19.9-4.11-9.07 1.81-16.54 8.35-21.31 16.05-3.66 6.14-5.91 13.05-6.93 20.11-3.79 21.78-7.63 43.57-11.47 65.35-10.13-.01-20.26-.01-30.39-.01 3.94-26.13 9.06-52.09 13.44-78.16.9-6.51-.23-13.75-4.8-18.74-3.9-4.33-10.16-5.35-15.71-5.04-7.89.29-15.09 4.65-20.31 10.35-5.28 5.95-8.73 13.41-10.35 21.17-4.43 23.46-8.16 47.07-12.75 70.5-10.08-.18-20.15-.04-30.22-.07 4.54-26.41 9.2-52.81 13.84-79.21 2.33-14.36 5.53-28.6 6.95-43.1.16-.54.5-1.62.66-2.16 9.34-.1 18.69.03 28.04-.05-.39 6.5-1.56 12.92-2.19 19.39 5.51-6.93 11.44-13.92 19.32-18.27zM1118.23 164.34c18.2-18.11 46.7-24.33 71.01-16.59 12.13 3.91 22.5 13.17 27.11 25.13 5.81 14.95 3.83 31.51.55 46.8-30.73-.03-61.46-.08-92.19.03-.89 8.18 2.2 16.68 8.3 22.23 7.49 6.9 18.06 9.73 28.09 8.79 12.13-.41 23.29-7.01 31.16-15.97 6.35 4.84 11.86 10.77 17.73 16.21-7.3 7.95-16.12 14.58-26.05 18.86-12.83 5.63-27.25 7.02-41.06 5.26-14.37-1.93-28.5-8.88-37.19-20.74-7.09-9.55-10.38-21.58-10.18-33.4-.36-20.86 7.67-42.01 22.72-56.61m37.26 4.34c-13.56 3.85-24.35 15.49-27.78 29.08 21.43 0 42.87.03 64.3-.01.67-4.91.87-10.08-1.01-14.76-2.53-7.09-8.84-12.58-16.11-14.39-6.33-1.62-13.09-1.51-19.4.08zM1261.41 154.22c12.19-7.95 27.23-10.41 41.56-9.5 15.37.93 31.38 7.67 39.53 21.35-7.87 4.69-15.72 9.4-23.64 14.01-4.27-5.81-10.3-10.94-17.72-11.71-7.66-.82-16.15-.53-22.68 4.04-4.96 3.33-6.73 10.65-3.62 15.79 2.53 3.47 6.89 4.81 10.7 6.37 8.52 2.92 17.42 4.96 25.33 9.42 5.59 3.16 11.2 6.95 14.48 12.64 4.58 7.57 5.07 16.9 3.73 25.45-2.05 11.54-10.17 21.38-20.28 26.99-7.94 4.56-17.05 6.71-26.11 7.53-11.51.69-23.39.03-34.2-4.3-9.77-4.2-18.35-11.3-24.03-20.33 7.85-5.23 15.79-10.34 23.6-15.63 4.82 9.12 14.76 14.65 24.88 15.37 7.69.56 16.19-.2 22.37-5.3 5.89-4.71 6.32-15.27-.19-19.63-8.83-5.51-19.26-7.43-28.72-11.52-6.62-2.7-13.22-6.29-17.59-12.11-5.01-6.48-6.14-15.2-4.97-23.12 1.49-10.73 8.6-20.05 17.57-25.81zM1489.15 147.78c10.62.04 21.24-.02 31.87.03 4.9 30.47 9.51 60.99 14.66 91.42 17.43-30.45 34.62-61.03 52.07-91.46 10.75.24 21.51-.09 32.25.41v.34c-3.85 4.83-6.44 10.54-9.78 15.72-21.37 36.02-42.78 72.01-64.14 108.03-10.85.05-21.7-.06-32.55.07-3.42-15.74-6.21-31.6-9.43-47.38-4.91-25.74-10.26-51.4-14.95-77.18z"/><path d="M312.41 171.37c7.79-4.26 17.16-4.91 25.75-3.16 7.94 1.64 14.79 7.66 17.38 15.35 1.62 4.54 1.18 9.46.82 14.18-21.59.21-43.18.14-64.77.08 2.88-11.16 10.52-21.15 20.82-26.45zM174.07 169.89c8.58-1.26 18.05-.45 25.23 4.85 7.47 5.65 11.55 15.01 12 24.24.6 12.65-2.62 25.8-10.43 35.93-7.67 9.97-20.19 16.08-32.81 15.58-8.95.08-18.19-3.54-23.78-10.71-4.84-5.76-7-13.37-7.04-20.8-.32-13.45 4.75-27.01 14-36.8 6.1-6.31 14.15-10.79 22.83-12.29zM1361.1 235.14c6.67-1.3 14.07.92 18.37 6.33 6.17 7.98 4.81 20.62-2.94 27.1-7.9 7.36-21.96 5.86-28.32-2.78-3.08-4.27-3.39-9.82-2.8-14.87 1.12-7.91 7.99-14.29 15.69-15.78z"/></g></svg>