<svg xmlns="http://www.w3.org/2000/svg" viewBox="0 0 192 62.084"><g fill="#fff"><path d="M18.39.119c5.69.29 12.82-1.61 17 3.43 3.51 3.6 2.23 8.93 2.46 13.44-.25 4.22.86 8.8-1.26 12.69-6 .69-12.15.25-18.21.22.1-9.92.07-19.85.01-29.78m6.81 6.63c-.16 7.04.04 14.09-.11 21.14 2.28.16 5.72.13 6.01-2.85.04-5.35.28-10.73-.16-16.05-1.04-2.25-3.65-2.16-5.74-2.24zM43.32.119c5.82-.07 11.65-.05 17.48 0-.04 2.25-.05 4.49-.02 6.73-3.56.06-7.13.04-10.7.04-.01 6.97.13 13.95-.1 20.92 3.61.1 7.21.07 10.81.04.03.51.09 1.52.13 2.03-5.87.19-11.74.04-17.61 0 .09-9.92.07-19.84.01-29.76zM65.41.129c6.49-.06 12.98-.08 19.47-.01-.04 2.24-.03 4.48.01 6.72-2.04.04-4.07.05-6.1.06.04 7.66-.06 15.32.06 22.98-2.25.04-4.5.04-6.75.01.1-7.66.03-15.33.07-22.99-2.26 0-4.52-.01-6.78-.05.03-2.24.03-4.48.02-6.72zM18.4 61.939c.09-9.79.01-19.59.04-29.39 6.2.06 12.41.05 18.61.01 2.81 5.38 1.144 11.684 1.53 17.46.32 4.802-1.73 10.07-6.41 11.79-4.58.39-9.18.09-13.77.13m6.71-27.24c.17 7 .09 14.01.03 21.01 2.3-.05 5.58.52 6.51-2.31.23-5.45.17-10.94.05-16.39-.97-2.81-4.21-2.31-6.59-2.31zM43.22 32.629c6.01-.15 12.02-.19 18.02.03-.14.49-.43 1.47-.58 1.95-3.54.23-7.09.03-10.63.12.15 6.96.17 13.93-.02 20.89 3.63.1 7.26.01 10.89.16-.1 2.05-.12 4.1-.13 6.16-5.83.05-11.66.1-17.48-.03.08-9.76.2-19.53-.07-29.28zM72.01 32.589c2.31-.07 4.62-.07 6.93.01-.3 9.77-.14 19.56-.11 29.34-2.25.04-4.5.04-6.75 0 .05-9.78.2-19.57-.07-29.35z"/></g><g fill="#fae307"><path d="M89.37 11.009c-.41-5.09 3.5-10.12 8.57-10.82 5.09-.92 10.31 2.88 11.29 7.88.32 2.33.15 4.69.15 7.03h-6.65c-.29-2.57 1.04-6.37-1.84-7.81-1.91-1.27-4.65.42-4.74 2.57-.02 4.01-.45 8.11.4 12.06.9 3.57 4.11 5.65 6.65 8-3.66.05-7.32-.02-10.98 0-4.08-5.49-2.63-12.57-2.85-18.91zM113.23 9.929c-.06-5.57 5.32-10.47 10.87-9.82 4.98.38 9.25 4.97 9.13 9.98.04 6.61-.03 13.22.01 19.83-2.26 0-4.51-.01-6.76-.04.04-6.63.11-13.25.01-19.87-.04-3.55-5.26-4.17-6.51-.99-.43 6.94-.13 13.92-.15 20.87-2.22.03-4.45.03-6.68 0 .14-6.65 0-13.31.08-19.96zM137.69.089c5.79.05 11.58-.12 17.37.05.61 2.12.12 4.49.27 6.7-3.65.07-7.3-.01-10.95.14.12 6.95.08 13.9.01 20.86 3.65.05 7.3.04 10.96.03-.04.71-.09 1.43-.14 2.14-5.84-.06-11.69-.07-17.53-.1.01-9.94.01-19.88.01-29.82zM157.68.149c6.46-.1 12.92-.13 19.37-.01.51 2.17.14 4.47.26 6.68-2.04.05-4.07.07-6.1.09.04 7.67 0 15.34.02 23.02-2.28 0-4.55-.02-6.82-.06.11-7.66.02-15.32.06-22.97-2.26 0-4.53-.02-6.79-.07.03-2.22.04-4.45 0-6.68zM0 19.769c4.67 3.2 8.16 7.81 12.32 11.63-4.25 3.76-7.94 8.12-12.32 11.74v-23.37zM179.71 31.269c4.354-4.073 7.254-6.976 12.29-11.61v23.41c-4.38-3.63-8.13-7.94-12.29-11.8zM95.12 32.549c3.68 0 7.38-.18 11.05.09 4.46 5.01 2.82 12.24 3.14 18.36.42 4.46-2.11 9.09-6.32 10.77-3.59.35-8.01 1.01-10.66-2.07-3.58-2.98-3.12-7.91-3.21-12.08 2.29-.05 4.58-.06 6.87-.03.13 2.45-1.1 5.68 1.22 7.46 2.12 1.86 5.7-.27 5.37-2.99-.07-3.74.32-7.56-.44-11.25-.88-3.77-4.26-5.93-7.02-8.26zM137.63 32.559h17.74l.08 2.135c-4.799 0-7.33.005-11 .005.06 9.09-.02 18.18.01 27.27-2.26.01-4.53.01-6.78.01-.02-9.81.07-19.61-.05-29.42zM113.06 32.589c2.28-.06 4.57-.06 6.86 0-.27 6.47-.14 12.94-.15 19.41-.52 3.01 3.77 5.08 5.74 2.68 1.36-1.17.95-3.07 1.04-4.64-.08-5.83.04-11.66-.1-17.48 2.27-.02 4.53-.03 6.8-.03-.07 6.48 0 12.96-.04 19.44.18 4.15-2.44 8.22-6.27 9.8-3.34.25-7.41 1.05-10.08-1.53-2.13-1.75-3.66-4.37-3.64-7.18-.14-6.82.17-13.65-.16-20.47zM164.39 61.899c.14-9.79.06-19.59.05-29.39 2.27.02 4.54.02 6.81.03-.06 9.82-.02 19.63-.03 29.45-2.28 0-4.55-.02-6.83-.09z"/></g></svg>