<svg xmlns="http://www.w3.org/2000/svg" viewBox="0 0 289.735 117.221"><path d="M58.61 2c31.215 0 56.61 25.395 56.61 56.61s-25.395 56.61-56.61 56.61S2 89.826 2 58.61 27.395 2 58.61 2m0-2C26.24 0 0 26.24 0 58.61s26.24 58.61 58.61 58.61 58.61-26.24 58.61-58.61S90.98 0 58.61 0z" fill="#7c8080"/><g fill="#df2d38"><path d="M83.625 91.27h1.77c3.509 0 17.91-2.028 20.407-5.652a53.537 53.537 0 007.043-26.602c0-29.716-24.09-53.805-53.805-53.805S5.236 29.3 5.236 59.016a53.54 53.54 0 009.802 30.945c.958-.025 9.49-3.546 20.315-3.546 19.753 0 27.16 4.856 48.272 4.856z"/><path d="M105.802 85.618c-2.498 3.624-16.898 5.653-20.407 5.653h-1.77c-21.111 0-28.519-4.856-48.272-4.856-10.825 0-19.357 3.52-20.315 3.546 9.23 13.1 24.148 21.901 41.17 22.784 2.209.092 4.396.057 6.532-.066 18.472-1.256 34.376-11.828 43.062-27.061z"/></g><path fill="#fff" d="M72.356 16.533h-9.572L59.04 6.48l-3.743 10.053h-9.572l8.021 6.738-3.582 9.679 8.876-6.043 8.877 6.043-3.583-9.679zM43.197 57.599s4.477-3.124 4.444-6.607c-.047-5.08-2.963-12.375-14.24-12.375-10.673 0-15.082 4.121-15.309 7.26V75.86c0 .746.373 1.439 1 1.842 2.091 1.348 7.2 4.215 12.821 4.215 18.982 0 24.23-17.233 11.284-24.318zM32.73 46.805c4.986 0 5.315 7.48 2.493 7.48h-7.244s-.753-7.48 4.75-7.48zm-.257 26.718c-4.259 0-4.529-3.48-4.529-3.48v-7.475c7.068 0 11.465-.605 11.465 4.7s-2.51 6.255-6.936 6.255z"/><path d="M41.046 38.617h36.2s-9.774 4.606-9.774 8.827h-4.547v34.473h-8.971v-34.35h-4.691s-2.734-8.95-8.217-8.95z" fill="#fff"/><path d="M86.547 56.208v8.972h5.68v6.996s-1.811 1.975-5.68 1.975c-4.938 0-11.523-3.704-11.523-13.416 0-9.136 6.348-13.642 11.153-13.642s9.177 3.452 9.177 3.452l4.444-7.341s-4.197-4.587-12.84-4.587c-7.49 0-20.823 4.34-20.823 22.036 0 6.996 2.139 21.264 20.164 21.264 11.195 0 14.816-4.885 14.816-4.885V56.126l-14.568.082zM85.608 105.938c2.91-1.648 5.618-3.645 8.158-5.787l-.032.013c-.53.148-3.028.07-7.077.07-4.653 0-10.961-1.641-17.148-3.145-10.18-2.473-19.947-7.003-22.448-7.68 0 0 19.263 4.137 35.161 4.137 9.907 0 16.985-1.872 20.77-3.284 1.071-1.497 1.93-3.1 2.845-4.706-2.497 3.624-16.933 5.715-20.442 5.715h-1.77c-21.111 0-28.519-4.856-48.272-4.856-10.825 0-19.357 3.52-20.315 3.546 3.176 4.684 6.96 8.531 11.315 11.865 4.936.794 16.113.859 25.931 10.657 1.297.163 2.594.246 3.918.314 2.209.092 4.459.161 6.595.039 2.577-.176 5.131-.492 7.542-1.205-.324-.295-.7-.603-1.06-.851-10.183-7.018-28.468-17.38-32.876-17.948 0 0 6.186-.457 13.13 2.411 9.077 3.752 18.97 6.617 23.936 7.86" fill="#fff"/><path d="M133.077 25.993h9.727c6.2 0 10.792 1.912 10.792 7.579 0 2.875-1.543 5.709-4.156 6.649v.188c3.303.776 5.744 3.136 5.744 7.283 0 6.158-4.97 9.023-11.596 9.023h-10.51V25.993zm9.269 12.634c4.086 0 5.831-1.64 5.831-4.252 0-2.89-1.917-3.991-5.729-3.991h-3.836v8.243h3.734zm.69 13.698c4.33 0 6.73-1.581 6.73-4.953 0-3.163-2.33-4.531-6.73-4.531h-4.424v9.484h4.424z" fill="#df2d38"/><path d="M159.168 33.6h5.501v23.115h-5.5V33.6zM167.807 60.883c0-1.945 1.175-3.628 3.262-4.895V55.8c-1.165-.777-2.053-1.999-2.053-3.868 0-1.772 1.186-3.36 2.514-4.313v-.188c-1.558-1.163-2.998-3.36-2.998-6.085 0-5.34 4.247-8.31 9.01-8.31 1.256 0 2.444.223 3.38.564h8.13v4.154h-4.072c.697.843 1.224 2.237 1.224 3.769 0 5.163-3.842 7.872-8.662 7.872-.943 0-2.012-.2-3.027-.591-.666.58-1.065 1.14-1.065 2.147 0 1.278.922 2.038 3.636 2.038h3.988c5.437 0 8.345 1.716 8.345 5.726 0 4.587-4.717 8.17-12.17 8.17-5.392 0-9.442-1.947-9.442-6.002zm16.31-1.247c0-1.744-1.38-2.246-3.927-2.246h-3.012c-1.261 0-2.228-.094-3.079-.317-1.169.913-1.684 1.906-1.684 2.947 0 2.062 2.185 3.243 5.68 3.243 3.572 0 6.022-1.682 6.022-3.627zm-2.753-18.29c0-2.842-1.663-4.451-3.822-4.451s-3.824 1.592-3.824 4.45c0 2.884 1.699 4.546 3.824 4.546s3.822-1.662 3.822-4.545z" fill="#fff"/><path d="M201.457 30.738h-8.647v-4.745h22.828v4.745h-8.646v25.977h-5.535V30.738z" fill="#df2d38"/><path d="M220.185 33.6h5.501v23.115h-5.5V33.6zM230.354 33.6h4.505l.416 3.129h.15c1.912-2.025 4.088-3.693 6.949-3.693 3.305 0 5.202 1.526 6.258 4.109 2.147-2.323 4.375-4.109 7.27-4.109 4.798 0 7.01 3.377 7.01 9.204v14.475h-5.5V42.96c0-3.74-1.08-5.12-3.4-5.12-1.4 0-2.917.913-4.629 2.798v16.077h-5.5V42.96c0-3.74-1.08-5.12-3.4-5.12-1.365 0-2.917.913-4.628 2.798v16.077h-5.501V33.6zM266.833 45.175c0-7.508 5.912-12.139 12.075-12.139 7.11 0 10.827 4.553 10.827 10.99 0 1.061-.133 2.123-.273 2.687h-16.454c.536 4.005 3.463 6.235 7.578 6.235 2.2 0 4.096-.61 6.007-1.655l2.147 3.47c-2.512 1.507-5.706 2.516-8.994 2.516-7.242 0-12.913-4.477-12.913-12.104zm17.434-2.262c0-3.424-1.716-5.545-5.225-5.545-2.964 0-5.569 1.94-6.1 5.545h11.325z" fill="#fff"/><g><path d="M131.513 89.037c0-10.072 6.926-16.038 15.745-16.038 4.717 0 7.964 1.915 10.07 3.902l-3.247 3.636c-1.659-1.49-3.582-2.64-6.631-2.64-5.776 0-9.686 4.161-9.686 10.962 0 6.919 3.452 11.09 10.045 11.09 1.777 0 3.544-.466 4.565-1.295v-6.461h-6.144v-4.627h11.592v13.628c-2.218 2.067-6.074 3.655-10.624 3.655-8.962 0-15.685-5.623-15.685-15.812z" fill="#df2d38"/><path d="M160.402 98.047c0-4.94 3.995-7.526 13.256-8.536-.081-2.424-1.062-4.396-4.047-4.396-2.207 0-4.3 1.007-6.321 2.253l-2.014-3.73c2.543-1.625 5.76-3.032 9.355-3.032 5.685 0 8.528 3.534 8.528 10.056v13.623h-4.504l-.417-2.535h-.15c-2.015 1.762-4.317 3.1-6.977 3.1-3.991 0-6.71-2.792-6.71-6.803zm13.256-.023V92.98c-5.968.773-7.953 2.379-7.953 4.636 0 1.97 1.319 2.842 3.18 2.842 1.804 0 3.157-.902 4.773-2.434zM183.43 81.17h4.504l.416 3.128h.15c1.913-2.024 4.088-3.692 6.949-3.692 3.305 0 5.202 1.525 6.259 4.108 2.146-2.322 4.375-4.108 7.27-4.108 4.797 0 7.01 3.376 7.01 9.204v14.475h-5.501V90.53c0-3.74-1.08-5.12-3.4-5.12-1.4 0-2.917.913-4.629 2.798v16.077h-5.5V90.53c0-3.74-1.08-5.12-3.399-5.12-1.366 0-2.918.913-4.629 2.798v16.077h-5.5V81.169zM222.38 81.17h5.501v23.115h-5.5V81.169zM233.55 81.17h4.504l.416 3.099h.15c2.015-1.995 4.32-3.663 7.42-3.663 4.866 0 6.987 3.376 6.987 9.204v14.475h-5.501V90.53c0-3.74-1.046-5.12-3.434-5.12-1.954 0-3.228.972-5.042 2.798v16.077h-5.5V81.169zM256.88 108.453c0-1.945 1.174-3.628 3.261-4.896v-.187c-1.165-.777-2.053-2-2.053-3.869 0-1.771 1.186-3.359 2.514-4.312V95c-1.558-1.163-2.998-3.359-2.998-6.084 0-5.34 4.247-8.31 9.01-8.31 1.257 0 2.444.223 3.38.563h8.13v4.155h-4.072c.698.843 1.224 2.236 1.224 3.768 0 5.163-3.842 7.872-8.662 7.872-.943 0-2.012-.199-3.027-.59-.666.58-1.065 1.14-1.065 2.147 0 1.277.922 2.037 3.637 2.037h3.987c5.437 0 8.346 1.716 8.346 5.727 0 4.587-4.718 8.17-12.171 8.17-5.392 0-9.442-1.948-9.442-6.002zm16.309-1.247c0-1.745-1.38-2.247-3.927-2.247h-3.012c-1.261 0-2.228-.093-3.079-.316-1.169.912-1.684 1.905-1.684 2.946 0 2.062 2.185 3.244 5.68 3.244 3.573 0 6.022-1.683 6.022-3.627zm-2.753-18.29c0-2.842-1.663-4.452-3.822-4.452s-3.823 1.592-3.823 4.452c0 2.882 1.698 4.544 3.823 4.544s3.822-1.662 3.822-4.544z" fill="#fff"/></g><ellipse cx="222.936" cy="26.505" rx="3.365" ry="3.135" fill="#df2d38"/><ellipse cx="162.919" cy="26.505" rx="3.365" ry="3.135" fill="#df2d38"/><ellipse cx="225.131" cy="74.075" rx="3.365" ry="3.135" fill="#df2d38"/></svg>