<svg xmlns="http://www.w3.org/2000/svg" viewBox="0 0 946.6 293"><g fill="#41aee2"><path d="M5.3 0h20.9c7.6 2.1 14.1 8.9 14 17 .1 13.8 0 27.5 0 41.3 6-9 14.8-16.5 25.5-19.1 12.5-3 26.2-2 37.5 4.4 11.2 6.3 19.3 17 24.4 28.7 6.8 15.6 7.7 33 6.3 49.7-1.6 15.6-6.9 31.5-17.9 43.2-8.5 8.7-20.7 12.4-32.4 14.3-15.8 2.1-32.1 0-46.7-6.4-7.7-3.5-15.5-7.6-20.7-14.5C8 147.9 5.5 134.1 5.2 121c0-40.3 0-80.7.1-121m57.5 69.2c-7.2 1.5-13.4 6.3-16.9 12.7-5.7 10.3-6.2 22.5-5.5 34 .7 9 2.4 18.7 8.6 25.7 10.3 12.4 32.4 11.6 41.7-1.6 6.5-8.9 7.9-20.3 8.1-31 .1-11.8-2.2-24.6-10.8-33.3-6.3-6.8-16.4-8.4-25.2-6.5zM142.2.5c6.5.1 13-.1 19.5 0 8.3.2 16.1 7.1 16.5 15.6.2 53.8-.1 107.6.2 161.4-12.1.2-24.1.2-36.2 0 .1-59 0-118 0-177zM358.9 39.3c13.6-2.8 28.1-2.2 41.3 2.1 13 4.2 24.2 13.6 30.3 25.8 8.3 15.7 9.5 33.8 8.7 51.2h-89.4c.3 9.1 2.4 18.8 9.2 25.2 7.7 7.5 20 8.1 29.7 4.8 5.1-1.5 8.5-5.8 12.1-9.4 2.8-2.9 7-3.7 10.8-3.7 8.6 0 17.2-.1 25.9 0-2.3 7.8-5.4 15.5-10.4 22-9.3 12.3-24 20-39.2 22-16.9 2.1-35.4.4-49.5-10.1-14.7-10.7-22.5-28.5-24.3-46.2-2-19-1-39.3 8.2-56.4 7.4-13.9 21.1-24.2 36.6-27.3m-.4 34.5c-6.1 5.3-8.3 13.6-8.7 21.4 17.5.1 35-.1 52.5.1-.3-6-1.6-12.2-4.7-17.4-2.9-5-8.1-8.4-13.7-9.7-8.7-1.9-18.7-.6-25.4 5.6zM187.2 40.7c12 .1 23.9 0 35.9 0V129c0 6.6 2.2 13.8 7.9 17.8 10.2 7.7 26 6.5 34.8-2.8 3.9-4.3 5.1-10.3 5.1-15.9.1-23.7 0-47.3.1-71 .1-8.4 7.3-16 15.7-16.3 6.5-.2 13.1 0 19.6-.1V122c.1 11.8-1.4 24.1-7.1 34.6-2.8 5-6.7 9.3-11.6 12.3-15.4 9.3-34.1 13.3-51.9 10.4-11.1-1.8-22-5.8-31.4-12-7.2-4.8-11.8-12.7-14.1-20.9-2.1-7.3-3.1-14.9-3-22.5-.1-27.7 0-55.4 0-83.2z"/></g><g fill="#fffdf4"><path d="M668.3.5c6.5 0 12.9-.1 19.4 0 8.7.1 16.5 7.8 16.7 16.5.1 3.9 0 7.9.1 11.8-12 .1-24.1 0-36.1.1-.1-9.5.1-18.9-.1-28.4zM843.2 152V.5h18.6c6.5-.1 12.4 4.3 15.3 9.9 1.7 3.2 1.7 7 1.7 10.5-.1 6.7.1 13.5-.1 20.2 7.1 0 14.2-.1 21.2.1 0 6.2.6 13.2-3.8 18.2-4 5.3-11 7-17.3 6.4v77.1c-.2 3.9 3.1 7.1 6.8 7.6 4.7.6 9.5.2 14.3.3-.1 8.9.1 17.9-.1 26.9-12.5.8-25 .4-37.5-.6-5.7-.5-11.6-3-14.9-7.9-3.4-5-4.2-11.2-4.2-17.2zM468.2 49.5c19.1-11.3 42.9-15.3 64.3-8.9 11.1 3.2 22.1 9.1 28.6 19 10.3 14.9 13.7 33.5 13.2 51.4-.3 18.5-5 37.8-17.4 52-8 9.5-19.7 15.9-32.1 16.9-13.1 1.2-27.6-1.3-37.3-10.7-3-2.7-5-6.1-7.5-9.3.2 17 0 34 .1 50.9.1 8.8-7.6 16.8-16.4 17.2-6.2.2-12.3-.1-18.5.1-.3-42.1 0-84.2-.1-126.3-.1-12.7 1.3-25.8 7.6-37.1 3.5-6.2 9-11.6 15.5-15.2m34.1 19.2c-6.9 1.4-12.8 6.2-16.4 12.3-5 8.8-5.8 19.2-5.8 29.1 0 10.4 1.6 21.7 8.5 30 9.4 12.6 31 13.3 41 .9 7.8-9.4 9.5-22.1 9.2-33.9-.4-11.2-2.5-23.3-10.6-31.6-6.5-6.9-16.9-8.6-25.9-6.8zM730.7 51.5c12.3-8.5 27.1-13.3 42.1-13.9 15.1-.1 30.2 4.3 42.8 12.6 8.1 5.5 13 14.6 15.3 23.9 3.2 12.1 2.5 24.6 2.6 37v66.6c-6.6 0-13.2.1-19.8-.1-6.4-.2-12.5-4.5-14.7-10.6-1.4-3.5-1.1-7.4-1.1-11.1v-65c0-5.7-1-11.9-4.8-16.3-9.8-10.8-29-11-38.5.2-4.9 5.9-4.6 14-4.5 21.2 0 27.2-.1 54.4.1 81.6-12.1.3-24.1 0-36.2.1.1-26.2 0-52.4 0-78.6-.1-10.8.8-22 5-32.1 2.4-6.1 6.4-11.7 11.7-15.5zM616.7 47.3c13-5.4 27.2-7 41.1-6.7v36.6c-10.4.2-21.8-1.4-31 4.7-7.9 5.2-10.2 15.2-10.3 24v71.7c-12.1-.1-24.1.1-36.2-.1.2-17.5 0-35.1.1-52.6-.2-17.1-.6-35.2 7.5-50.8 5.8-12.1 16.4-21.7 28.8-26.8zM668.4 40.6c6.5.1 12.9-.1 19.4 0 9 .2 16.9 8.3 16.7 17.3v119.7c-12.1-.1-24.1.2-36.2-.1.2-45.6.1-91.2.1-136.9zM903 191.3c4.1-.1 8.2-.1 12.3 0v2.3h-4.9c.1 7.3-.1 14.6.1 21.9-.6 0-1.9 0-2.5.1.1-7.3 0-14.7 0-22h-5v-2.3zM917.8 191.2h3.6c2.9 7 5.4 14.1 8.5 21 2.7-7 5.5-14 8.3-21h3.6v24.4c-.6 0-1.8-.1-2.4-.1 0-7 .1-13.9 0-20.9-3.2 6.9-5.7 14-8.5 21-.9-.2-2.4 0-2.6-1.2-2.9-6.5-5-13.4-8.1-19.8-.1 6.9 0 13.9.1 20.9-.6 0-1.9 0-2.5-.1.1-8 0-16.1 0-24.2zM526.3 213.7c10.7-2.4 22.5-1.3 31.8 4.9 6.5 4.3 11 10.9 14.2 17.9-6.1-.1-12.1.2-18.2-.1-2.6-2-4.8-4.6-7.8-6-8.7-4.2-20-2.7-26.8 4.3-9.7 8.9-10 25.8-.8 35.2 6.7 7.3 18.1 9.5 27.1 5.3 5.3-2.3 9.2-6.9 11.8-11.9-10.2-.1-20.3-.1-30.5 0 0-4.3 0-8.7-.1-13h48.4c0 3.9 0 7.8-.9 11.7-3.6 17.4-20.1 31.2-38.1 30.9h-2.6c-15-.3-28.9-10.2-34.7-23.9-4.8-11.1-4.6-24.5 1.3-35.2 5.5-9.7 14.9-17.6 25.9-20.1zM832 224.4c12.7-13.5 35.4-15.6 50.7-5.5 6.4 4.2 10.7 10.8 13.9 17.7-6.2.1-12.3 0-18.5 0-4.4-5.5-11.4-8.7-18.5-8.4-11.1-.2-21 8.9-22.9 19.7-1.7 8.4 1.1 17.7 7.6 23.4 7.6 7.2 20.1 8.1 28.8 2.3 3.9-2.4 6.7-6.2 8.7-10.3h-30.5c0-4.3.1-8.6 0-12.9 16.1-.2 32.2 0 48.4-.1 1.9 18-10.6 36.1-28 41.1-12.8 3.6-27.5 1.1-37.5-7.9-9.1-7.7-14.2-19.6-14-31.5 0-10.3 4.5-20.4 11.8-27.6zM599 214.2c4.3 0 8.6.1 13-.1 10 25.7 19.7 51.6 29.7 77.4h-16.3c-2-5.4-4-10.8-6.1-16.2h-28.5c-2.1 5.3-4.1 10.8-6 16.2-5.3.1-10.6 0-15.8 0 10.1-25.7 19.9-51.6 30-77.3m-3.2 46.7c6.1.1 12.3-.1 18.5.2-2.9-8.3-6.1-16.5-9-24.7-3.4 8-6.2 16.3-9.5 24.5zM645.6 214.2h20.1c6.5 18.6 13 37.3 19.5 55.9 6.8-18.5 13-37.3 19.7-55.9h20c0 25.8-.1 51.5 0 77.3-5 .1-10 0-15.1 0 .1-18.5.6-37 .3-55.5-6.4 18.5-12.8 37.1-19.3 55.5-3.8-.1-7.6 0-11.4 0-6.5-18.5-12.9-37-19.4-55.6-.1 18.5.2 37 .5 55.5-5.1.1-10.1 0-15.1 0 .3-25.7.2-51.5.2-77.2zM732.4 214.1c5.1.1 10.1 0 15.2.1 0 25.7-.2 51.5.1 77.2-5.1.1-10.2 0-15.3.1.1-25.8 0-51.6 0-77.4zM755 214.2h14.4c10.7 16.3 21 32.9 31.9 49-.1-16.4-.1-32.7 0-49.1 4.9.1 9.9.1 14.8 0 .1 25.8 0 51.6.1 77.4-4.7 0-9.5 0-14.2-.1-10.6-16.9-21.2-33.8-32.1-50.5v50.6c-5 0-10 .1-15-.1.3-25.7.1-51.5.1-77.2z"/></g></svg>