<svg xmlns="http://www.w3.org/2000/svg" viewBox="0 0 435.9 106"><g fill="#34f8b4"><path d="M39 .1C64.4-1.3 88.4 19 91.9 43.9c2.2 14.2-1.1 29.5-10.3 40.7C72 97 56.8 105.3 40.9 104.9c-14.8.8-29.5-5.6-39.4-16.5C-.9 85.9.3 81 3.8 80.1c3.2-1.4 5.3 1.8 7.3 3.7 9.1 8.8 22.3 12.7 34.7 10.8 11.9-1.2 22.6-8.6 29.4-18.2 6.4-9 8.6-20.7 6.6-31.5-1.6-10.1-7.5-19.2-15.4-25.5C51 6.3 25.7 7.1 11.1 21.2c-2 1.5-3.4 4.5-6.2 4.1-4 .2-6.5-5.2-3.9-8.2C10.6 6.5 24.7 0 39 .1zM116.3 22.1c-.1-3.4 3.3-6.1 6.6-5.6 2.7.4 5 2.7 5 5.5.2 5.6.2 11.2-.1 16.7 3.5-3.5 8.1-6.2 13.2-6.2 6.1-.4 12.1 2.8 15.7 7.7 5.7 7 6.6 17 3.7 25.3-2.8 7.6-9.9 14.5-18.5 14.3-5.4.3-10.4-2.4-14-6.2.5 3.5-2.4 7-6 6.7-3.3.1-5.9-3.1-5.6-6.4V22.1m19.9 20.1c-10.3 4.5-10.7 21.3-1.5 27.2 3 1.7 7 1.2 9.4-1.3 5.3-4.9 6-13.4 3.1-19.7-1.8-4.2-6.3-8-11-6.2z"/><path d="M25.4 24.3c1-4.9 9.1-4.4 9.6.5.3 5.9.1 11.7 0 17.6 4-1.6 8.5-2.6 12.8-1.7C57.5 42.4 65 52 64.4 61.8c.3 10.9-9.6 20.8-20.5 20.7-4.6 0-9.3-.1-13.9-.2-3.3.1-6.1-4-4.5-7 .7-1.8 2.6-2.8 4.4-2.9 5.3-.4 10.7-.2 16-.6 7.7-2.1 10.2-13.2 4.3-18.5-5.9-6.1-15.2-1.7-22.4-3.6-2.6-1.2-3-4.3-2.9-6.8.4-6.1 0-12.4.5-18.6zM182.4 33.8c2.7-.8 5.6-1.5 8.3-.8 3.3 1 4.7 5.6 2.3 8.2-2.1 2.9-6.2 1.1-8.8 3.2-8 5.5-7.9 18.8 0 24.4 2.7 2.1 7.2.4 9.1 3.8 2.4 3.2-.5 8.3-4.5 7.9-12.3.2-22.5-11.5-22.3-23.4-.2-10.2 6.3-20.1 15.9-23.3zM218.4 33.5c14.1-4.6 29.8 7.9 29.4 22.4.8 12.9-10.8 25.2-23.8 24.4-13 .2-23.7-12.6-22.5-25.3.5-9.7 7.4-18.8 16.9-21.5m3 9.2c-10.7 4.9-10.5 23.5.6 27.8 8.8 2.3 14.7-8.1 13.5-15.7-.2-6.9-6.6-14.9-14.1-12.1zM258.1 33.1c8.9-1.8 17.5 4.3 21.7 11.9 4.7 8.9 3.5 20.9-3.7 28.2-4.3 4.8-10.7 7.9-17.2 7.1-3.9-.6-5.2-6.1-2.5-8.7 2.2-2.3 5.9-1 8.3-2.8 7.8-5.4 8.1-18.5.5-24.2-2.2-1.9-5.4-1.2-7.9-2.3-3.4-1.9-3-7.9.8-9.2zM290.4 38.1c0-4.2 5.4-6.5 8.7-4.3 1.7.9 2.3 2.7 3.1 4.3 3.3-3.4 7.8-5.8 12.7-5.5 8.4-.3 16.4 7 16.5 15.5.1 8.6 0 17.3 0 25.9.4 3.5-3 6.8-6.4 6.3-2.7-.1-5.2-2.6-5.2-5.3-.1-8 0-16 0-24.1.3-5.2-4.8-9.8-9.9-9.1-4 .4-7.8 4-7.8 8.2-.2 8.4.1 16.8-.1 25.2-.3 4.3-6 6.8-9.4 4.2-2.1-1.3-2.3-4-2.3-6.3.1-11.8-.1-23.4.1-35zM347.3 36.4c7.1-5.8 18.5-4.7 24.6 2.2.2-4.7 6.1-7.4 9.6-4.3 2.2 1.5 2.3 4.3 2.2 6.7-.1 12.4 0 24.7 0 37.1 0 7.4-5.1 13.8-11.3 17.3-10.4 5.9-25.3 2.8-31.6-7.6-2-3.8 2-8.5 6.1-7.3 3.2 1.7 4.6 5.6 8.1 7.1 5.3 2.7 12.2.8 15.6-4 2.3-2.7 1.2-6.4 1.5-9.6-3.9 4.1-9.5 6.6-15.2 6-7.7-.4-14-6.5-16.8-13.3-4.3-10.3-1.7-23.4 7.2-30.3m11.1 6.3c-9.3 5.1-9.7 20.8-1 26.7 3 2 7.2 1.3 9.7-1.2 6.4-6.1 6.3-17.5.1-23.7-2.1-2.3-5.8-3.2-8.8-1.8zM406.3 33.5c5.6-1.6 12-1.2 17.2 1.6 7.7 4.2 13.1 12.8 12.5 21.8.4 12.3-10.7 23.8-23.1 23.4-12.4.4-23.4-11.1-23.2-23.4-.4-10.3 6.6-20.4 16.6-23.4m4 9c-10.5 4.1-11.2 21.1-2 27 3.1 1.9 7.5 1.6 10.2-.9 7-5.8 7.1-17.7.6-23.9-2.2-2.2-5.7-3.2-8.8-2.2z"/><path d="M30.4 57.3c3.1-2.4 8.2-.2 8.3 3.8.5 4.1-5.1 7.4-8.3 4.5-2.8-1.9-2.8-6.4 0-8.3z"/></g></svg>