<svg xmlns="http://www.w3.org/2000/svg" xmlns:xlink="http://www.w3.org/1999/xlink" viewBox="0 0 102.2 30.2"><linearGradient id="a" gradientUnits="userSpaceOnUse" x1="35.774" y1="-2.954" x2="16.603" y2="30.251" gradientTransform="translate(0 1.89)"><stop offset="0" stop-color="#00a48b"/><stop offset="1" stop-color="#a5cd39"/></linearGradient><path d="M9.1 15.6c0-4 3.8-9.2 10.2-12C30.5-1.3 37 3.2 38.6 7.5c1.6 4-1.6 11.1-6.8 16.3 3.8-2.8 6.9-5.7 9-8.5 2.9-3.8 4-7.4 2.9-10.3C42.1.8 35.8-.6 27.9.6S13.9 3.8 9 6.3C3.5 9.1.7 12.3.3 16.1-.3 21.6 5.6 29 19 29.9c7 .5 13.8.6 26.8-2.6-1.6.1-36.8 4.6-36.7-11.7z" fill-rule="evenodd" clip-rule="evenodd" fill="url(#a)"/><g fill="#a5cd39"><path d="M63.4 1.7v3.7h-9.1v3.8h8.2v3.5h-8.2v3.8h9.4v3.6H50.2V1.7h13.2zM80.6 10.7h4.1v6.6c-1.8 2-4.3 3.1-7.5 3.1-2.7 0-5-.9-6.8-2.7s-2.8-4.1-2.8-6.8c0-2.8.9-5 2.8-6.9s4.1-2.8 6.7-2.8c2.7 0 4.9.8 6.8 2.6l-2.1 3.1c-.8-.7-1.6-1.2-2.3-1.5-.6-.3-1.5-.4-2.2-.4-1.6 0-2.9.6-4 1.6s-1.6 2.5-1.6 4.2.6 3.2 1.6 4.2 2.2 1.6 3.7 1.6c1.4 0 2.6-.3 3.5-.8l.1-5.1zM97 5.2v14.9h-4V5.2h-5.2V1.7h14.4v3.5H97z"/></g><g fill="#40aa8b"><path d="M50.3 24.7h.7v4.6h-.7v-4.6zM56.5 24.7h.7v4.6h-.8L53.8 26v3.3h-.7v-4.6h.7l2.7 3.4v-3.4zM60.9 25.4v3.9h-.7v-3.9h-1.4v-.7h3.6v.7h-1.5zM66.9 24.7v.7h-2.5v1.2h2.2v.6h-2.2v1.2H67v.7h-3.3v-4.6l3.2.2zM72.4 26.2c0 .7-.4 1.2-1 1.5l1.2 1.7h-1l-1.2-1.6h-1v1.6h-.7v-4.6h1.7c.7 0 1.2.1 1.5.4.3.1.5.5.5 1zm-1 .7c.2-.1.3-.4.3-.6 0-.3-.1-.5-.3-.6-.2-.1-.5-.2-.8-.2h-1v1.6h.8c.5 0 .8-.1 1-.2zM74.8 28.3l-.5 1h-.8l2-4.6h.8l2 4.6h-.8l-.5-1h-2.2zm2-.8l-.8-1.9-.8 1.9h1.6zM81.8 28.6c.3 0 .5 0 .6-.1.2-.1.4-.3.6-.5l.5.6c-.5.6-1.1.8-1.7.8-.7 0-1.3-.2-1.7-.6-.5-.5-.6-1-.6-1.7 0-.6.3-1.3.7-1.8.5-.5 1-.6 1.7-.6s1.3.3 1.7.8l-.5.6c-.2-.2-.5-.4-.6-.5-.2-.1-.5-.1-.6-.1-.5 0-.8.2-1.2.5-.3.3-.5.6-.5 1.1s.2.8.5 1.2c.2.2.6.3 1.1.3zM86.9 25.4v3.9h-.7v-3.9h-1.4v-.7h3.6v.7h-1.5zM89.8 24.7h.7v4.6h-.7v-4.6zM94.6 29.3h-.8L92 24.7h.8l1.4 3.4 1.4-3.4h.8l-1.8 4.6zM101 25.4h-2.5v1.2h2.2v.6h-2.2v1.2h2.5v.7h-3.3v-4.6h3.3v.9z"/><path d="M81.8 28.6c.3 0 .5 0 .6-.1.2-.1.4-.3.6-.5l.5.6c-.5.6-1.1.8-1.7.8-.7 0-1.3-.2-1.7-.6-.5-.5-.6-1-.6-1.7 0-.6.3-1.3.7-1.8.5-.5 1-.6 1.7-.6s1.3.3 1.7.8l-.5.6c-.2-.2-.1-.2-.6-.5-.2-.1-.5-.1-.7-.1-.5.1-.7.2-1.1.5-.3.3-.5.6-.5 1.1s.2.8.5 1.2c.2.2.6.3 1.1.3z"/></g><path d="M22 22c4.1 0 7.6-3.4 7.6-7.7 0-4.2-3.4-7.7-7.6-7.7-4.1 0-7.6 3.4-7.6 7.7.1 4.2 3.5 7.7 7.6 7.7z" fill-rule="evenodd" clip-rule="evenodd" fill="#a5cd39"/><defs><path id="b" d="M22 22c4.2 0 7.6-3.4 7.6-7.7S26.2 6.6 22 6.6s-7.6 3.4-7.6 7.7c.1 4.2 3.5 7.7 7.6 7.7z"/></defs><clipPath id="c"><use xlink:href="#b" overflow="visible"/></clipPath><path d="M22 21.8c4.2 0 7.6-3.4 7.6-7.7S26.2 6.4 22 6.4s-7.6 3.4-7.6 7.7c.1 4.2 3.5 7.7 7.6 7.7z" clip-path="url(#c)" fill-rule="evenodd" clip-rule="evenodd" fill="#a5cd39"/><g><defs><path id="d" d="M22 22c4.2 0 7.6-3.4 7.6-7.7S26.2 6.6 22 6.6s-7.6 3.4-7.6 7.7c.1 4.2 3.5 7.7 7.6 7.7z"/></defs><clipPath id="e"><use xlink:href="#d" overflow="visible"/></clipPath><linearGradient id="f" gradientUnits="userSpaceOnUse" x1="9.7" y1="7.439" x2="27.553" y2="7.439" gradientTransform="translate(0 1.89)"><stop offset="0" stop-color="#0092c0"/><stop offset="1" stop-color="#a5cd39"/></linearGradient><path d="M18.6 18.3c4.9 0 8.9-4.1 8.9-9s-4-9-8.9-9-8.9 4.1-8.9 9 4 9 8.9 9z" opacity=".36" clip-path="url(#e)" fill-rule="evenodd" clip-rule="evenodd" fill="url(#f)"/></g><g><defs><path id="g" d="M22 22c4.2 0 7.6-3.4 7.6-7.7S26.2 6.6 22 6.6s-7.6 3.4-7.6 7.7c.1 4.2 3.5 7.7 7.6 7.7z"/></defs><clipPath id="h"><use xlink:href="#g" overflow="visible"/></clipPath><linearGradient id="i" gradientUnits="userSpaceOnUse" x1="27.741" y1="15.771" x2="20.66" y2="3.508" gradientTransform="translate(0 1.89)"><stop offset="0" stop-color="#91c73e"/><stop offset="1" stop-color="#0092c0"/></linearGradient><path d="M24.2 18.6c3.9 0 7-3.2 7-7.1s-3.1-7.1-7-7.1-7 3.2-7 7.1 3.1 7.1 7 7.1z" opacity=".71" clip-path="url(#h)" fill-rule="evenodd" clip-rule="evenodd" fill="url(#i)"/></g><g><defs><path id="j" d="M63.4 1.7v3.7h-9.1v3.8h8.2v3.5h-8.2v3.8h9.4v3.6H50.2V1.7h13.2zm17.2 9h4.1v6.6c-1.8 2-4.3 3.1-7.5 3.1-2.7 0-5-.9-6.8-2.7s-2.8-4.1-2.8-6.8c0-2.8.9-5 2.8-6.9s4.1-2.8 6.7-2.8c2.7 0 4.9.8 6.8 2.6l-2.1 3.1c-.8-.7-1.6-1.2-2.3-1.5-.6-.3-1.5-.4-2.2-.4-1.6 0-2.9.6-4 1.6s-1.6 2.5-1.6 4.2.6 3.2 1.6 4.2 2.2 1.6 3.7 1.6c1.4 0 2.6-.3 3.5-.8l.1-5.1zM97 5.2v14.9h-4V5.2h-5.2V1.7h14.4v3.5H97z"/></defs><clipPath id="k"><use xlink:href="#j" overflow="visible"/></clipPath><linearGradient id="l" gradientUnits="userSpaceOnUse" x1="48.63" y1="12.939" x2="82.496" y2="12.939" gradientTransform="translate(0 1.89)"><stop offset="0" stop-color="#0092c0"/><stop offset="1" stop-color="#a5cd39"/></linearGradient><path d="M82.5 20.4c-.9-6.3-8.2-11.2-16.9-11.2s-16 4.9-16.9 11.2h33.8z" opacity=".79" clip-path="url(#k)" fill-rule="evenodd" clip-rule="evenodd" fill="url(#l)"/><defs><path id="m" d="M63.4 1.7v3.7h-9.1v3.8h8.2v3.5h-8.2v3.8h9.4v3.6H50.2V1.7h13.2zm17.2 9h4.1v6.6c-1.8 2-4.3 3.1-7.5 3.1-2.7 0-5-.9-6.8-2.7s-2.8-4.1-2.8-6.8c0-2.8.9-5 2.8-6.9s4.1-2.8 6.7-2.8c2.7 0 4.9.8 6.8 2.6l-2.1 3.1c-.8-.7-1.6-1.2-2.3-1.5-.6-.3-1.5-.4-2.2-.4-1.6 0-2.9.6-4 1.6s-1.6 2.5-1.6 4.2.6 3.2 1.6 4.2 2.2 1.6 3.7 1.6c1.4 0 2.6-.3 3.5-.8l.1-5.1zM97 5.2v14.9h-4V5.2h-5.2V1.7h14.4v3.5H97z"/></defs><clipPath id="n"><use xlink:href="#m" overflow="visible"/></clipPath><linearGradient id="o" gradientUnits="userSpaceOnUse" x1="104.693" y1="16.861" x2="90.409" y2="-1.422" gradientTransform="translate(0 1.89)"><stop offset="0" stop-color="#0092c0"/><stop offset="1" stop-color="#a5cd39"/></linearGradient><path d="M89 1.5c-2 3.8-1.4 9.3 1.9 13.6 3 3.9 7.5 5.8 11.3 5.5V1.5H89z" opacity=".47" clip-path="url(#n)" fill-rule="evenodd" clip-rule="evenodd" fill="url(#o)"/><g><defs><path id="p" d="M63.4 1.7v3.7h-9.1v3.8h8.2v3.5h-8.2v3.8h9.4v3.6H50.2V1.7h13.2zm17.2 9h4.1v6.6c-1.8 2-4.3 3.1-7.5 3.1-2.7 0-5-.9-6.8-2.7s-2.8-4.1-2.8-6.8c0-2.8.9-5 2.8-6.9s4.1-2.8 6.7-2.8c2.7 0 4.9.8 6.8 2.6l-2.1 3.1c-.8-.7-1.6-1.2-2.3-1.5-.6-.3-1.5-.4-2.2-.4-1.6 0-2.9.6-4 1.6s-1.6 2.5-1.6 4.2.6 3.2 1.6 4.2 2.2 1.6 3.7 1.6c1.4 0 2.6-.3 3.5-.8l.1-5.1zM97 5.2v14.9h-4V5.2h-5.2V1.7h14.4v3.5H97z"/></defs><clipPath id="q"><use xlink:href="#p" overflow="visible"/></clipPath><linearGradient id="r" gradientUnits="userSpaceOnUse" x1="69.6" y1="11.749" x2="83.436" y2=".545" gradientTransform="translate(0 1.89)"><stop offset="0" stop-color="#0092c0"/><stop offset="1" stop-color="#a5cd39"/></linearGradient><path d="M82.4 1.1H71.2c-3.6 3.4-4.9 8.3-1.6 12.4 3 3.8 8.7 4.3 12.5 1.2 4-3.2 3.7-9.4.6-13.2 0-.1-.2-.2-.3-.4z" opacity=".61" clip-path="url(#q)" fill-rule="evenodd" clip-rule="evenodd" fill="url(#r)"/></g><g><defs><path id="s" d="M63.4 1.7v3.7h-9.1v3.8h8.2v3.5h-8.2v3.8h9.4v3.6H50.2V1.7h13.2zm17.2 9h4.1v6.6c-1.8 2-4.3 3.1-7.5 3.1-2.7 0-5-.9-6.8-2.7s-2.8-4.1-2.8-6.8c0-2.8.9-5 2.8-6.9s4.1-2.8 6.7-2.8c2.7 0 4.9.8 6.8 2.6l-2.1 3.1c-.8-.7-1.6-1.2-2.3-1.5-.6-.3-1.5-.4-2.2-.4-1.6 0-2.9.6-4 1.6s-1.6 2.5-1.6 4.2.6 3.2 1.6 4.2 2.2 1.6 3.7 1.6c1.4 0 2.6-.3 3.5-.8l.1-5.1zM97 5.2v14.9h-4V5.2h-5.2V1.7h14.4v3.5H97z"/></defs><clipPath id="t"><use xlink:href="#s" overflow="visible"/></clipPath><linearGradient id="u" gradientUnits="userSpaceOnUse" x1="90.637" y1="17.192" x2="105.165" y2="5.428" gradientTransform="translate(0 1.89)"><stop offset="0" stop-color="#0092c0"/><stop offset="1" stop-color="#a5cd39"/></linearGradient><path d="M102.4 3.8c-2.8-.6-6.1.3-8.8 2.5-4.4 3.5-5.7 9.2-2.9 12.7 2.5 3.2 7.5 3.4 11.8.8-.1 0-.1-16-.1-16z" opacity=".66" clip-path="url(#t)" fill-rule="evenodd" clip-rule="evenodd" fill="url(#u)"/></g><g><defs><path id="v" d="M63.4 1.7v3.7h-9.1v3.8h8.2v3.5h-8.2v3.8h9.4v3.6H50.2V1.7h13.2zm17.2 9h4.1v6.6c-1.8 2-4.3 3.1-7.5 3.1-2.7 0-5-.9-6.8-2.7s-2.8-4.1-2.8-6.8c0-2.8.9-5 2.8-6.9s4.1-2.8 6.7-2.8c2.7 0 4.9.8 6.8 2.6l-2.1 3.1c-.8-.7-1.6-1.2-2.3-1.5-.6-.3-1.5-.4-2.2-.4-1.6 0-2.9.6-4 1.6s-1.6 2.5-1.6 4.2.6 3.2 1.6 4.2 2.2 1.6 3.7 1.6c1.4 0 2.6-.3 3.5-.8l.1-5.1zM97 5.2v14.9h-4V5.2h-5.2V1.7h14.4v3.5H97z"/></defs><clipPath id="w"><use xlink:href="#v" overflow="visible"/></clipPath><linearGradient id="x" gradientUnits="userSpaceOnUse" x1="45.735" y1="-1.144" x2="65.385" y2="14.768" gradientTransform="translate(0 1.89)"><stop offset="0" stop-color="#0092c0"/><stop offset="1" stop-color="#a5cd39"/></linearGradient><path d="M45.1 1.5c-2.8 4.5-1.2 11.1 3.8 15.3 5.3 4.4 12.7 4.4 16.4 0 3.4-4.2 2.5-10.7-1.9-15.3H45.1z" opacity=".39" clip-path="url(#w)" fill-rule="evenodd" clip-rule="evenodd" fill="url(#x)"/></g></g></svg>