<svg xmlns="http://www.w3.org/2000/svg" viewBox="0 0 116.335 45.654"><g fill-rule="evenodd" clip-rule="evenodd" fill="#fff"><path d="M6.126 45.654c2.225 0 3.04-1.236 3.04-2.423 0-3.077-4.882-2.015-4.882-3.869 0-.778.717-1.31 1.694-1.31.902 0 1.767.297 2.385.989l.618-.754c-.692-.729-1.668-1.162-2.917-1.162-1.631 0-2.843.94-2.843 2.299 0 2.942 4.883 1.755 4.883 3.881 0 .643-.47 1.434-1.941 1.434a3.402 3.402 0 01-2.583-1.186l-.62.791c.68.766 1.744 1.31 3.166 1.31m17.452-.149v-7.329h2.62v-.915h-6.254v.915h2.608v7.329h1.026m17.23.149c2.237 0 3.374-1.31 3.374-3.362v-5.031h-1.038v5.018c0 1.508-.816 2.46-2.336 2.46s-2.324-.952-2.324-2.46v-5.018h-1.038v5.043c0 2.027 1.137 3.35 3.362 3.35m18.008-1.063h-1.792v-6.415h1.792c2.04 0 3.164 1.434 3.164 3.214 0 1.767-1.161 3.201-3.164 3.201zm0 .914c2.57 0 4.227-1.767 4.227-4.115 0-2.336-1.656-4.129-4.227-4.129h-2.818v8.244h2.818zm15.722 0h1.026v-8.244h-1.026v8.244zm16.599-.766c-1.854 0-3.028-1.434-3.028-3.349 0-1.929 1.174-3.35 3.028-3.35 1.842 0 3.04 1.421 3.04 3.35 0 1.915-1.198 3.349-3.04 3.349zm0 .915c2.435 0 4.104-1.829 4.104-4.264 0-2.436-1.67-4.265-4.104-4.265s-4.091 1.829-4.091 4.265c0 2.435 1.656 4.264 4.09 4.264zm18.256 0c2.225 0 3.04-1.236 3.04-2.423 0-3.077-4.882-2.015-4.882-3.869 0-.778.717-1.31 1.693-1.31.903 0 1.768.297 2.386.989l.618-.754c-.692-.729-1.67-1.162-2.917-1.162-1.632 0-2.843.94-2.843 2.299 0 2.942 4.882 1.755 4.882 3.881 0 .643-.47 1.434-1.94 1.434a3.402 3.402 0 01-2.583-1.186l-.618.791c.679.766 1.742 1.31 3.164 1.31M84.319 20.026l-.018 9.132h-9.655l-35.677.091v.002H10.067a6.976 6.976 0 01-.311.007c-1.075 0-3.787-.222-5.728-2.273-2.15-2.273-2.202-5.032-2.196-5.453l.004-11.643c-.027-.59-.036-3.499 2.17-5.895 1.819-1.973 4.662-2.126 5.489-2.126l39.699-.038v17.304h23.348V1.968h11.772l-.04 8.097 11.3-8.097h15.562L94.9 15.39l16.406 13.768H95.222l-10.903-9.132zm13.442-4.625L116.22.138H94.987l-8.864 6.351.03-6.351H70.712v17.166H51.024V0L9.494.037c-1.015 0-4.511.196-6.833 2.717C.064 5.573-.034 8.901.006 9.927L.002 21.521c-.007.671.1 3.978 2.697 6.722 2.429 2.568 5.745 2.845 7.057 2.845l31.043-.007v-.001l35.677-.092h9.652l.013-7.048 8.416 7.048h21.778L97.76 15.401z"/><path d="M37.139 3.708v6.409H13.513s-.71-.044-1.138.432c-.406.45-.372 1.069-.372 1.069l-.001.879h25.09v6.272h-25.1l.007.859s.022.634.4.969c.523.464 1.004.415 1.004.415h23.736v6.409H10.016s-2.856.211-4.658-1.694c-1.748-1.848-1.696-4.181-1.696-4.181l.004-11.705S3.49 7.256 5.353 5.235C6.85 3.61 9.57 3.699 9.57 3.699l27.568.009m1.939-.048h8.285v17.305h25.452v6.454H39.078V3.66m57.084.138h9.888L92.042 15.38l14.237 11.948H95.887L82.496 16.112l-.021 11.216h-8.103V3.798h8.103l-.048 9.842 13.735-9.842"/></g></svg>