<svg xmlns="http://www.w3.org/2000/svg" viewBox="0 0 1179.405 569"><linearGradient id="a" gradientUnits="userSpaceOnUse" x1="209.5" y1="764.5" x2="209.5" y2="518.5" gradientTransform="matrix(1 0 0 -1 0 764.5)"><stop offset="0" stop-color="#09adec"/><stop offset="1" stop-color="#181d63"/></linearGradient><path d="M419 111S355 0 215 0C83 0 0 82 0 110c0 30.361 59.63 62.506 113 88.5 45.319 22.073 99.5 47.5 99.5 47.5s-104-67-104.5-126c-.542-63.998 63.102-81 107-81 125 0 204 72 204 72z" fill="url(#a)"/><linearGradient id="b" gradientUnits="userSpaceOnUse" x1="213" y1="487.5" x2="213" y2="235.5" gradientTransform="translate(0 81.5)"><stop offset="0" stop-color="#f9a221"/><stop offset="1" stop-color="#380400"/></linearGradient><path d="M422.5 458s-64 111-204 111c-132 0-215-82-215-110 0-30.361 59.63-62.506 113-88.5 45.319-22.073 104-53.5 104-53.5s-108.5 73-109 132c-.542 63.998 63.102 81 107 81 125 0 204-72 204-72z" fill="url(#b)"/><linearGradient id="c" gradientUnits="userSpaceOnUse" x1="0" y1="284.75" x2="243" y2="284.75"><stop offset="0" stop-color="#5e0105"/><stop offset="1" stop-color="#dd1a22"/></linearGradient><path d="M0 110c0 72 92 102.5 92 174.5 0 96-88.5 83-88.5 175 0 0 3.337-27.364 47.5-51 71-38 192-84.5 192-124 0-37.5-86.585-71.89-163-107C6 143.5 0 110 0 110z" fill="url(#c)"/><linearGradient id="d" gradientUnits="userSpaceOnUse" x1="209.394" y1="323.186" x2="209.394" y2="245.302"><stop offset="0" stop-color="#fff" stop-opacity="0"/><stop offset="1" stop-color="#fff"/></linearGradient><path d="M183.219 248.094c-1.14-1.28.159-3.246 1.783-2.697C199.642 250.348 236 264.735 236 285.5c0 16.826-34.899 33.23-50.415 37.603-2.07.583-3.482-2.053-1.855-3.462 7.015-6.074 22.27-22.326 22.27-34.141 0-10.5-15.188-28.875-22.781-37.406z" fill="url(#d)"/><g fill="#fff"><path d="M864.707 209c5.285 2.349 11.228 2.584 16.925 2.56 2.654 2.02 4.815 4.84 5.027 8.304.634 8.351.188 16.737.27 25.112 9.666-2.678 19.767-3.066 29.739-2.514 6.049.728 12.086 3.113 16.502 7.388 4.569 4.71 6.354 11.346 7.235 17.665.2 19.039-.2 38.09.188 57.129-4.487 2.02-9.854 1.174-14.435-.141-4.451-1.316-7.47-5.58-7.857-10.101-.447-12.05.399-24.16-.517-36.2-.893-4.474.176-10.405-4.287-13.224-8.269-4.229-18.041-2.514-26.533.082-.023 16.126.059 32.264-.035 48.39.247 4.487-2.478 9.056-6.918 10.313-4.58 1.28-9.443 1.703-14.176 1.597-2.02-.998-.823-3.277-.8-4.968-.575-25.393-.14-50.857-.175-76.286-.083-2.748-.33-5.508.164-8.233-.705-8.938-.117-17.923-.317-26.873zM541.502 210.245c4.944 2.267 10.43 2.314 15.75 2.678 5.133.705 6.495 6.824 6.495 11.17.047 30.29.047 60.582-.012 90.872-6.307 8.739-17.758 10.125-27.683 10.935-13.495.411-28.576.787-39.758-8.022-9.69-8.174-11.71-21.881-11.592-33.861-.529-12.215 3.288-25.77 13.671-33.157 7.999-6.284 18.417-8.292 28.353-8.245 5.062.528 10.336.787 14.764 3.606.14-11.992.094-23.984.012-35.976m-25.675 54.721c-6.683 4.217-8.55 12.838-8.527 20.225.047 6.965 2.783 14.987 9.49 18.182 7.658 3.688 16.748 3.148 24.806 1.174-.047-13.73-.07-27.46.011-41.19-8.362-2.42-18.146-3.441-25.78 1.609zM968.852 214.391c7.881-4.44 18.616 3.312 16.784 12.192-.258 9.455-13.566 13.789-19.838 7.129-6.096-5.262-4.193-16.068 3.054-19.32zM395.908 244.823c10.805-3.089 22.21-2.913 33.345-2.607 8.585.622 17.617 2.372 24.606 7.704 5.767 4.405 9.126 11.616 9.09 18.84.024 18.898.024 37.796 0 56.694-4.909-.67-10.042-.082-14.787-1.62-3.958-1.234-7.094-5.028-6.906-9.268-.117-13.754.059-27.519-.059-41.273.106-4.91-3.64-9.372-8.362-10.465-7.693-1.82-15.492.235-23.174 1.01.388 16.15.06 32.3.188 48.45.2 4.357-1.785 9.16-5.99 10.97-5.038 2.278-10.794 1.867-16.185 2.231-.41-24.007-.058-48.026-.176-72.045-.458-4.769 4.44-7.552 8.41-8.621zM704.573 245.68c4.91-2.384 10.406-3.464 15.844-3.382 8.445 0 16.89.047 25.334-.012.2 6.566 1.116 15.433-5.485 19.344-5.92 2.432-12.544.752-18.651 2.244-3.36.951-6.495 3.512-7.294 7.035a64.48 64.48 0 00-1.14 11.933c.048 14.858 0 29.716.024 44.562-4.463-2.866-9.784-3.453-14.799-4.745-4.498-1.163-7.317-5.92-6.965-10.442-.023-14.494-.047-28.999.012-43.493-.176-9.266 4.816-18.686 13.12-23.044zM764.473 253.467c5.333-8.397 16.115-10.124 25.24-11.075 13.72-.717 28.906-1.292 40.721 6.894 10.442 7.564 12.908 21.54 13.002 33.627.552 11.733-2.313 24.618-11.345 32.769-12.356 10.36-30.268 12.015-45.337 7.623-.329 11.557-.035 23.126-.141 34.695-5.356-2.772-11.58-1.68-17.289-2.995-4.228-2.49-5.12-7.764-4.98-12.262.117-29.762-.14-59.525.13-89.276m22.116 10.16c.023 13.906-.106 27.825.187 41.72 7.987 1.232 16.914 3.288 24.254-1.352 7.036-3.323 9.432-11.616 9.725-18.804.435-7.434-2.067-15.914-8.75-19.978-7.822-4.005-17.09-3.453-25.416-1.586zM962.791 241.205c4.287 2.232 9.162 2.185 13.883 2.244 3.254-.235 5.92 2.431 7.047 5.262 1.668 4.91 1.469 10.171 1.433 15.28 0 15.68-.011 31.372.012 47.052.047 4.345-.963 9.42-5.133 11.686-5.214 2.666-11.31 2.443-17.007 2.772-.434-28.095.024-56.201-.235-84.296zM1013.989 245.387c10.582-3.56 21.94-3.406 32.98-3.254 9.385.34 19.321 2.15 26.932 8.022 6.32 4.875 9.126 13.108 9.009 20.895-.082 18.146.188 36.305-.141 54.463-5.156-.517-10.559-.083-15.468-1.915-4.205-1.468-6.707-5.884-6.625-10.206-.094-13.719.035-27.426-.047-41.144.153-4.592-3.723-8.233-7.904-9.384-7.635-1.856-15.422.129-23.044.951a70.702 70.702 0 01-.353 6.096c.87 10.171-.552 20.401.259 30.573-1.316 6.965 2.208 15.773-3.63 21.247-5.203 3.946-12.344 3.793-18.534 3.112.165-24.207 0-48.402.083-72.609-.33-3.676 3.582-5.673 6.483-6.847zM1113.976 247.524c3.441-3.981 9.009-5.426 14.118-5.226 10.958.152 22.328-.928 32.78 3.136 7.952 2.478 14.06 9.325 16.538 17.16 3.148 9.595 1.515 19.79 1.926 29.691.482 9.514-1.55 20.273-9.408 26.533-7.552 6.742-18.275 6.154-27.718 6.566-10.16-.282-21.694 1.315-30.303-5.31-7.505-5.426-8.785-15.761-7.329-24.288.693-6.707 3.794-13.707 10.054-16.914 12.003-7.14 26.779-1.245 39.288-6.448 3.147-1.022 3.97-4.733 2.69-7.505-2.69-3.054-6.907-3.923-10.736-4.58-11.98-1.586-24.195-.564-35.905 2.325.094-5.227.587-10.923 4.005-15.14m29.41 44.292c-5.92.082-12.544.575-16.948 5.038-.035 2.42-.294 5.203 1.738 6.989 3.77 3.324 9.244 2.854 13.942 3.03 4.91-.035 11.181.951 14.247-3.9 1.996-5.308 1.397-11.146 1.538-16.701-4.346 2.83-9.126 5.732-14.517 5.544zM295.874 255.194c7.587-9.772 20.683-12.368 32.381-12.708 10.09-.094 21.189.81 29.316 7.458 7.964 6.883 9.596 18.31 8.974 28.27-.165 5.768-3.864 11.593-9.62 13.12-7.763 2.126-15.973 2.42-23.948 1.785-6.742.646-13.625.963-20.037 3.371-.083 5.603 5.743 8.398 10.523 9.115 13.272 1.315 26.51-.729 39.629-2.55.235 6.907-.388 15.317-6.754 19.51-6.307 3.664-13.918 3.793-21.012 4.134-11.98-.4-25.04-1.386-34.766-9.197-8.586-6.859-11.04-18.37-11.792-28.787-.435-11.428.164-23.925 7.106-33.521m19.79 10.488c-4.099 3.77-3.852 9.714-3.558 14.8 7.681-2.655 15.926-2.056 23.878-3.101 3.17-.552 6.095-2.244 8.033-4.84-.011-1.785.012-3.57.06-5.343-6.907-7.81-20.766-8.727-28.413-1.516zM618.586 243.014c12.097-1.574 25.381-.74 36.022 5.755 10.054 6.06 14.8 18.053 14.94 29.399.33 11.768.353 24.9-7.458 34.554-6.8 9.208-18.863 12.05-29.715 12.474-9.631-.153-19.544-.611-28.565-4.346-7.587-3.512-13.542-10.512-15.468-18.675-2.772-10.888-4.475-22.504-1.41-33.497 2.69-9.49 9.303-18.217 18.546-22.07 4.17-1.82 8.61-2.96 13.108-3.594m2.255 20.026c-4.745 1.092-9.796 3.617-11.57 8.48-3.311 8.045-2.384 17.547.811 25.475 2.913 6.836 11.029 8.257 17.642 8.516 6.753.281 14.763-1.774 18.099-8.257 3.018-5.027 2.513-11.076 2.349-16.69-.364-6.378-3.394-13.096-9.35-16.02-5.578-2.585-12.05-2.714-17.981-1.504z"/></g></svg>