<svg xmlns="http://www.w3.org/2000/svg" viewBox="0 0 386.2 46.5"><path d="M35.8 3.5h27l.7 9.1h-1.6c-.6-3.8-.7-4.5-2.1-6s-4.1-1.3-6.3-1.3h-6.9c-.5 0-.9.1-1.3.5-.3.4-.5.9-.4 1.4v11.6h3c1.5 0 3-.6 3.9-1.7 1.1-1.5 1.7-3.4 1.6-5.4H55V28h-1.6c-.1-2.7-.6-4.6-1.6-5.8-1.1-1.2-2.6-1.8-4.2-1.8h-2.8v13.1c0 .4.2.9.5 1.2.5.3 1.1.5 1.7.4h5.5c5.9 0 9.3-1.9 10.3-9.5h1.7l-.6 11.3H35.8v-1.8h1.5c.7.1 1.4-.1 2-.5.4-.4.6-.9.6-1.4V7.1c0-.5-.1-1-.5-1.4-.4-.3-1-.5-1.6-.5h-2V3.5z" fill="#fff"/><path d="M62.3 14.6h12.2v1.6c-.9-.1-1.9.1-2.8.4-.4.2-.6.6-.6 1 0 .3.1.7.2 1l5.9 13.2L82.7 19c.1-.2.1-.4.1-.7 0-1.2-1.1-1.9-3.4-2.2v-1.6h9.3v1.6c-.8 0-1.6.3-2.2.8-.6.4-1 1-1.3 1.7l-8.2 19h-1.3l-8.8-19.5c-.2-.6-.6-1.1-1.2-1.5-1.1-.3-2.2-.5-3.3-.4l-.1-1.6zM97.3 13.9c2.9-.1 5.6 1.1 7.6 3.3 2.1 2.3 3.2 5.4 3.1 8.6.1 2.2-.4 4.3-1.4 6.3-.9 1.7-2.2 3.1-3.9 4.1-1.7 1-3.6 1.5-5.5 1.5-2.8 0-5.5-1.2-7.4-3.3-4-5-4-12.1 0-17.1 1.9-2.2 4.6-3.4 7.5-3.4zm0 1.7c-1.8 0-3.4.9-4.4 2.4-1.1 1.6-1.7 4.2-1.7 7.6 0 3.5.6 6.1 1.7 7.8.9 1.5 2.6 2.5 4.4 2.5 1.8 0 3.5-.9 4.5-2.5 1.2-1.6 1.7-4.3 1.7-8 0-3.5-.6-5.9-1.7-7.5-1-1.4-2.7-2.3-4.5-2.3z" fill="#fff"/><path d="M115.3 3.1v30.6c0 .4.1.7.4 1 .4.3.9.5 1.5.5h1.4V37h-10.8v-1.8h1.3c.6 0 1.2-.1 1.6-.5.4-.4.6-.9.5-1.5V7.7c.1-.6-.2-1.3-.6-1.7-.6-.5-1.4-.8-2.2-.8h-2V3.4l8.9-.3zM126.7 14.2V29c-.1 1.5.4 3 1.4 4.2.9 1 2.2 1.5 3.5 1.5 1.8 0 3.4-.8 4.5-2.2 1.3-1.5 1.9-3.4 1.9-5.4v-8.4c0-.7-.3-1.4-.8-1.8-1-.5-2.1-.8-3.2-.7v-1.7l7.9-.4v18.4c0 .7.2 1.4.7 2 .6.5 1.3.7 2 .7h1.4v1.6l-7.5.2-.5-4.4c-1.1 1.4-2.5 2.6-4 3.6-1.2.8-2.7 1.2-4.1 1.2-1.9.1-3.7-.7-5.1-2-1.4-1.3-2.1-3.6-2.1-6.8v-9.7c.1-.8-.3-1.6-1-2-.9-.4-1.9-.6-2.9-.5v-1.7l7.9-.5zM150.5 5.5h1.6v9.1h13.6v2.2h-13.6v14.3c-.1 1 .2 2 .9 2.9.6.7 1.4 1 2.2 1 1.1 0 2.1-.6 2.8-1.5.9-1.5 1.4-3.2 1.3-5h1.6c-.1 3-.8 5.2-2 6.6-1.2 1.4-3 2.2-4.9 2.2-1.6.1-3.1-.5-4.3-1.5-1.1-1.1-1.6-2.5-1.6-4v-15h-3.9v-1.7c1.6-.2 3-1 4-2.2 1.6-2.2 2.4-4.8 2.3-7.4z" fill="#fff"/><path d="M160.9 14.6l8.9-.3v19.2c0 .4.1.8.4 1.1.4.3.9.5 1.4.5h1.6v1.8h-10.9v-1.8h1.4c.6.1 1.1-.1 1.5-.5.4-.4.5-.9.5-1.5V19.5c.1-.7-.2-1.5-.8-2-.6-.5-1.5-.7-2.3-.7h-1.8v-2.2zM167.1 4a2.732 2.732 0 012.7 2.7c0 .7-.3 1.4-.8 1.9-1.1 1-2.7 1-3.8 0-1-1.1-1-2.7 0-3.8.6-.5 1.2-.8 1.9-.8zM184.4 13.9c2.9-.1 5.6 1.1 7.6 3.3 2.1 2.3 3.2 5.4 3.1 8.6.1 2.2-.4 4.3-1.4 6.3-.9 1.7-2.2 3.1-3.9 4.1-1.7 1-3.6 1.5-5.5 1.5-2.8 0-5.5-1.2-7.4-3.3-4-5-4-12.1 0-17.1 1.9-2.2 4.7-3.4 7.5-3.4zm0 1.7c-1.8 0-3.4.9-4.4 2.4-1.1 1.6-1.7 4.2-1.7 7.6 0 3.5.6 6.1 1.7 7.8.9 1.5 2.6 2.5 4.4 2.5 1.8 0 3.5-.9 4.5-2.5 1.2-1.6 1.7-4.3 1.7-8 0-3.5-.6-5.9-1.7-7.5-.9-1.4-2.7-2.3-4.5-2.3z" fill="#fff"/><path d="M194.6 14.6l7.4-.5c.3 1.6.6 3.3.7 4.9.9-1.5 2.1-2.7 3.5-3.6 1.4-.8 3-1.2 4.6-1.2 1.3 0 2.6.3 3.7.9 1.1.7 1.9 1.6 2.4 2.8.6 1.3.9 2.8.9 4.2V33c-.1.6.1 1.3.5 1.7.5.4 1.2.6 1.8.5h.6V37H211v-1.8h.2c.8.1 1.5-.1 2.2-.5.4-.4.7-.9.6-1.5v-9.6c.1-1.6-.3-3.2-1-4.6-.9-1.4-2.4-2.2-4.1-2.1-1.8 0-3.4.8-4.5 2.2-1.3 1.6-1.9 3.6-1.8 5.7v8.3c-.1.6.1 1.3.6 1.7.5.4 1.2.6 1.9.5h.6v1.8h-10v-1.8h.6c.6 0 1.3-.1 1.8-.5.4-.3.6-.7.6-1.2V19c.1-.8-.2-1.6-.8-2.2-.6-.5-1.4-.8-2.2-.7h-1.1v-1.5zM249.8 6.3l2-3.5h1.6l.9 14.1h-1.5c-1.2-4-2.6-7-4.2-8.8-1.7-2.1-4.3-3.4-7.1-3.5-2 0-4 .6-5.6 1.8-1.7 1.3-3 3.1-3.7 5.2-1 2.8-1.4 5.9-1.3 8.9-.1 2.9.3 5.9 1.3 8.7.7 2 1.9 3.8 3.6 5.1 1.6 1.1 3.4 1.7 5.4 1.6 2.4.2 4.7-.7 6.5-2.3 1.5-1.6 2.4-3.8 2.3-6v-3.3c0-.5-.2-.9-.6-1.2-.6-.3-1.3-.5-2-.4h-3V21H258v1.7h-1c-.7-.1-1.3.1-1.9.5-.4.3-.6.8-.6 1.4V38h-1.6c-.6-2.1-1.2-4.1-1.8-6-1 1.8-2.5 3.3-4.3 4.4-1.7 1-3.6 1.5-5.6 1.5-2.9 0-5.8-.8-8.3-2.3-7.9-5-10.5-15.3-6-23.5 1.4-2.7 3.5-5 6.1-6.6 2.3-1.6 5-2.4 7.8-2.5 1.5 0 2.9.2 4.3.8 1.7.4 3.3 1.3 4.7 2.5zM281.8 35.2l.4.7c0 1.3-1.5 1.1-2.9 1.1-1.1 0-3.3-.1-4-.6s-1-1.2-1.6-2.7c-1.1 1.3-2.5 2.4-4 3.2-1.3.6-2.7.8-4.1.8-1.9.1-3.7-.4-5.2-1.5-1.2-.9-1.8-2.3-1.8-3.8 0-2.3 1.4-4.3 4.1-5.8 3.4-1.7 7.1-2.8 10.9-3.1v-3.4c0-1.2-.5-2.3-1.5-3.1-1-.9-2.3-1.3-3.7-1.3-1.2 0-2.5.3-3.6.9-.7.4-1.1.9-1.1 1.3.1.4.3.8.6 1.1.4.5.6 1.1.7 1.7 0 .7-.2 1.3-.7 1.8-.5.5-1.1.7-1.8.7-.8 0-1.5-.3-2-.8-.5-.6-.8-1.3-.8-2.1 0-1.6.9-3 2.7-4.3 2.1-1.4 4.5-2.1 7-2 2.2-.1 4.3.5 6.1 1.7 1.3 1 2.1 2.6 2.1 4.2V32c0 .7.1 1.5.5 2.1.3.4.7.8 1.3.9.7.1 1.6.2 2.4.2zm-8.3-10.1c-4 .6-6.9 1.5-8.6 2.7-1.3 1-2 2.5-1.9 4.1-.1 1.1.3 2.1 1 2.9.7.7 1.6 1 2.5 1 1.9 0 3.6-.8 4.9-2.1 1.4-1.4 2.1-3.4 2.1-5.4v-3.2z" fill="#fff"/><path d="M281 14.6l6.4-.4c.3 1.6.6 3.2.7 4.8.9-1.5 2.2-2.7 3.6-3.7 1.2-.7 2.6-1.1 4-1.1 1.4-.1 2.7.4 3.8 1.2 1.2 1.1 2 2.4 2.3 4 .9-1.5 2.1-2.9 3.5-3.9 1.3-.8 2.8-1.3 4.3-1.3 1.7-.1 3.4.5 4.6 1.8 1.4 1.8 2.1 3.9 2 6.2v11.1c-.1.5.1 1 .5 1.4.6.4 1.3.6 2 .5h1V37h-11.2v-1.8h1.1c.7.1 1.4-.1 2-.5.4-.4.6-.9.6-1.4V22.1c.1-1.4-.3-2.8-1.2-3.9-.8-.9-2-1.4-3.2-1.4-1 0-1.9.3-2.7.8-.8.6-1.5 1.4-1.9 2.3-.6 1.1-.9 2.3-1 3.6v9.6c0 .5.1 1.1.5 1.5.5.3 1 .5 1.6.5h1.5v1.8h-11.4v-1.8h1.3c.6 0 1.3-.1 1.8-.5.4-.3.6-.7.6-1.2V23.2c.1-1.7-.3-3.3-1.2-4.8-.7-1-1.9-1.5-3.1-1.5-1.5-.1-2.9.6-3.9 1.7-1.3 1.6-2 3.6-1.9 5.7v8.9c-.1.5.1 1 .5 1.4.6.4 1.3.6 2 .5h1.2V37h-11.3v-1.8h1.7c.5 0 1.1-.1 1.5-.5.3-.3.5-.8.5-1.2V18.8c.1-.7-.2-1.3-.6-1.8-.7-.5-1.6-.8-2.5-.8v-1.6z" fill="#fff"/><path d="M320.3 14.6l8-.3v19.2c0 .4.1.8.4 1.1.4.3.9.5 1.4.5h2.5V37H319v-1.8h3.3c.6.1 1.1-.1 1.5-.5.4-.4.5-.9.5-1.5V19.1c.1-.7-.2-1.5-.8-2-.6-.5-1.5-.7-2.3-.7h-.9v-1.8zM325.6 4a2.732 2.732 0 012.7 2.7c0 .7-.3 1.4-.8 1.9-1.1 1-2.7 1-3.8 0-1-1.1-1-2.7 0-3.8.6-.5 1.2-.8 1.9-.8z" fill="#fff"/><path d="M332 14.6l7.4-.5c.3 1.6.6 3.3.7 4.9.9-1.5 2.1-2.7 3.5-3.6 1.4-.8 3-1.2 4.6-1.2 1.3 0 2.6.3 3.7.9 1.1.7 1.9 1.6 2.4 2.8.6 1.3.9 2.8.9 4.2V33c-.1.6.1 1.3.5 1.7.5.4 1.2.6 1.8.5h.7V37h-9.9v-1.8h.2c.8.1 1.5-.1 2.2-.5.4-.4.7-.9.6-1.5v-9.6c.1-1.6-.3-3.2-1-4.6-.9-1.4-2.4-2.2-4.1-2.1-1.8 0-3.4.8-4.5 2.2-1.3 1.6-1.9 3.6-1.8 5.7v8.3c-.1.6.1 1.3.6 1.7.5.4 1.2.6 1.8.5h.6v1.8H332v-1.8h1.5c.6 0 1.3-.1 1.8-.5.4-.3.6-.7.6-1.2V19c.1-.8-.2-1.6-.8-2.2-.6-.5-1.4-.8-2.2-.7h-1.2l.3-1.5zM375.2 15.8c1.6-1.6 6-4 7.5-4 .8-.1 1.6.1 2.3.6.5.5-.4 1.7-.4 2.4 0 .5-.2 1.1-.5 1.5-.3.4-.8.6-1.3.6-.9 0-1.5-.6-1.8-1.7-.1-.5-.3-.7-.6-.7-1.4.5-2.8 1.3-3.9 2.3.6.7 1.1 1.6 1.4 2.5.3.7.4 1.5.4 2.2 0 1.3-.3 2.6-1 3.7-.8 1.2-2 2.2-3.3 2.8-1.4.8-2.9 1.2-4.5 1.2h-2.6c-1.3-.1-2.5.1-3.7.6-.6.4-.9 1-.9 1.7 0 .6.3 1.1.7 1.4.9.4 1.8.6 2.8.5l5.9-.1c3 0 5.1.5 6.4 1.5 1.3.9 2.1 2.5 2 4.1 0 1.9-.8 3.6-2.2 4.8-2.1 1.8-5.2 2.8-9.3 2.8-3.4 0-6-.6-7.6-1.9-1.2-.7-1.9-2-2-3.3 0-1 .5-1.9 1.3-2.6 1.2-.9 2.7-1.5 4.2-1.7-1.3-.3-2.5-.8-3.6-1.7-.8-.7-1.2-1.7-1.2-2.8 0-1 .4-1.9 1-2.7.9-.9 2.1-1.6 3.3-2-1.2-.6-2.3-1.6-3-2.7-.7-1.1-1-2.4-1-3.6 0-2.1.9-4.1 2.5-5.4 1.9-1.5 4.2-2.3 6.6-2.2 1.1 0 2.2.2 3.2.5s2 .8 2.9 1.4zM370.3 37c-2.9 0-5 .4-6.3 1.2-1.1.6-1.8 1.7-1.9 2.9 0 1 .5 2 1.4 2.5 1.6.9 3.5 1.4 5.3 1.2 2.1.1 4.3-.3 6.2-1.4 1.4-.9 2.1-1.9 2.1-3 0-.7-.2-1.3-.6-1.8-.5-.6-1.2-1.1-2-1.3-1.4-.2-2.8-.4-4.2-.3zm-1.4-21.6c-1.3 0-2.6.5-3.5 1.6-1 1.2-1.5 2.8-1.4 4.4-.1 1.7.4 3.3 1.4 4.7 1.6 1.9 4.6 2.2 6.5.5.2-.2.4-.3.5-.5 1-1.3 1.5-3 1.4-4.6.1-1.6-.4-3.2-1.4-4.4-.8-1.1-2.1-1.7-3.5-1.7z" fill="#fff"/><path d="M383.5 12a2.732 2.732 0 012.7 2.7c0 .7-.3 1.4-.8 1.9-1.1 1-2.7 1-3.8 0-1-1.1-1-2.7 0-3.8.6-.5 1.2-.8 1.9-.8zM26.3 37.2h-.5v-.8h.7c.1.1.2.2.2.3.1.3-.1.5-.4.5m.9-.4c0-.2-.1-.5-.3-.6-.2-.2-.5-.2-.8-.2h-.8v2.6h.5v-1h.4l.5 1h.5l-.6-1c.5-.2.7-.5.6-.8m-.9 2.5c-1.1 0-2-.9-2-2s.9-2 2-2 2 .9 2 2-.9 2-2 2m0-4.5c-1.4 0-2.5 1.1-2.5 2.5s1.1 2.5 2.5 2.5 2.5-1.1 2.5-2.5-1.2-2.5-2.5-2.5M0 2.4c11.9-6.4 27.3.3 28.4 16.5C6.4 20.6 3.7 10.7 0 2.4z" fill="#fff"/><path d="M0 37c11.9 6.4 27.2-.4 28.4-16.5C6.4 18.7 3.7 28.7 0 37z" fill="#fff"/><path d="M24.3 7.4C18.6 0 8.2-2.2 0 2.4c3.3 7.4 5.8 16.2 22.1 16.7 2-3.5 2.8-7.6 2.2-11.7zM4 28.8c.5 0 .9.1 1.4.1 6.4 0 12.3-3.2 15.9-8.5-9.8.5-14.4 4-17.3 8.4z" fill="#fff"/></svg>