<svg xmlns="http://www.w3.org/2000/svg" viewBox="0 0 718.29 288.94"><defs><linearGradient id="a" x1="211.35" y1="-9.42" x2="75.6" y2="281.7"><stop offset="0" stop-color="#70abdc"/><stop offset=".17" stop-color="#67a6da"/><stop offset=".46" stop-color="#4d9ad4"/><stop offset=".6" stop-color="#3e93d0"/><stop offset=".99" stop-color="#1b7cc1"/></linearGradient><linearGradient id="b" x1="236.37" y1=".1" x2="230.47" y2="289.07"><stop offset="0" stop-color="#3e93d0"/><stop offset=".99" stop-color="#1b7cc1"/></linearGradient></defs><path d="M211.7 86.29l-2.23 103s-3.33-40.63 2.23-103zM516.51 215.58a2.57 2.57 0 01-2.51 2.56c-6.8.19-13 .92-20.36 1.29-7.11.35-14 .62-19.48 1.77a2.55 2.55 0 01-2.3-.64 2.56 2.56 0 01-.8-1.86v-14a2.56 2.56 0 00-4.05-2.08 179 179 0 01-17.93 11.81c-8.61 4.8-14.85 7.07-22.87 7.07-19.9 0-36.84-11.59-36.84-42.12V124c0-15-2.38-18.19-9.8-19.88l-6.41-1.31a2.56 2.56 0 01-2-2.33l-.23-3.25a2.55 2.55 0 012.45-2.74c8.44-.3 29.06-.91 37.4-1.56a2.54 2.54 0 012.74 2.72c-.63 8.7-.63 21.08-.63 37.95v38.16c0 25.16 12.77 31.94 26.14 31.94 10.39 0 21.35-4 31.22-12.79a2.59 2.59 0 00.86-1.93V124c0-15-2.67-18.47-12.48-19.88l-8.63-1.38a2.56 2.56 0 01-2.16-2.53v-3.15a2.55 2.55 0 012.46-2.56c9.54-.3 32.86-.93 41.43-1.6a2.55 2.55 0 012.74 2.55V187c0 14.13 2.37 22.19 14 23l5.55.2a2.56 2.56 0 012.47 2.56zM365 185.88c-3.63 9.55-7.78 20.26-11.59 29.95a3.6 3.6 0 01-3.36 2.28H257a3.61 3.61 0 01-3.24-2l-.14-.3a3.6 3.6 0 01.3-3.67c23.82-33.54 46.37-67.35 69.1-102.34a3.62 3.62 0 00-3-5.59h-19.78c-21.39 0-25.25 4.24-33.57 20.07l-2.7 5a3.61 3.61 0 01-4.34 1.69l-1.23-.42a3.61 3.61 0 01-2.28-4.47c2.78-9 5.91-18.64 8.06-28.55a3.61 3.61 0 013.52-2.87h86.07a3.61 3.61 0 013.29 2.13 3.61 3.61 0 01-.3 3.5C334 134 311.72 167.92 289 203.2a3.62 3.62 0 003 5.58h22.8c22.53 0 28.49-5.91 39.73-22.78l.14-.23 2.14-3.75a3.61 3.61 0 014.69-1.47l1.69.8a3.61 3.61 0 011.81 4.53zM645.4 214.26a3.86 3.86 0 013.47-3.83c16.43-1.66 24.86-4.29 24.86-22.29v-58.23c0-16.41-.78-21.84-15.52-24.55a3.87 3.87 0 01-3.19-3.79v-3.24a3.85 3.85 0 013.74-3.85c6.43-.18 20.08-.64 32.43-1.55a3.84 3.84 0 014.13 3.84v91.37c0 18 3.47 20.63 19.5 22.28a3.86 3.86 0 013.48 3.83 3.85 3.85 0 01-3.85 3.85h-65.2a3.85 3.85 0 01-3.85-3.84z" fill="#fff"/><path fill="url(#a)" d="M29.7 54.2L231.56 0l-7.35 288.94L0 246.45 29.7 54.2z"/><path fill="url(#b)" d="M231.56 0l10.92 7.92-7.1 268.34-11.17 12.68L231.56 0z"/><path d="M29.7 54.2l-2.92 13.74c0 .64-.05 1.28-.05 1.93 0 83.67 66.84 151.5 154.79 151.5a166.76 166.76 0 0044.56-6.06L231.56 0z" opacity=".15" fill="#fff"/><path d="M206.72 199.62c-3.62 11.26-14.88 42.64-19.41 52.65L20.39 228l.6-6.54c30.74 2 33.66.25 35.74-20.59L67 99c2.35-23-.44-23.38-28.26-18.84l.65-6.76L205.38 34c-1 8.4-1.9 30.86-2.85 47.83L191.32 85c-1.75-13.25-4.69-19.74-8.83-25.57-4.49-6-14.49-5.92-41.64.07l-28.26 6.19c-11.42 2.48-12.24 3.47-13.1 11.47l-6.72 62.64 33.83-2.42c33.29-2.39 35.43-5 42.39-26.67l10.85-1.26-7.39 61.86h-10.61c-2.13-22.29-4.48-24-36.16-22.51l-34 1.66L86.16 202c-1.35 12.78.09 19 6 23 6.19 4.4 18.36 5.91 35.88 8.1 26.91 3.41 37.23 2.12 46.15-5.4 6.95-6 15.28-17.05 22-29.91zM642.27 99.76a5.25 5.25 0 01-4.9 5.28c-5.46.41-10.66 1.75-12.94 5.59a2.69 2.69 0 000 3.54 39 39 0 016 21.11c0 30.53-26.74 45.23-52 45.23a89 89 0 01-12-.91 7.53 7.53 0 00-6.11 1.79c-3.08 2.78-6 6.58-6 9.57 0 5.37 5.35 8.75 18.72 8.75 11 0 21.38-.94 31.07-.07 18.3 1.64 39.14 16.06 39.14 38.72 0 23.77-28.81 41.44-68.32 41.44-33.27 0-53.57-16.38-53.57-32.5 0-19.89 21.4-26.16 28.41-31.48a2.23 2.23 0 00-.53-3.88c-8.61-3.41-15.56-4.55-18.08-8.84-9.22-15.7 15.76-19.8 20.7-24.76a2.22 2.22 0 00-.63-3.61c-12.3-6-23.34-18.76-23.34-36.63 0-31.94 30.3-46.92 53.18-46.92h.3a56.93 56.93 0 0118.16 3 7.54 7.54 0 002.41.41h35a5.24 5.24 0 015.24 5.18zm-97.33 138.5c0 15.55 15.35 28.93 37.33 28.93 27.22 0 38.9-11.23 40.9-21.75 2.41-12.71-4.27-19.67-12.82-25-6.71-4.15-11.54-6-24.59-6.7-27.67-1.45-40.82 16.6-40.82 24.52zm8.61-104.67c0 22 11.59 37.88 27.93 37.88 13.07-.28 24.66-11.31 24.66-33.64 0-22-11-37.88-28.22-37.88-12.48.05-24.36 11.87-24.36 33.64z" fill="#fff"/><path d="M660.83 58.43c2 8.74 11.55 13.65 21.34 11s16.11-12 14.12-20.69-11.55-13.65-21.34-11-16.11 11.95-14.12 20.69z" fill="#3d91cf"/></svg>