<svg xmlns="http://www.w3.org/2000/svg" viewBox="0 0 144 30.2"><g fill="#f36c3f"><path d="M8.2.2c.4-.3 1.1.1 1 .6 0 .5-.6.8-1 .5-.5-.2-.5-.9 0-1.1zM10.8.9c.3-.1.6-.1.8.2s.1.6.1.9v1.5c-.1.4-.6.7-1 .5-.2-.1-.4-.4-.4-.6V1.5c.2-.2.3-.5.5-.6zM8.3 2.6c.4-.2.9.1.9.6v2c0 .4-.5.7-.9.5-.3-.1-.4-.4-.4-.6V3.3c-.1-.3.1-.6.4-.7zM13.4 5.1c.5-.3 1.1.2 1 .7s-.7.7-1.1.4c-.3-.3-.3-.9.1-1.1z"/><path d="M10.5 5.9c0-.4.4-.7.7-.6.3 0 .6.3.6.6v3c0 .3.2.6.6.7.3 0 .5-.2.7-.4.1-.5 0-1 0-1.4 0-.3.3-.6.7-.5.4 0 .7.3.7.7v2.8c0 .5.6.8 1 .5.3-.2.2-.7.5-1s1-.1 1.1.3c.1.6 0 1.2 0 1.8 0 .2.2.4.4.5.3.1.7 0 .8-.3s0-.7.2-.9c.2-.4.8-.4 1.1 0 .2.2.1.5.1.7v12.1c-3.1 1.8-9.4 5.5-9.8 5.7 0 0-6.7-3.9-9.9-5.7V11.9c.2-.5.9-.6 1.2-.1.2.5 0 1.1.2 1.6.1.3.5.5.8.3.3-.1.4-.4.4-.7V9.8c0-.5.8-.7 1.1-.4.3.3.2.7.2 1s-.1.7.2 1c.2.3.6.3.9.1.2-.2.3-.5.3-.7v-4c0-.4.3-.7.6-.7s.7.2.7.6v2.8c0 .2.2.4.4.5.3.2.8-.1.9-.5.1-.7 0-1.5 0-2.3.1-.4.9-.6 1.2-.1s-.1 1.2.3 1.7c.3.4 1.1.2 1.1-.4 0-.7-.1-1.6 0-2.5m-5.3 9v7.4h3.1v-2.4h3.1v2.4h3.1V15h-3.1v2.5H8.3V15c-1.1-.1-2.1-.1-3.1-.1z"/></g><g fill="#fff"><path d="M127.6 11.1c.8-.1 1.6-.1 2.4 0 1.1.1 2.2.2 3.2.7.5.3 1 .7 1.2 1.2.4.8.6 1.7.7 2.5.1 1.2.1 2.5 0 3.7-.1 1.1-.3 2.2-.7 3.2-.3.7-.9 1.2-1.6 1.4-1.2.4-2.5.5-3.7.5-1 0-2 0-3-.3-.7-.2-1.4-.4-2-1-.7-.7-1-1.6-1.1-2.5-.1-1.1 0-2.1-.1-3.2 0-1 0-1.9.2-2.9.1-.8.5-1.7 1.1-2.2.4-.4 1-.6 1.6-.8l1.8-.3m1.6 3c-.6 0-1.3 0-1.8.3-.2.1-.4.3-.5.5-.2.7-.3 1.4-.3 2.1 0 1.2-.1 2.4.2 3.5.1.4.5.7.9.8.7.2 1.5.1 2.3 0 .5-.1 1.1-.3 1.3-.8.4-1 .3-2.1.3-3.2 0-.9 0-1.8-.4-2.6-.5-.6-1.4-.6-2-.6zM30.7 11.1h3.5v5h4.5v-4.9h3.6v13h-3.6v-5.1h-4.5v5.2h-3.6c.1-4.4.1-8.8.1-13.2zM43.6 24.2c1.3-4.4 2.6-8.7 4-13h5.3c.4 1 .7 2.1 1 3.2 1 3.3 2 6.7 3 9.9h-3.6c-.2-.8-.5-1.5-.7-2.3h-4.7c-.2.8-.4 1.5-.6 2.3-1.2-.1-2.4-.1-3.7-.1m5.1-4.7h3.2c-.5-1.9-1.1-3.8-1.6-5.6-.5 1.8-1 3.7-1.6 5.6zM58.2 11.1h7.5c1 0 2 .2 2.8.8.7.6.8 1.5.8 2.3s0 1.6-.4 2.4c-.3.6-1.1.7-1.7.9.7.1 1.4.3 1.8.9.5.9.5 1.9.4 2.9-.1.9-.3 1.9-1.2 2.3-1 .6-2.3.5-3.4.5h-6.6v-13m3.6 3v2.3h2.1c.5 0 1.1 0 1.5-.2.3-.1.4-.5.4-.8 0-.4 0-.8-.2-1.1-.2-.2-.6-.3-.9-.3-1 .1-1.9.1-2.9.1m0 4.8v2.5h2.6c.4 0 .8 0 1.2-.2.3-.2.4-.7.4-1.1 0-.3 0-.8-.3-1-.4-.2-.8-.2-1.2-.2h-2.7zM69.9 24.2c1.3-4.4 2.6-8.7 3.9-13.1h5.4c1.3 4.4 2.7 8.7 4 13h-3.6c-.2-.7-.4-1.5-.7-2.3h-4.7c-.2.7-.4 1.5-.6 2.2-1.2.2-2.5.2-3.7.2m5.1-4.7h3.2c-.5-1.9-1.1-3.8-1.6-5.6-.6 1.8-1.1 3.7-1.6 5.6zM84.1 11.1H90c1.2 3.3 2.4 6.5 3.6 9.7 0 .1.1.2.2.3 0-3.3-.1-6.7-.1-9.9h3.5v13.1h-6c-1.2-3.4-2.5-6.7-3.7-10h-.2c.1 3.3.1 6.7.2 9.9H84c.1-4.3.1-8.7.1-13.1zM98.9 24.2V11.1h9.5V14h-6v2.3h5.6v2.4c-1.9.1-3.7 0-5.6 0v2.5h6.1v2.9c-3.1.1-6.3.1-9.6.1zM110.2 11.1h7.4c.9.1 1.9.2 2.7.7.6.4.9 1.2 1.1 1.9.2 1.1.2 2.2 0 3.3-.1.5-.2 1.1-.6 1.4-.5.4-1.2.5-1.8.8.7.1 1.4.2 1.9.8.6.7.6 1.6.6 2.4v1.8h-3.6c0-.9.1-1.8-.2-2.7-.1-.5-.6-.7-1.1-.7h-2.8v3.5h-3.5c-.1-4.4-.1-8.8-.1-13.2m3.6 3.1v3.6h3c.4 0 .8-.1 1-.4.2-.6.2-1.3.2-2 0-.3-.1-.5-.2-.7-.3-.3-.7-.3-1-.4-1.1-.1-2.1-.1-3-.1zM137.2 11.3h2.4v.7h-.8v2.4h-.8V12h-.8v-.7zM140.1 11.3h1.3c.2.6.4 1.3.6 1.9.3-.6.4-1.3.6-1.9h1.4v3.1h-.8c0-.8.1-1.5 0-2.3-.3.8-.5 1.5-.8 2.3h-.7c-.3-.8-.5-1.6-.8-2.3 0 .8.1 1.5.1 2.3h-.8c-.1-1-.1-2-.1-3.1z"/></g></svg>