<svg xmlns="http://www.w3.org/2000/svg" viewBox="0 0 62.1 30.1"><g fill="#fff"><path d="M30.1 30.1c-1.2 0-2.4 0-3.5-.1l-3-.3c-.8-.1-1.5-.2-2.3-.3-.5-.1-1.1-.2-1.6-.3-.8-.2-1.6-.3-2.4-.5-.4-.1-.7-.2-1.1-.3l-2.1-.6c-1-.3-2.1-.7-3.1-1.1-.8-.3-1.7-.8-2.5-1.2-1.1-.5-2.1-1.2-3.1-1.9-.5-.3-.9-.7-1.4-1.1-.3-.3-.7-.5-.9-.9-.5-.6-.9-1.1-1.4-1.7-.7-.9-1.1-2-1.4-3.1-.2-.8-.3-1.7-.2-2.5.1-.4.2-1.2.4-1.2v1.4c0 .9.3 1.8.7 2.7.3.7.7 1.3 1.2 1.9.4.6 1 1.1 1.5 1.6s1 .9 1.6 1.3c.7.5 1.4 1 2.1 1.4.9.5 1.9 1 2.9 1.5.6.3 1.2.5 1.8.7.5.2.9.4 1.4.5l1.8.6c.9.2 1.8.5 2.7.7.7.2 1.5.3 2.2.4.7.1 1.3.3 2 .4.5.1 1.1.2 1.6.2l3.3.3c2.2.2 4.5.2 6.7.1 1.3 0 2.7-.2 4-.3.8-.1 1.6-.1 2.4-.2.7-.1 1.4-.2 2.2-.4.8-.1 1.6-.3 2.4-.5.5-.1.9-.2 1.4-.3.8-.2 1.6-.4 2.4-.7s1.6-.6 2.5-.9l1.5-.6c.6-.3 1.2-.6 1.7-.8s.9-.5 1.4-.7c.7-.4 1.4-.9 2.1-1.3 1-.7 2-1.5 2.8-2.5.4-.5.9-1 1.1-1.6 0-.1.1-.3.2-.2.1 0 0 .1-.1.2-.5.7-.8 1.6-1.4 2.3-.6.8-1.3 1.5-2.1 2.1-.7.6-1.5 1.2-2.3 1.7-.9.6-1.8 1.1-2.7 1.6l-2.7 1.2c-.7.3-1.4.5-2.1.7-.6.2-1.2.4-1.8.5-.6.2-1.3.3-2 .5-.5.1-1 .2-1.6.4-.4.1-.8.2-1.2.2-.9.1-1.7.3-2.6.4-.7.1-5.1.5-6.9.5-.1 0-2.4.1-2.5.1zM.4 11.2c.4-.6.9-1.3 1.4-1.8.5-.6 1.2-1.1 1.9-1.6.6-.5 1.2-.9 1.8-1.3 1.3-.9 2.7-1.6 4.1-2.3.8-.4 1.6-.7 2.5-1 .8-.3 1.6-.5 2.4-.8.6-.2 1.3-.4 1.9-.6.7-.2 1.4-.3 2.1-.5L20 1c.8-.1 1.6-.3 2.4-.4 1.4-.1 2.8-.3 4.2-.4 1-.1 1.9-.1 2.9-.2 1.4-.1 2.7 0 4.1.1 1.1 0 2.3.1 3.4.2 1.4.1 2.8.4 4.2.6 1 .2 2.1.4 3.1.6s2 .5 3 .8 2 .6 2.9 1c.8.3 1.6.7 2.4 1.1.6.3 1.1.6 1.7.9.8.4 1.5.9 2.2 1.4 1 .7 2 1.5 2.8 2.4s1.5 1.9 2 3c.5 1.2.6 2.3.6 3.6 0 .4.2 1.4-.3 1.3-.3-.1 0-.7 0-1-.1-1.3-.5-2.5-1.1-3.6-.5-.9-1.1-1.7-1.9-2.4-.7-.7-1.4-1.3-2.2-1.9-1-.7-2.1-1.4-3.2-1.9s-2.1-1-3.2-1.5c-.7-.3-1.5-.5-2.2-.8-.6-.2-1.2-.4-1.9-.6-1-.3-2-.5-3-.7-1.1-.2-2.2-.4-3.2-.6l-4.5-.6c-1-.1-2-.1-3-.1-.7 0-1.4-.1-2.2-.1-1.7.1-3.4.1-5.1.2-1.1.1-2.1.2-3.2.3l-1.8.3c-.6.1-1.3.2-1.9.3-1.2.3-2.5.6-3.7.9-1 .3-1.9.5-2.8.9-.9.3-1.9.7-2.8 1.1L6.3 6.4c-.7.4-1.5.9-2.2 1.4-1.1.7-1.9 1.7-2.8 2.6-.5.5-1.1 1.9-1.2 1.8-.1-.1.1-.6.3-1z"/><path d="M16.2 13.7c.1-.2.1-.4.2-.6.1-.6.1-.6.7-.6h1.3c.3 0 .3 0 .3.3-.3 1.3-.6 2.5-1 3.8s-.6 2.5-1 3.8c-.2.8-.5 1.5-1.1 2s-1.2.8-2 .8c-.6 0-1.1 0-1.6-.3-.7-.4-1-1.7-.5-2.3.2-.3.5-.3.8-.3.3.1.6.3.6.6.1.4.1.8-.2 1.2-.1.2-.3.2-.5.2-.1 0-.2.1-.2.1 0 .1 0 .2.1.3.5.4 1.1.3 1.5-.2.4-.6.6-1.2.8-1.9l.6-2.1v-.4c-.1.1-.2.1-.3.2-.2.2-.4.5-.6.7s-.5.4-.8.5c-.6.2-1.3-.2-1.6-.7-.4-.8-.5-1.7-.4-2.5.1-.7.2-1.3.5-1.9.4-.8 1-1.6 1.9-2 .5-.2 1-.3 1.5-.1.4.2.5.5.6.8 0 .1.1.3.1.4.2.2.3.2.3.2zm-.2.4c-.1-.4-.1-.7-.3-1.1-.1-.3-.4-.4-.6-.1-.2.2-.3.5-.4.7-.3 1.1-.6 2.2-.8 3.2-.1.5-.3 1.1-.4 1.6 0 .2-.1.5.2.6.3.1.4-.1.6-.3.4-.5.7-1.1.9-1.7.5-.8.7-1.8.8-2.9zM6.6 8.9H12V9c-.1 0-.1.1-.2.1s-.3.1-.4.1c-.5 0-.7.3-.8.8-.2.9-.4 1.8-.7 2.8-.3 1.5-.7 2.9-1 4.4-.1.5-.2 1-.3 1.6-.1.5.1.7.7.7h.2c.1 0 .1.1.2.1l-.1.1H4.2v-.1c.1 0 .1-.1.2-.1h.5c.5 0 .7-.3.8-.7.2-.7.3-1.3.5-2 .2-1.1.5-2.1.7-3.1.3-1.1.5-2.2.7-3.3v-.3c0-.5-.1-.7-.7-.8h-.3c-.1-.3 0-.3 0-.4zM45 23.2v-.1c.6-.4.7-1 .9-1.6.3-1 .5-1.9.8-2.9.3-1.2.6-2.3.9-3.5.2-.6.4-1.3.5-1.9.1-.3 0-.3-.3-.3h-.6c-.1 0-.1-.1-.2-.1l.2-.2h.7c.2 0 .3-.1.4-.3.1-.4.3-.7.4-1 .3-.7.7-1.4 1.4-1.9.6-.5 1.6-.6 2.2-.1.5.5.6 1.4.2 1.9-.2.2-.4.3-.7.2-.3 0-.5-.2-.6-.5-.2-.6-.1-1.1.4-1.5.1-.1.1-.2 0-.3-.2 0-.4-.1-.6.1-.3.2-.4.5-.5.8-.2.7-.3 1.4-.5 2.1-.1.3 0 .4.3.4h.8c.1 0 .1.1.2.1-.1.1-.1.2-.2.2h-1c-.2 0-.3.1-.3.2-.2 1.2-.4 2.4-.7 3.5-.1.8-.3 1.6-.5 2.3-.3 1.2-.6 2.5-.9 3.7-.1.6-.2.6-.8.6H45c.1.2.1.2 0 .1zM28.3 19.8c-.9-.1-1.8-.5-2.3-1.4-.4-.7-.5-1.5-.5-2.3 0-.7.2-1.3.6-1.9.5-.8 1.2-1.4 2.3-1.7.8-.2 1.6-.1 2.3.3.6.3.9.8 1.2 1.4.4.8.4 1.6.2 2.4-.2.9-.7 1.7-1.4 2.3-.6.5-1.4.8-2.4.9zm1.9-6.4v-.1c0-.4-.2-.6-.4-.6-.3-.1-.6.1-.8.4-.1.3-.2.6-.3.8-.4 1.4-.7 2.9-1 4.3-.1.3-.1.5-.1.8s.2.5.4.5c.3.1.6 0 .7-.2l.3-.6c.3-1.3.6-2.5.9-3.8l.3-1.5zM45.9 15.7c0 .7-.2 1.5-.7 2.2-.5.8-1.2 1.4-2.1 1.6-1.1.3-2.1.1-2.9-.6-.4-.4-.7-1-.8-1.6-.2-1.1-.1-2.1.4-3.1.8-1.3 1.9-2.1 3.6-1.9 1.1.1 1.8.7 2.2 1.7.2.6.3 1.1.3 1.7zm-4.6 2.9c0 .5.2.8.5.9.3.1.6-.1.7-.5.1-.2.2-.5.3-.7.3-1.2.6-2.4.8-3.6.1-.5.2-.9.3-1.4 0-.2 0-.5-.3-.7s-.7 0-.9.2c-.1.2-.2.5-.3.8l-.9 3.9c-.1.5-.2.9-.2 1.1z"/><path d="M55.8 9.1c-.1.3-.1.6-.2.8-.2.8-.4 1.5-.6 2.3-.1.4 0 .4.3.4h.5c.1 0 .1.1.2.1-.1.1-.1.2-.2.2h-.6c-.3 0-.4.1-.4.3l-.9 3.6c-.1.5-.3 1.1-.4 1.6v.4c0 .3.3.4.5.2s.4-.5.6-.8c.2-.4.4-.9.5-1.3 0 0 0-.1.1-.1h.1c-.1.2-.1.5-.2.7-.2.4-.4.9-.6 1.3-.4.6-.9 1.1-1.7 1-.6-.1-1-.4-1.1-1-.2-.7 0-1.3.2-2 .3-1.2.6-2.4.9-3.5.1-.3 0-.4-.3-.4H52c-.1 0-.1-.1-.2-.1l.2-.2h.6c.2 0 .3-.1.4-.3.2-1 .5-2 .7-2.9 0-.2.1-.3.3-.3h1.8zM37.9 13.1c0-.1-.1-.2-.1-.2-.5-.3-1-.4-1.6-.3-.8.1-1 1.2-.6 1.7.3.3.6.6 1 .8.5.3.9.6 1.2 1 .5.5.5 1.4.3 2-.3.6-.7 1.1-1.3 1.3-.5.2-1.1.3-1.7.3-.8-.1-1.5-.4-2-1.1-.3-.5-.4-1-.1-1.5.1-.3.5-.4.9-.3.4.1.6.3.7.7s.1.9-.4 1.2c-.1.1-.3.1-.4.1s-.2.1-.2.1c0 .1 0 .2.1.2.6.4 1.3.6 2.1.4.7-.2.9-1.3.4-1.8-.4-.4-.8-.6-1.3-.9-.5-.3-.9-.6-1.2-1.1-.4-.6-.3-1.2 0-1.8.4-.8 1-1.2 1.9-1.4.7-.1 1.4-.1 2.1.1.6.2 1.1.7 1.2 1.4 0 .2-.1.5-.2.8s-.5.4-.9.3c-.4-.1-.6-.4-.6-.7-.1-.3 0-.7.3-.9-.1-.2.1-.3.4-.4zM19 15.3v-.2c.2-.7.5-1.4.9-2 .3-.4.7-.8 1.3-.7.7 0 1.1.5 1.1 1.3 0 .5 0 .9.1 1.4.1-.1.2-.2.2-.4.2-.5.4-1.1.7-1.6.2-.4.5-.7.9-.7s.8.2.9.6c.3.7.2 1.4-.2 2-.3.5-1.1.4-1.4-.2-.2-.4-.2-.8-.1-1.3 0-.1.1-.3.1-.4h-.1c-.1.2-.2.3-.3.5-.5 1.1-.9 2.1-1.2 3.3-.2.8-.4 1.7-.6 2.5 0 .1-.1.2-.2.2h-1.9c-.2 0-.2-.1-.1-.2l1.2-5.1c.1-.3.1-.5.2-.8 0-.1 0-.3-.1-.4-.1-.1-.3 0-.4.2-.2.4-.5.9-.7 1.4-.1.2-.1.4-.3.6.2 0 .1 0 0 0 .1 0 .1 0 0 0z"/></g></svg>