<svg xmlns="http://www.w3.org/2000/svg" viewBox="0 0 1085.4 203.9"><path d="M1055 185.3c-1 .5-2.1 1.3-2.8 2.2-.6.7-1.3 2.1-1.3 4.2 0 3.7 2.3 6.2 5.7 6.2 1.4 0 2.3-.4 3.2-1.4 1.1-1.1 1.7-2.5 2.3-3.9l1.6-3.6c.9-2.2 1.9-4.2 3.5-5.7 1.9-1.9 4.1-2.7 6.7-2.7 6.8 0 11.4 5.1 11.4 11.7 0 2.4-.5 5.5-3 8-1.8 1.8-4.3 2.9-6.6 3.4l-1.1-4c1.9-.3 3.6-1.2 4.7-2.2 1.6-1.6 2.1-3.4 2.1-5.3 0-5.1-3.6-7.4-7.3-7.4-1.7 0-3.1.5-4.3 1.8-1 1.1-1.7 2.5-2.6 4.4l-1.6 3.3c-.7 1.4-1.4 3.3-3.1 4.9-1.6 1.6-3.3 2.6-6 2.6-5.7 0-9.5-4.4-9.5-10.4 0-2.3.4-4.1 1.7-5.9 1-1.5 2.5-2.8 4.1-3.6l2.2 3.4zm-3.4-25.1h33.1v4.1h-33.1v9h-3.9v-22.1h3.9v9zm18.8-24.7c3.1 0 6.5 0 9-2.9 1.3-1.5 2.1-4.1 2.1-6.1s-.8-4.6-2.1-6.1c-2.5-2.9-5.9-2.9-9-2.9h-22.7v-4.1h23.8c3.1 0 6.1.3 8.9 2.3 3.1 2.2 5 6.1 5 10.8 0 4.7-1.9 8.6-5 10.8-2.8 2-5.8 2.3-8.9 2.3h-23.8v-4.1h22.7zm-22.7-37.9v-7.5c0-3.7.4-9 4.3-13.7 2.8-3.4 7.5-6.3 14.2-6.3 7.8 0 11.9 3.8 14.2 6.5 2.9 3.4 4.3 6.9 4.3 13.5v7.5h-37zm33.1-4.1v-3.6c0-2.9-.3-7-3.3-10.6-2.3-2.8-6-5-11.3-5-8.9 0-14.7 6.2-14.7 15.6v3.6h29.3zm-33.1-41.2h37v4.1h-37v-4.1zm18.6-13.6c-11 0-19.1-8.6-19.1-19.3S1055.3.1 1066.3.1c11 0 19.1 8.5 19.1 19.3s-8.2 19.3-19.1 19.3zm0-4.2c8.5 0 15.3-6.7 15.3-15s-6.8-15-15.3-15-15.3 6.7-15.3 15 6.8 15 15.3 15z" fill="#fff"/><path d="M101.9 6.1v191.8H57.6V6.1h44.3zm-57.6-.3v192.1H0V5.8h44.3zm418-.1v115.9s-73.4-82.5-83.5-91.8c-19.7-18.2-44.4-27.9-74.3-27.9-38.2 0-62.1 15.2-75.1 28.2-17.2 17.2-29.6 45.1-29.6 72.7 0 28.2 11.5 54 29.9 71.3 14.4 13.8 38.8 28.2 74.7 28.2 32.2 0 56.3-10.9 74.1-28.2 14.1-13.7 22.9-30.3 27-47.5l62.3 71.3h37.6V5.7h-43.1zM346.4 145c-9.2 9.2-23 16.4-42.5 16.4-14.9 0-28.7-4-41.1-15.8-11.8-11.5-17.5-25.6-17.5-43.1 0-21.3 8.6-35.3 17-43.4 10.3-10.3 25.3-16.4 42-16.4 17.5 0 32.8 7.2 42.2 16.4 8.6 8.6 16.7 23.3 16.7 43.1-.1 22.1-9.3 35.6-16.8 42.8z" fill="#f5f5f5"/><linearGradient id="a" gradientUnits="userSpaceOnUse" x1="79.75" y1="403.192" x2="79.75" y2="451.192" gradientTransform="matrix(1 0 0 -1 0 475.824)"><stop offset="0" stop-opacity="0"/><stop offset="1" stop-opacity=".5"/></linearGradient><path d="M57.6 39.8h44.2v34.4H57.6V39.8z" fill="url(#a)"/><path d="M155.2 119.3c10.6-2.6 20.1-8.3 26.7-14.6 12.4-12.1 14.9-27 14.9-39 0-21.3-8.6-35.3-16.7-43.1-9.2-8.6-24.4-17-48.9-17h-74v34h61.5c5.8 0 17.2.1 24.4 5.6 3.7 2.9 8.9 9.4 8.9 20.3 0 9.5-4 15.1-7.2 18.2-7.5 7.5-18.4 7.9-26.4 7.9h-10.2v31l51.9 75h54l-58.9-78.3z" fill="#f5f5f5"/><linearGradient id="b" gradientUnits="userSpaceOnUse" x1="161.191" y1="314.798" x2="116.724" y2="378.114" gradientTransform="matrix(1 0 0 -1 0 475.824)"><stop offset="0" stop-opacity="0"/><stop offset="1" stop-opacity=".5"/></linearGradient><path d="M109.5 123.8s20.2 3.7 46.4-3.7l58.7 78.6h-53.9c-.1-.1-51.2-74.9-51.2-74.9z" fill="url(#b)"/><path d="M926.2 92.4v36.2h47.6c-3.8 14.3-12.5 21.7-13.9 22.9-4.4 3.8-14.5 10.4-33.7 10.4-14.8 0-27.6-3.8-39.2-15.1-14.5-14.1-19.6-31.7-21.9-45.5 2.3-13.8 7.4-31.3 21.9-45.5 11.6-11.3 24.4-15.1 39.2-15.1 19.2 0 29.3 6.7 33.7 10.5 1.3 1 8.5 7.3 12.6 18.9l37.7-18.3c-4.4-9.3-10-18.1-17-25.4C971.6 4.1 947 0 924.1 0c-23.2 0-48.2 3.8-70.9 27-3 3.1-6.4 7-9.9 11.9l-.1-.1v.2l-.2.3c-2.8-4.2-5.8-7.9-9.1-11.1C814.5 9.3 789.3 0 759 0c-38.6 0-62.7 15.4-75.8 28.5-3.2 3.2-6.2 7.3-8.9 12.2l-.4-.7c-2.5-3.1-5.2-5.9-8.1-8.7C642 8.3 615 4.7 589.4 4.7h-61.6v193.5h63.1c16.3 0 49.7-2 76.4-29.1 2.1-2.1 4.1-4.3 6-6.6 3.1 4.1 6.4 8 9.9 11.6 13.1 13.1 37.2 28.5 75.8 28.5 30.2 0 55.5-9.3 75-28.2 3.3-3.2 6.3-6.9 9.1-11.1.1.1.1.2.2.3v.2l.1-.1c3.4 4.8 6.8 8.8 9.9 11.9 22.7 23.2 47.6 27 70.9 27 23 0 47.3-4.1 68.8-26.4 21.5-22.4 29.6-58.1 29.6-81.6v-2.1l-96.4-.1zm-278.6 21.9c-1.8 5.1-7.1 23.1-18.7 32.8-14.5 12.2-34.9 12.9-44.2 12.9h-12.2V41.9h12.2c13.7 0 32.5 2.2 47.1 16.7 7.6 7.6 14.4 21.4 17.4 41.7l.9 6c-.9 3.3-1.8 6-2.5 8zm163.1 17.9c-2.7 5-5.9 9.2-9.3 12.5-9.6 9.3-25 16.6-42.7 16.6-16.9 0-32-6.1-42.4-16.6-2.1-2-4.1-4.4-6.1-7.1h.1s-9-12.9-14.8-36.3c5.8-23.4 14.8-36.3 14.8-36.3h-.1c2-2.8 4.1-5.1 6.1-7.1 10.5-10.5 25.6-16.6 42.4-16.6 17.7 0 33.1 7.3 42.7 16.6 3.3 3.3 6.5 7.5 9.3 12.5 2.5 4.2 7.3 12.8 10.1 24.7.5 2.1 1 4.2 1.4 6.3-.4 2.1-.9 4.2-1.4 6.3-2.8 11.7-7.6 20.3-10.1 24.5z" fill="#f5f5f5"/><linearGradient id="c" gradientUnits="userSpaceOnUse" x1="353.91" y1="346.447" x2="406.458" y2="398.995" gradientTransform="matrix(1 0 0 -1 0 475.824)"><stop offset="0" stop-opacity="0"/><stop offset="1" stop-opacity=".5"/></linearGradient><path d="M405.6 127.2l-55.1-63.6s26.4 35 2.3 73.7l21.4 40.5c0-.1 24.2-18.2 31.4-50.6z" fill="url(#c)"/><linearGradient id="d" gradientUnits="userSpaceOnUse" x1="926.734" y1="432.436" x2="806.645" y2="329.502" gradientTransform="matrix(1 0 0 -1 0 475.824)"><stop offset="0" stop-opacity="0"/><stop offset="1" stop-opacity=".5"/></linearGradient><path d="M864 94.5c.3 2.1.6 4.4 1 6.7 2.3-13.8 7.4-31.3 21.9-45.5 11.6-11.3 24.4-15.1 39.2-15.1 19.2 0 29.3 6.7 33.7 10.5 1.3 1 8.5 7.3 12.6 18.9l37.7-18.3c-4.4-9.3-10-18.1-17-25.4C971.6 4.1 947 0 924.1 0c-23.2 0-48.2 3.8-70.9 27-3 3.1-6.4 7-9.9 11.9l-.1-.1v.2l-.2.3c11.7 17.4 19.1 41.6 21 55.2z" fill="url(#d)"/><linearGradient id="e" gradientUnits="userSpaceOnUse" x1="753.523" y1="344.992" x2="826.436" y2="417.905" gradientTransform="matrix(1 0 0 -1 0 475.824)"><stop offset="0" stop-opacity="0"/><stop offset="1" stop-opacity=".5"/></linearGradient><path d="M826.3 121.2c-1.4-6.6-2.6-13.3-4-20-.4 2.1-.9 4.2-1.4 6.3-2.8 11.9-7.6 20.5-10.1 24.7-2.7 5-5.9 9.2-9.3 12.5-9.6 9.3-25 16.6-42.7 16.6-16.9 0-32-6.1-42.4-16.6-2.1-2-4.1-4.4-6.1-7.1h.1s-9-12.9-14.8-36.3c-1.9-7.7-2.7-20.6-5.5-30.8l-37.8 44c6.7 22.8 17.7 46.3 31 59.6 13.1 13.1 37.2 28.5 75.8 28.5 30.2 0 55.5-9.3 75-28.2 3.3-3.2 6.3-6.9 9.1-11.1-7.1-10.1-13.1-24.2-16.9-42.1z" fill="url(#e)"/><linearGradient id="f" gradientUnits="userSpaceOnUse" x1="759.95" y1="374.572" x2="601.122" y2="374.572" gradientTransform="matrix(1 0 0 -1 0 475.824)"><stop offset="0" stop-opacity="0"/><stop offset="1" stop-opacity=".5"/></linearGradient><path d="M926.2 92.4v36.2h47.6c-3.8 14.3-12.5 21.7-13.9 22.9-4.4 3.8-14.5 10.4-33.7 10.4-14.8 0-27.6-3.8-39.2-15.1-17-16.6-21.1-37.8-22.9-52.2-2.4-16.9-13.1-50-30-66.4C814.5 9.3 789.3 0 759 0c-38.6 0-62.7 15.4-75.8 28.5-3.3 3.3-6.1 7.6-9 12 0 0 5.4 8.1 10.1 20.5 5.5 14.4 10.1 35.9 11.2 40.3 5.8-23.4 14.8-36.3 14.8-36.3h-.1c2-2.8 4.1-5.1 6.1-7.1 10.5-10.5 25.6-16.6 42.4-16.6 17.7 0 33.1 7.3 42.7 16.6 3.3 3.3 6.5 7.5 9.3 12.5 2.5 4.2 7.3 12.8 10.1 24.7 2.1 8.8 3.5 17.5 5.4 26.2 3 18.3 10 32.3 17 42.3v.2l.1-.1c3.4 4.8 6.8 8.8 9.9 11.9 22.7 23.2 47.6 27 70.9 27 23 0 47.3-4.1 68.8-26.4 21.5-22.4 29.6-58.1 29.6-81.6v-2.1l-96.3-.1z" fill="url(#f)"/><g><linearGradient id="g" gradientUnits="userSpaceOnUse" x1="612.182" y1="301.643" x2="688.111" y2="360.417" gradientTransform="matrix(1 0 0 -1 0 475.824)"><stop offset="0" stop-opacity="0"/><stop offset="1" stop-opacity=".5"/></linearGradient><path d="M647.6 114.3c-1.8 5.1-7.1 23.1-18.7 32.8-14.5 12.2-34.9 12.9-44.2 12.9h-1.1c-4.1 12.6-6.3 25.1-6.8 38.1h14.1c16.3 0 49.7-2 76.4-29.1 2.1-2.1 4.1-4.3 6-6.6-11.6-15.7-19.5-35.3-23.1-56.3-1 3.5-1.9 6.2-2.6 8.2z" fill="url(#g)"/><path d="M926.2 92.4v36.2h47.6c-3.8 14.3-12.5 21.7-13.9 22.9-4.4 3.8-14.5 10.4-33.7 10.4-14.8 0-27.6-3.8-39.2-15.1-14.5-14.1-19.6-31.7-21.9-45.5-.4 2.4-.7 4.6-1 6.7-1.9 13.7-9.3 37.8-20.9 55.2.1.1.1.2.2.3v.2l.1-.1c3.4 4.8 6.8 8.8 9.9 11.9 22.7 23.2 47.6 27 70.9 27 23 0 47.3-4.1 68.8-26.4s29.6-58.1 29.6-81.6v-2.1h-96.5z" fill="#f5f5f5"/></g></svg>