<svg xmlns="http://www.w3.org/2000/svg" viewBox="0 0 141 30.1"><g fill="#fff"><path d="M20.6.1h1.2c1.6.1 3.2.7 4.3 1.9 1.6 1.6 2.1 3.9 2.2 6h-2.9c-.1-1.3-.4-2.6-1.2-3.7-.6-.8-1.5-1.4-2.5-1.5-1.3-.2-2.7.1-3.7 1-.9.9-1.3 2.2-1.1 3.5.1 1.2.8 2.3 1.7 3.2 1.4 1.4 3 2.3 4.6 3.4s3.2 2.4 4.2 4.2c1.1 1.9 1.4 4.3 1 6.5-.3 1.6-1 3.1-2.3 4-1.5 1.2-3.6 1.6-5.5 1.5-1.7-.1-3.5-.8-4.7-2-1.6-1.6-2.2-4-2.2-6.2h2.9c.1 1.5.4 3.1 1.5 4.3 1.2 1.3 3.1 1.5 4.7 1.1C24 27 25 26 25.4 24.8c.4-1.3.5-2.8 0-4.1-.6-1.5-1.8-2.6-3.1-3.6-2-1.6-4.3-2.9-6.1-4.8-1.1-1.2-2-2.8-2.1-4.5-.2-1.9.2-4 1.6-5.5C16.9.9 18.8.2 20.6.1zM40.7.1H42c1.4.1 2.8.7 3.9 1.7 1.7 1.5 2.5 3.8 3 6 .5 2.4.7 5 .7 7.4 0 2.6-.2 5.2-.8 7.7-.4 1.6-1 3.2-2 4.5-.9 1.2-2.2 2.2-3.7 2.5-1.8.4-3.8.2-5.4-.8-1.2-.8-2.1-1.9-2.8-3.2-.8-1.7-1.3-3.6-1.5-5.5-.3-2.2-.4-4.5-.3-6.7.1-2.4.3-4.8 1-7.2.5-1.6 1.2-3.2 2.3-4.5C37.5 1 39.1.3 40.7.1M40.2 3c-1.5.4-2.4 1.9-2.9 3.3-.9 2.8-1 5.7-1.1 8.6 0 2.6.1 5.2.7 7.7.3 1.4.8 2.9 1.9 3.9 1 1 2.6 1.2 3.9.8 1-.3 1.7-1.1 2.1-2 .7-1.3 1-2.8 1.2-4.2.3-2.5.4-5 .3-7.5-.1-2.2-.2-4.5-.9-6.7-.4-1.2-.9-2.4-1.9-3.2-.8-.9-2.2-1-3.3-.7zM54.4.6h12.5v2.7h-9.3v9.9h7v2.7h-7v13.9h-3.2V.6zM70.8.6h15.1v2.7h-6v26.5h-3.2V3.3h-5.9V.6z"/></g><g fill="#fdaf17"><path d="M.7 2.5C1.6 1.1 3.2.2 4.9.2c1.4 0 2.8.5 3.7 1.5 1.8 1.8 1.8 5.2 0 7-.7.7-1.6 1.2-2.6 1.4-1.6.3-3.3-.2-4.5-1.2C.6 8.1.1 7 0 5.9V4.7c.1-.9.3-1.6.7-2.2m3.5.2c-.8.2-1.4.8-1.7 1.6-.2.8-.2 1.7.3 2.3.8 1.2 2.7 1.4 3.8.5.9-.7 1.1-2 .7-3-.4-1.2-1.9-1.8-3.1-1.4zM89.2.6h8c1.8 0 3.7.6 4.9 2s1.8 3.2 1.8 5c0 1.7-.4 3.5-1.5 4.8-.6.8-1.5 1.3-2.4 1.7-.2.1-.3.1-.5.3 1.6.4 3.1 1.4 4 2.9 1.1 1.9 1.2 4.1 1 6.2-.2 1.7-1 3.5-2.4 4.5-1.8 1.4-4 1.7-6.2 1.8h-6.5c-.2-9.8-.2-19.5-.2-29.2m3.2 2.6V13c2 0 4.1.2 5.9-.7 1.2-.5 2-1.7 2.2-2.9.3-1.4.3-2.9-.3-4.2-.5-1.1-1.6-1.7-2.7-1.8-1.7-.3-3.4-.1-5.1-.2m0 12.6v11.3h1.8c1.4 0 2.8.1 4.1-.4 1.1-.3 2-1.1 2.5-2.1.6-1.2.6-2.6.5-3.9-.1-1.2-.5-2.5-1.4-3.4-1-1-2.4-1.4-3.8-1.4-1.2-.2-2.5-.1-3.7-.1zM109.4.6h13.3v2.7h-10.2v9.9h7.5v2.7c-2.5.1-5 0-7.5 0v11.2h10.6v2.7h-13.8c.1-9.8.1-19.5.1-29.2zM125.9.6H141v2.7h-5.9v26.5h-3.2V3.3h-6V.6zM3.4 12.4c1 .3 2.1.3 3 0v17.4h-3V12.4z"/></g></svg>