<svg xmlns="http://www.w3.org/2000/svg" viewBox="0 0 640 262"><path d="M65.9 175.1c-2.3.1-3.7.3-5.2.3h-7.4c-.2-2.2-.4-4-.4-5.7 0-6.2.1-12.3-.1-18.5-.1-5.8-3.5-8.7-9.1-7.2-4.1 1.1-8 3.2-11.9 4.9-1.8.8-2 2.4-2 4.2 0 5.7 0 11.3-.1 17 0 1.6-.2 3.2-.3 5.1H17.8c-1.2-3.7-1.5-32.7-.5-39.1 1-.2 2.1-.5 3.2-.6 7.2-.3 7.2-.3 9.4 6.1 4.5-1.9 9-3.8 13.6-5.6 1.5-.6 3.2-.9 4.8-1.2 6.3-1.2 11.6.2 15.3 5.8.5.7 1 1.3 1.5 1.9 4.1-1.9 8-4.1 12.1-5.7 2.9-1.1 6.1-1.8 9.2-2.3 7.2-1 13.6 3.3 15.4 10.5.5 2.1.9 4.2 1 6.4.1 6.7 0 13.3 0 20 0 1.1-.3 2.2-.4 3.7h-12c-.2-1.4-.5-2.8-.5-4.2-.1-5.3-.1-10.7-.1-16 0-1.2.1-2.3-.1-3.5-.6-6.2-4.3-9-10.3-7.2-3.6 1.1-7.1 2.8-10.6 4.2-2.1.9-2.9 2.4-2.9 4.7.1 5.3 0 10.7 0 16v6zM421.1 168.8c-.5 7.4-2.9 9-11.3 8-5.3-.6-5.6-1.4-8.5-8.9-4.4 3.7-9.1 6.6-14.6 8.1-5.1 1.4-10.1 1.9-15.2.1-4-1.5-7.6-3.5-8.7-8.1-1.6-6.9 1.3-12.2 8.2-14.3 4.2-1.3 8.8-1.9 13.2-2.2 5.3-.4 10.6-.1 15.7-.1 1.2-5.5-.1-7.9-4.8-7.9-6.6 0-13.2.8-19.9 1.4-1.6.1-3.2.4-5.2.7v-7.2c.6-.5 1-.9 1.4-1 10.8-2.5 21.6-4.1 32.6-2 6.8 1.3 9.7 4.6 9.8 11.7.1 5.2 0 10.3 0 15.5 0 5.6 0 5.6 5.9 5.9.5-.1.8.1 1.4.3zm-20.3-10.4c-6.7 0-12.3-.2-17.9.1-2.1.1-4.2.9-6.1 2-2.8 1.6-2.7 5.6.3 6.7 2.4.9 5.3 1.3 7.7.8 6-1.2 11.1-4.2 16-9.6zM307.3 157.9h-41.9c1.1 4.7 4 7.1 7.8 8.7 6.4 2.6 13 2.1 19.7 1.2 3.1-.4 6.2-1.2 9.3-1.8 1.3 6.1-.3 8.3-5.8 9.5-10.5 2.3-20.8 2.6-30.9-1.4-12.8-5.1-15.6-17.9-10.7-27.4 2.1-4.1 5.6-7.2 9.8-8.9 11.2-4.5 22.4-4.8 33.2 1 7 3.7 10.7 11.2 9.5 19.1zm-12.9-7c-2-6.5-7.4-9.1-17.1-8.5-6.2.4-10.8 3.7-11.5 8.5h28.6zM115.7 156.8c0-9.9 4-15.5 11.4-18.8 10.6-4.6 21.4-4.5 32.2-1.3 7.7 2.3 12.8 7.5 13.4 15.7.6 8.4-3 15.2-10.4 19.7-6.3 3.8-13.2 5.1-20.6 4.5-5.2-.4-10.3-.8-15-3.3-7.2-3.9-11.4-9.6-11-16.5zm28 11.5c1.7 0 3.3.2 5 0 5.6-.8 9.5-4.5 10.8-10.3 1.1-5-1.1-11.1-5.3-13.6-6.6-3.8-17.3-3.7-23 2.8-2.7 3.1-3.7 6.6-2.6 10.6 2 7.7 6.1 10.5 15.1 10.5zM586.1 135.4c0 5.6-.1 10.3 0 15.1.1 3.3.1 6.7.6 9.9.9 5.1 3.2 6.7 8.2 7 5.5.3 10.5-1.4 15.3-4 2.6-1.4 3.8-3.2 3.7-6.4-.3-5.3-.1-10.7-.1-16v-5.6c3.8 0 7-.1 10.3 0 1.8 0 2.6 1.2 2.7 3 .1 1 .1 2 .1 3 0 9.7 0 19.3-.1 29 0 4.5-.4 4.9-4.8 5h-6.1c-.5-1-1-1.9-1.3-2.8-.4-.9-.7-1.8-1.2-3.1-1.3.7-2.5 1.2-3.6 1.9-6.8 3.9-14.2 5.5-22.1 5.1-8.4-.5-13.6-5.6-13.9-13.9-.3-7.3-.6-14.6-.7-22-.1-4.8.3-5.1 5.1-5.2 2.2-.1 4.5 0 7.9 0zM186 175.1v-34.3c0-5.1.2-5.3 5.4-5.3h6c.8 2.4 1.4 4.2 2.1 6.4 1.2-.6 2.4-1.2 3.5-1.9 6.3-3.7 13.2-5.4 20.4-5.6 8.2-.3 16.1 5.6 15.7 15.5-.3 7-.1 14-.1 21 0 1.3-.2 2.6-.4 4.3h-11.3c-.2-1.3-.5-2.5-.5-3.8-.1-5.3-.4-10.7 0-16 .6-8.6-6.5-13.6-13.4-11.1-3.4 1.2-6.9 2.3-10.3 3.7-3.1 1.2-4.4 3.5-4.2 7 .3 5.3.1 10.6 0 16 0 1.3-.3 2.6-.4 4.2-4-.1-7.7-.1-12.5-.1zM325.5 143.7c-3.3-.2-5.9-.3-9.2-.5-.1-2.3-.3-4.5-.5-7.3 3.3-.3 6.2-.6 9.3-.8.3-2 .6-3.9 1-6.2 3.9-1.2 7.8-2.5 12.2-3.9v10.2h12c.2 2.8.4 5 .6 7.8-4.1.3-7.8.5-12.2.8v7.1c0 4.3-.1 8.7 0 13 .1 3.6.9 4.3 4.5 4.4 1.6.1 3.3 0 5 0 .9 5.7-.2 7.5-5.7 8.3-3 .4-6.3.4-9.3-.3-5.4-1.3-7.3-4.2-7.5-9.8-.1-5.8-.1-11.7-.1-17.5.1-1.6 0-3.2-.1-5.3zM561.8 146.5c-4-.4-7.4-.9-10.9-1.1-5.2-.2-9.7 1.7-14.1 4.3-2.1 1.3-3 2.9-2.9 5.3.1 4.7 0 9.3.1 14v5.6c-4.2 1.5-8.2.7-12 .6-1.2-3.7-1.6-32.1-.6-38.9 7.9-2.6 10.3-1.1 12 7.2.6-.3 1.2-.5 1.6-.9 7-7.2 15.6-8.1 24.9-6.4 2.1.4 2.7 1.7 2.6 3.6-.2 2.1-.5 4.3-.7 6.7z" fill="#fff"/><path d="M482.2 93.1c-.9.1-1.8.1-2.7.2h9.4v-.2c-2.1-.1-4.3-.2-6.7 0zM488.9 166.8v-.4h-4.4c1.5.2 3 .3 4.4.4zM480.4 202.8h8.5-8.7.2z" fill="none"/><path d="M459.5 247.3H489v-4.1h-29.5v4.1z" fill="#dd8624"/><path d="M459.5 81.2H489V69h-29.5v12.2z" fill="#fcd715"/><path d="M459.5 93.3h20c.9-.1 1.8-.1 2.7-.2 2.4-.2 4.6-.2 6.7 0v-7.9h-29.5v8.1z" fill="#fce014"/><path d="M459.5 133.9H489v-8.1h-29.5v8.1z" fill="#eeb41b"/><path d="M459.5 65H489v-8.1h-29.5V65z" fill="#fce014"/><path d="M459.5 178.4H489v-8.1h-29.5v8.1z" fill="#e9a622"/><path d="M459.5 157.7H489v-7.6h-29.5v7.6z" fill="#fbda17"/><path d="M459.5 109.5H489v-8.1h-29.5v8.1z" fill="#fce014"/><path d="M459.5 117.7H489v-8.1h-29.5v8.1z" fill="#f1b71a"/><path d="M459.5 125.8H489v-8.1h-29.5v8.1zM459.5 142H489v-8.1h-29.5v8.1z" fill="#fce014"/><path d="M459.5 150.1H489V142h-29.5v8.1zM459.5 56.9H489v-8.1h-29.5v8.1z" fill="#edae1e"/><path d="M459.5 186.5H489v-8.1h-29.5v8.1z" fill="#f4c91d"/><path d="M459.5 194.7H489v-3.8h-29.5v3.8z" fill="#e99c23"/><path d="M459.5 166.4v4H489v-3.5c-1.5-.1-2.9-.2-4.4-.4h-25.1z" fill="#fbda17"/><path d="M480.3 202.8h-20.8v4H489v-4.1h-8.5c-.1.1-.2.1-.2.1z" fill="#dd8624"/><path d="M459.5 48.8H489v-4.1h-29.5v4.1z" fill="#fbda17"/><path d="M459.5 69H489v-4h-29.5v4z" fill="#f1b71a"/><path d="M459.5 85.2H489v-4.1h-29.5v4.1z" fill="#eeb41b"/><path d="M459.5 28.5H489v-4.1h-29.5v4.1z" fill="#e99c23"/><path d="M488.9 20.4v-4.1h-29.4v4c9.8.1 19.6.1 29.4.1z" fill="#e48d1f"/><path d="M459.5 24.4H489v-4.1h-29.5v4.1z" fill="#eea81e"/><path d="M459.5 32.5H489v-4.1h-29.5v4.1z" fill="#f1b71a"/><path d="M459.5 36.6H489v-4.1h-29.5v4.1z" fill="#eea81e"/><path d="M459.5 40.6H489v-4.1h-29.5v4.1z" fill="#f8c21b"/><path d="M459.5 198.7H489v-4.1h-29.5v4.1z" fill="#fbda17"/><path d="M459.5 44.7H489v-4.1h-29.5v4.1z" fill="#e99c23"/><path d="M459.5 227.1H489V223h-29.5v4.1z" fill="#cc7d25"/><path d="M459.5 210.9H489v-4.1h-29.5v4.1z" fill="#f9cf1a"/><path d="M459.5 214.9H489v-4.1h-29.5v4.1z" fill="#d09021"/><path d="M459.5 219H489v-4.1h-29.5v4.1z" fill="#dd8624"/><path d="M459.5 223H489v-4h-29.5v4z" fill="#f1b71a"/><path d="M459.5 231.1H489V227h-29.5v4.1z" fill="#eea81e"/><path d="M459.5 235.2H489v-4.1h-29.5v4.1z" fill="#d09021"/><path d="M459.5 239.2H489v-4.1h-29.5v4.1z" fill="#eea81e"/><path d="M459.5 243.3H489v-4.1h-29.5v4.1zM459.5 243.3H489h-29.5z" fill="#cc7123"/><path d="M480.3 202.8h8.7v-4.1h-16.3c-.4 3.5 3.1 4.1 7.6 4.1z" fill="#da9e26"/><path d="M480.3 202.8c-4.4 0-8-.6-7.6-4.1h-13.2v4.1h20.8z" fill="#da9e26"/><path d="M459.5 162.1c8.6.4 16.7 3.1 25.1 4.3h4.4v-8.2h-29.5v3.9zM459.5 158.2H489v-.5h-29.5v.5z" fill="#e9a622"/><path d="M484.6 166.4c-8.4-1.2-16.5-3.9-25.1-4.3v4.3h25.1z" fill="#e9a622"/><path d="M459.5 190.9H489v-4.3h-29.5v4.3z" fill="#e2ab25"/><path d="M459.5 93.4v8H489v-8.1h-9.4c-6.7.4-13.4.2-20.1.1z" fill="#f5c618"/><path d="M459.5 93.4c6.7.1 13.5.3 20-.1l-20 .1zM488.9 93.2v.2h1.5c-.4-.1-.9-.2-1.5-.2z" fill="#f5c618"/></svg>