<svg xmlns="http://www.w3.org/2000/svg" viewBox="0 0 122 30"><linearGradient id="a" gradientUnits="userSpaceOnUse" x1="-2.29" y1="679.2" x2="119.238" y2="649.923" gradientTransform="translate(0 -660)"><stop offset="0" stop-color="#21e418"/><stop offset=".3" stop-color="#31b6e9"/><stop offset=".976" stop-color="#21e418"/></linearGradient><path d="M15.1 0C6.8 0 0 6.6 0 14.9c0 1.5.2 2.9.7 4.3.3-.4.6-.8.8-1.2 1.1-1.5 2.1-3.1 3.1-4.6l.7-1.2c.2-.4.5-.8.7-1.2.5-.8 1-1.6 1.4-2.4.2-.4.4-.8.7-1.2s.4-.8.7-1.2c.3-.4.4-.8.6-1.2l.6-1.1.1-.1c.3-.7 1.1-.9 1.8-.6.5.3.8.8.8 1.4 0 .7-.1 1.5-.2 2.2-.1.7-.1 1.5-.1 2.2-.1 1.5-.1 2.9-.1 4.3s.1 2.9.2 4.2l.3 2.1c.1.6.3 1.2.6 1.8.1.2.2.3.3.5.1.1 0 0 .1 0H14.1l.1-.1.6-.6c.4-.5.9-1 1.2-1.6.4-.6.7-1.2 1.1-1.8.7-1.3 1.4-2.6 2-3.9.3-.7.6-1.3.9-2 .3-.7.6-1.4.9-2 .3-.7 1.1-1 1.8-.7.4.2.7.6.8 1 0 .2 0 .4.1.6l.1.6c.1.4.1.8.2 1.2.1.8.3 1.7.5 2.5s.5 1.6.8 2.4c.3.8.7 1.5 1.3 2.2.1.2.1.4-.1.5-.1.1-.3.1-.4 0-.7-.6-1.3-1.3-1.8-2s-1-1.5-1.4-2.3c-.3-.6-.5-1.1-.7-1.7-.2.3-.3.7-.5 1-.7 1.4-1.3 2.7-2.1 4-.4.7-.8 1.4-1.2 2-.4.7-.9 1.4-1.5 2-.3.4-.7.7-1 1-.1.1-.2.2-.4.2l-.2.1-.1.1H14.8c-.1 0-.1.1-.2.1-.2 0-.3.1-.5.1-.4 0-.7 0-1.1-.1-.4-.1-.6-.3-.9-.5-.4-.4-.8-.8-1-1.3-.4-.8-.7-1.6-.8-2.5-.2-.8-.3-1.6-.4-2.3-.2-1.5-.2-3.1-.2-4.5v-2.2c-.3.5-.6 1-.8 1.5-.2.4-.4.8-.7 1.2l-.7 1.2c-.9 1.7-1.9 3.3-2.9 4.8-.6 1-1.3 2.1-2 3.1C7.2 30 16.5 32 23.5 27.4c7-4.4 8.9-13.7 4.3-20.5C24.9 2.6 20.2 0 15.1 0z" fill="url(#a)"/><linearGradient id="b" gradientUnits="userSpaceOnUse" x1="-.881" y1="684.557" x2="120.363" y2="655.348" gradientTransform="translate(0 -660)"><stop offset="0" stop-color="#21e418"/><stop offset=".3" stop-color="#31b6e9"/><stop offset=".976" stop-color="#21e418"/></linearGradient><path d="M43.2 20.2v-9.9H43l-3.2 9.9H39l-3.2-9.9h-.3v9.9h-1.3V9.4h2.4l2.8 8.7 2.8-8.7h2.4v11l-1.4-.2z" fill="url(#b)"/><linearGradient id="c" gradientUnits="userSpaceOnUse" x1="-.112" y1="686.2" x2="120.293" y2="657.193" gradientTransform="translate(0 -660)"><stop offset="0" stop-color="#21e418"/><stop offset=".3" stop-color="#31b6e9"/><stop offset=".976" stop-color="#21e418"/></linearGradient><path d="M46.5 10.8V9.4h1.4v1.4h-1.4zm0 9.4v-8.4h1.4v8.4h-1.4z" fill="url(#c)"/><linearGradient id="d" gradientUnits="userSpaceOnUse" x1=".122" y1="688.752" x2="121.48" y2="659.516" gradientTransform="translate(0 -660)"><stop offset="0" stop-color="#21e418"/><stop offset=".3" stop-color="#31b6e9"/><stop offset=".976" stop-color="#21e418"/></linearGradient><path d="M56.5 17.5c0 1.7-.6 2.9-3.4 2.9-3.5 0-3.7-2-3.7-4.3s.2-4.3 3.7-4.3c2.8 0 3.4 1.3 3.4 2.9h-1.3c0-1.4-.5-2-2.1-2-2.2 0-2.3 1.2-2.3 3.5s.1 3.5 2.3 3.5c1.6 0 2.1-.7 2.1-2h1.3z" fill="url(#d)"/><linearGradient id="e" gradientUnits="userSpaceOnUse" x1=".605" y1="690.03" x2="121.659" y2="660.867" gradientTransform="translate(0 -660)"><stop offset="0" stop-color="#21e418"/><stop offset=".3" stop-color="#31b6e9"/><stop offset=".976" stop-color="#21e418"/></linearGradient><path d="M59.2 12.7c.7-.4 1.5-1 2.3-1h1.2l-.1 1h-1.1c-.7 0-1.5.6-2.1.9v6.6H58v-8.4h1.1l.1.9z" fill="url(#e)"/><linearGradient id="f" gradientUnits="userSpaceOnUse" x1=".895" y1="691.885" x2="122.275" y2="662.643" gradientTransform="translate(0 -660)"><stop offset="0" stop-color="#21e418"/><stop offset=".3" stop-color="#31b6e9"/><stop offset=".976" stop-color="#21e418"/></linearGradient><path d="M70.5 16c0 2.4-.2 4.3-3.7 4.3s-3.7-2-3.7-4.3.2-4.3 3.7-4.3 3.7 1.9 3.7 4.3zm-6.1 0c0 2.3.1 3.5 2.3 3.5 2.2 0 2.3-1.1 2.3-3.5s-.1-3.5-2.3-3.5c-2.1.1-2.3 1.2-2.3 3.5z" fill="url(#f)"/><linearGradient id="g" gradientUnits="userSpaceOnUse" x1="1.948" y1="695.238" x2="122.986" y2="666.079" gradientTransform="translate(0 -660)"><stop offset="0" stop-color="#21e418"/><stop offset=".3" stop-color="#31b6e9"/><stop offset=".976" stop-color="#21e418"/></linearGradient><path d="M73.1 22.2c.5.1 1.2.1 2 .1 2.2 0 2.4-.6 2.5-2.8-.6.4-1.5.8-2.4.8-3.1.1-3.3-1.6-3.3-4.2s.2-4.3 3.2-4.3c1 0 2 .5 2.7.9l.1-.8H79v7.5c0 3.1-.7 3.9-3.5 3.9-.8 0-1.7-.1-2.5-.2l.1-.9zm4.4-8.9c-.6-.4-1.4-.8-2.1-.8-2.1 0-2.2 1.2-2.2 3.5s.1 3.3 2.2 3.3c.7 0 1.5-.4 2.1-.7v-5.3z" fill="url(#g)"/><linearGradient id="h" gradientUnits="userSpaceOnUse" x1="2.008" y1="696.05" x2="123.28" y2="666.834" gradientTransform="translate(0 -660)"><stop offset="0" stop-color="#21e418"/><stop offset=".3" stop-color="#31b6e9"/><stop offset=".976" stop-color="#21e418"/></linearGradient><path d="M86.6 20.2l-.1-.8c-.7.4-1.6.9-2.6.9-3.1.1-3.3-1.7-3.3-4.3s.2-4.3 3.3-4.3c1 0 1.9.5 2.6.9l.1-.7h1.1v8.4h-1.1zm-.3-6.9c-.6-.3-1.4-.7-2.1-.7-2.1 0-2.2 1.2-2.2 3.5s.1 3.5 2.2 3.5c.7 0 1.5-.4 2.1-.8v-5.5z" fill="url(#h)"/><linearGradient id="i" gradientUnits="userSpaceOnUse" x1="2.53" y1="698.438" x2="123.914" y2="669.195" gradientTransform="translate(0 -660)"><stop offset="0" stop-color="#21e418"/><stop offset=".3" stop-color="#31b6e9"/><stop offset=".976" stop-color="#21e418"/></linearGradient><path d="M90.6 12.5c.6-.4 1.5-.9 2.4-.9 1.4-.1 2.2.3 2.5.9.7-.4 1.5-.9 2.5-.9 2.9-.1 3.1 1.4 3.1 3.5v5.1h-1.4v-5c0-1.8-.1-2.6-2-2.6-.7 0-1.4.4-2 .8.1.6.2 1.2.2 1.9v5h-1.2v-5c0-1.8-.1-2.6-2-2.6-.7 0-1.4.4-1.9.7v6.9h-1.4v-8.4h1.1l.1.6z" fill="url(#i)"/><linearGradient id="j" gradientUnits="userSpaceOnUse" x1="3.525" y1="698.948" x2="123.93" y2="669.942" gradientTransform="translate(0 -660)"><stop offset="0" stop-color="#21e418"/><stop offset=".3" stop-color="#31b6e9"/><stop offset=".976" stop-color="#21e418"/></linearGradient><path d="M103 10.8V9.4h1.4v1.4H103zm0 9.4v-8.4h1.4v8.4H103z" fill="url(#j)"/><linearGradient id="k" gradientUnits="userSpaceOnUse" x1="3.447" y1="701.658" x2="124.709" y2="672.444" gradientTransform="translate(0 -660)"><stop offset="0" stop-color="#21e418"/><stop offset=".3" stop-color="#31b6e9"/><stop offset=".976" stop-color="#21e418"/></linearGradient><path d="M107.4 12.5c.7-.4 1.6-.9 2.6-.9 3.1-.1 3.3 1.4 3.3 3.5v5.1h-1.4v-5c0-1.8-.1-2.6-2.2-2.6-.7 0-1.5.4-2.1.7v6.9h-1.4v-8.4h1.1l.1.7z" fill="url(#k)"/><linearGradient id="l" gradientUnits="userSpaceOnUse" x1="4.5" y1="704.974" x2="125.538" y2="675.814" gradientTransform="translate(0 -660)"><stop offset="0" stop-color="#21e418"/><stop offset=".3" stop-color="#31b6e9"/><stop offset=".976" stop-color="#21e418"/></linearGradient><path d="M116.1 22.2c.5.1 1.2.1 2 .1 2.2 0 2.4-.6 2.5-2.8-.6.4-1.5.8-2.4.8-3.1.1-3.3-1.6-3.3-4.2s.2-4.3 3.2-4.3c1 0 2 .5 2.7.9l.1-.8h1.1v7.5c0 3.1-.7 3.9-3.5 3.9-.8 0-1.7-.1-2.5-.2l.1-.9zm4.4-8.9c-.6-.4-1.4-.8-2.1-.8-2.1 0-2.2 1.2-2.2 3.5s.1 3.3 2.2 3.3c.7 0 1.5-.4 2.1-.7v-5.3z" fill="url(#l)"/></svg>