<svg xmlns="http://www.w3.org/2000/svg" viewBox="0 0 80 30"><g fill="#63a844"><path d="M42.2 0h.6v6.3h9.1v3.4h-8v3.7h6.8v3.4h-6.8v3.8h8V24h-9.1v6.1h-.6V0zM53.7 6.3h2.9c.1 0 .3 0 .3.1 1.7 2.6 3.4 5.2 4.9 7.8.6 1 1.2 1.9 1.8 2.9V6.3h3.6v17.5H64c-1.7-2.8-3.5-5.5-5.1-8.2-.5-.9-1.1-1.7-1.6-2.6v10.8h-3.5c-.1-5.8-.1-11.6-.1-17.5zM68.5 6.3H80v3.4h-4v14.2h-3.6V9.7h-4.1c.2-1.1.2-2.2.2-3.4z"/></g><g fill="#fff"><path d="M0 6.3h3.2c1.7 2.6 3.4 5.2 4.9 7.8.6 1 1.2 2 1.8 2.9V6.2h3.6v17.5h-3.2C8 20.1 5.7 16.5 3.6 13v10.8H.1C0 18 0 12.2 0 6.3zM15.1 6.3h11.5v3.4h-8v3.7h6.8v3.4h-6.8v3.8h8V24H15.1V6.3zM28.3 6.3h11.5v3.4h-4v14.2h-3.6V9.7h-4.1c.2-1.1.2-2.2.2-3.4z"/></g></svg>