<svg xmlns="http://www.w3.org/2000/svg" viewBox="0 0 452 120.513"><path fill="#fffe00" d="M0 34.713h15.1v37.1H0zM42.7 34.713h15.1v37.1H42.7zM200.3 58.413v13.4h-43.9v-37.1h15.1v23.7zM217.5 34.713h15.1v37.1h-15.1zM250.8 34.713h15.1v37.1h-15.1zM297.4 34.713h15.1v37.1h-15.1zM344 34.713h15.1v37.1H344zM374.5 34.713h15.1v37.1h-15.1zM374.5 1.113h15.1v29.7h-15.1zM217.5 1.113h15.1v29.7h-15.1zM156.4 1.113h15.1v29.7h-15.1zM452 1.113v15.2h-15.4v14.5h-15.2v-14.5H406v-15.2zM421.4 34.713h15.1v37.1h-15.1zM85.9 30.813c.8-8.7 8.2-15.5 17-15.5h6.5c8.9 0 16.2 6.8 17 15.5h15c-.9-17-14.9-30.5-32.1-30.5h-6.5c-17.2 0-31.2 13.5-32.1 30.5h15.2zM126.7 34.713v5.9c0 9.4-7.7 17.1-17.1 17.1h-6.5c-9.4 0-17.1-7.7-17.1-17.1v-5.9H71v5.9c0 17.7 14.4 32.1 32.1 32.1h6.5c17.7 0 32.1-14.4 32.1-32.1v-5.9h-15zM57.8 30.813h-15c0-3.9-1.2-6.8-3.8-9.2-5.6-5.1-16.4-6.4-23.9-6.6v15.8H.1v-29.8l6.8-.7c2.9-.3 28.3-2.4 42.3 10.2 5.6 5.2 8.6 12.2 8.6 20.3zM359 30.813h-15c0-8.7-7.1-15.8-15.8-15.8s-15.8 7.1-15.8 15.8h-15c0-8.7-7.1-15.8-15.8-15.8s-15.8 7.1-15.8 15.8h-15c0-17 13.8-30.8 30.8-30.8 9.3 0 17.6 4.1 23.3 10.7 5.7-6.5 14-10.7 23.3-10.7 17 0 30.8 13.8 30.8 30.8z"/><path d="M97.2 108.313v-.3c0-7.2 4.5-12.2 10.7-12.2 3.5 0 5.5 1.1 7.3 2.8l-1.9 3.2c-1.6-1.4-3.2-2.3-5.4-2.3-3.8 0-6.6 3.3-6.6 8.5v.3c0 5.2 2.8 8.5 6.6 8.5 2.3 0 3.8-.9 5.5-2.4l1.9 2.9c-2 2-4.2 3.2-7.7 3.2-5.9 0-10.4-4.9-10.4-12.2zM180.6 96.113h4v24h-4v-24zM256.3 99.813H250v-3.7h16.6v3.7h-6.3v20.3h-4v-20.3zM338.2 110.513l-8.1-14.4h4.5l5.6 10.3 5.6-10.3h4.4l-8 14.4v9.6h-4v-9.6z" fill="#fff"/></svg>