<svg xmlns="http://www.w3.org/2000/svg" viewBox="0 0 93.247 30"><linearGradient id="a" gradientUnits="userSpaceOnUse" x1="67.457" y1="18.194" x2="77.748" y2="18.194"><stop offset="0" stop-color="#fe2640"/><stop offset=".487" stop-color="#f95f1c"/><stop offset="1" stop-color="#ee4409"/></linearGradient><path d="M76.594 19.52c.363-.256.63-.593.947-1.505.327-.945.51-2.373-1.415-3.61l-1.315-.858c.162.107.314.207.443.29 1.162.749.487 1.828.022 2.15-.894.62-1.948 1.323-3.624 2.41-.422.273-1.043.251-1.032-.54.012-.817-.732-1.48-1.481-1.48-.86 0-1.726.652-1.68 1.473.015.283.01.514.002 1.575-.022 3.102 3.073 4.05 4.672 3.014 1.22-.79 3.24-2.056 4.46-2.918z" fill="url(#a)"/><linearGradient id="b" gradientUnits="userSpaceOnUse" x1="67.457" y1="13.823" x2="81.058" y2="13.823"><stop offset="0" stop-color="#fd4331"/><stop offset="1" stop-color="#fba103"/></linearGradient><path d="M77.98 13.374c-.432-.285-5.508-3.654-7.13-4.722-1.214-.8-2.286-.582-2.747-.417-.452.516-.646 1.348-.646 1.939v1.82c0 .632.632 1.435 1.558 1.435.821 0 1.572-.619 1.572-1.402 0-.814.738-.818 1.014-.638.793.518 2.226 1.507 3.198 2.147l1.327.869c1.823 1.215 1.73 2.703 1.402 3.647a3.973 3.973 0 01-1.005 1.517l.008-.005 1.128-.738.133-.087.003-.002.05-.033c2.35-1.537 1.73-4.274.134-5.33z" fill="url(#b)"/><linearGradient id="c" gradientUnits="userSpaceOnUse" x1="67.457" y1="12.858" x2="81.058" y2="12.858"><stop offset="0" stop-color="#fd4331"/><stop offset="1" stop-color="#fba103"/></linearGradient><path d="M80.546 16.544c.869-1.46.74-3.162-1.231-4.448-.3-.195-2.814-1.875-4.88-3.242l-.744-.491c-.615-.406-1.154-.758-1.518-.992-.446-.285-1.182-.432-1.813-.383-.16.018-.318.034-.483.078l-.015.005c-.15.04-.306.11-.46.173-.449.211-.85.52-1.225.895-.005.007-.012.012-.017.018-.022.023-.036.054-.057.078.461-.165 1.533-.383 2.747.417 1.622 1.068 6.698 4.437 7.13 4.722 1.595 1.056 2.216 3.793-.135 5.33l-.05.033c.918-.602 2.227-1.312 2.75-2.193z" fill="url(#c)"/><radialGradient id="d" cx="74.614" cy="12.871" r="8.556" gradientTransform="matrix(-.82812 -.56056 .2162 -.31938 133.621 58.808)" gradientUnits="userSpaceOnUse"><stop offset=".176" stop-color="#fff" stop-opacity=".6"/><stop offset="1" stop-color="#fff" stop-opacity=".15"/></radialGradient><path d="M80.546 16.544c.869-1.46.74-3.162-1.231-4.448-.3-.195-2.814-1.875-4.88-3.242l-.744-.491c-.615-.406-1.154-.758-1.518-.992-.446-.285-1.182-.432-1.813-.383-.16.018-.318.034-.483.078l-.015.005c-.15.04-.306.11-.46.173-.449.211-.85.52-1.225.895-.005.007-.012.012-.017.018-.022.023-.036.054-.057.078.461-.165 1.533-.383 2.747.417 1.622 1.068 6.698 4.437 7.13 4.722 1.595 1.056 2.216 3.793-.135 5.33l-.05.033c.918-.602 2.227-1.312 2.75-2.193z" fill="url(#d)"/><g fill="#1485d2"><path d="M64.683 0h.186c.257.045.513.122.727.276.391.271.644.737.638 1.216.004 6.502.004 13.003.003 19.505a1.5 1.5 0 01-.99 1.403c-.61.222-1.353-.006-1.727-.54-.213-.288-.29-.655-.278-1.008.002-6.454-.003-12.908 0-19.361a1.445 1.445 0 01.46-1.065c.264-.254.625-.377.981-.426zM43.507 1.535c.625-.176 1.336.129 1.651.694.317.536.257 1.274-.162 1.74-.444.51-1.247.626-1.835.309-.488-.25-.822-.786-.795-1.338.02-.652.518-1.238 1.14-1.405zM21.87 7.734c1.38-.35 2.862-.375 4.227.059a7.543 7.543 0 013.552 2.428c1.096 1.376 1.649 3.147 1.643 4.898 0 1.942-.002 3.885-.001 5.828.003.348-.097.703-.313.979-.328.428-.912.629-1.436.528-.66-.162-1.196-.771-1.23-1.457a6.332 6.332 0 01-1.903 1.083c-1.069.373-2.222.458-3.345.367-1.098-.086-2.16-.444-3.125-.968a7.287 7.287 0 01-1.738-1.3 6.718 6.718 0 01-1.504-2.4 7.902 7.902 0 01-.405-3.916 7.497 7.497 0 011.929-3.97 7.536 7.536 0 013.649-2.16m1.218 2.75a4.542 4.542 0 00-2.505 1.294c-.815.843-1.4 1.961-1.423 3.152-.01 1.02.32 2.05.955 2.853 1.072 1.366 2.942 2.014 4.637 1.672.906-.177 1.766-.628 2.391-1.314.651-.704 1.034-1.63 1.142-2.578.251-1.879-.8-3.863-2.505-4.697a4.382 4.382 0 00-2.692-.382zM39.03 7.504c.577-.05 1.217-.159 1.738.167.589.336.854 1.107.62 1.74-.198.593-.799 1.01-1.422 1.006a4.613 4.613 0 00-3.04 1.13 4.569 4.569 0 00-1.56 3.334c-.011 2.022-.007 4.045-.007 6.067.01.467-.206.934-.577 1.218-.442.346-1.086.419-1.586.156-.487-.247-.838-.77-.829-1.324-.003-2.023-.001-4.046 0-6.069a7.519 7.519 0 011.919-4.962 7.561 7.561 0 014.744-2.463zM43.46 7.496c.603-.169 1.304.074 1.652.602.172.25.249.556.245.858-.001 3.901.007 7.801.002 11.702.02.396-.01.817-.24 1.155-.388.623-1.263.845-1.913.522-.54-.248-.874-.844-.84-1.433 0-3.868-.002-7.737 0-11.606.007-.26-.025-.529.053-.782.14-.49.549-.887 1.04-1.018zM81.165 8.383c.229-.608.896-1.01 1.54-.912.706.074 1.28.731 1.271 1.438v7.322c-.006.367.032.738.15 1.087a3.157 3.157 0 002.28 2.078c.961.228 2.02-.047 2.754-.706a3.085 3.085 0 001.043-2.267V8.908c.003-.474.262-.928.653-1.19.593-.42 1.474-.314 1.963.219.247.244.355.584.428.916v15.04c-.067.548-.124 1.101-.295 1.63-.487 1.59-1.646 2.951-3.123 3.71a6.245 6.245 0 01-4.92.35 6.245 6.245 0 01-3.583-3.213c-.295-.657-.01-1.496.615-1.848.543-.341 1.3-.247 1.759.195.258.226.353.569.557.836a3.287 3.287 0 002.828 1.4 3.292 3.292 0 002.24-1.02c.546-.572.87-1.353.878-2.144v-2.21c-1.873 1.131-4.367 1.12-6.232-.026a6.066 6.066 0 01-2.797-3.881c.313-.271.555-.617.726-.992.371-.817.432-1.758.227-2.627-.162-.669-.502-1.323-1.064-1.738-.008-.958-.002-1.917-.004-2.875.006-.353-.035-.723.106-1.057zM5.138 7.933c1.676-.542 3.547-.566 5.194.092a8.06 8.06 0 013.352 2.514c1.046 1.35 1.537 3.077 1.509 4.772a7.084 7.084 0 01-.899 3.316c-.744 1.336-1.86 2.486-3.24 3.164a8.04 8.04 0 01-4.416.754c-1.322-.148-2.572-.696-3.648-1.465-.005 2.46 0 4.921-.003 7.381-.001.35-.096.71-.32.984-.264.33-.68.508-1.092.555h-.116c-.736-.014-1.4-.624-1.459-1.36V14.522c.059-.45.117-.902.233-1.342A7.385 7.385 0 011.9 10.086a7.339 7.339 0 013.237-2.153m1.915 2.6a4.586 4.586 0 00-4.028 3.97 4.494 4.494 0 00.648 2.962A4.615 4.615 0 006.5 19.496a4.65 4.65 0 002.927-.249 4.61 4.61 0 002.313-2.206 4.512 4.512 0 00.25-3.32 4.623 4.623 0 00-4.936-3.189zM50.233 8.87c1.178-.83 2.608-1.261 4.04-1.332a7.232 7.232 0 013.044.492 8.134 8.134 0 012.4 1.497 7.145 7.145 0 012.135 3.385c.302 1.074.406 2.214.237 3.32a7.138 7.138 0 01-.917 2.564c-.797 1.362-1.994 2.51-3.452 3.14-1.724.74-3.723.887-5.515.298-.804-.259-1.551-.67-2.24-1.155-.005 2.413-.002 4.825-.002 7.238.013.388-.06.798-.307 1.109-.237.319-.618.48-.992.574h-.387c-.245-.065-.495-.138-.702-.289a1.52 1.52 0 01-.61-1.058V15.312c.004-.356-.02-.714.047-1.066.1-.86.334-1.708.723-2.483a7.908 7.908 0 012.498-2.893m3.77 1.666a4.598 4.598 0 00-3.027 1.673 4.567 4.567 0 00-.919 3.79 4.529 4.529 0 001.342 2.377 4.627 4.627 0 003.494 1.237 4.603 4.603 0 004.002-3 4.505 4.505 0 00.005-3.077 4.621 4.621 0 00-4.897-3z"/></g></svg>