<svg version="1.2" baseProfile="tiny" xmlns="http://www.w3.org/2000/svg" viewBox="0 0 144.088 32.489"><g fill="#FFF"><path d="M33.295 11.981c-.022-.054-.036-.108-.058-.164-1.364-3.344-6.547-4.357-12.522-2.83l-.98-.61c2.942-1.27 5.87-1.932 8.326-1.75 3.66.277 5.452 2.36 5.234 5.354m-5.312 7.024c-3.83 4.878-10.753 8.254-15.464 7.904-4.702-.356-5.416-4.594-1.584-9.472.076-.1.159-.198.239-.298l.012 6.114c-.025 1.555 1.472 2.284 2.548 1.667l14.084-8.59c1.101-.713.985-2.309-.052-2.923l-5.71-3.287c1.543-.464 3.025-.683 4.34-.585 4.707.356 5.415 4.593 1.587 9.47M10.07 29.533c-4.323-.325-6.047-3.174-4.921-7.054a4.624 4.624 0 00.334 1.842c1.69 4.154 9.274 4.716 16.938 1.268.157-.07.313-.148.468-.217-4.303 2.777-9.096 4.437-12.82 4.161M15.05 7.82l9.455 5.959c.698.418.782 1.509.038 1.993l-9.55 5.824c-.73.42-1.752-.08-1.732-1.143L13.215 8.89c.042-.965.996-1.548 1.835-1.07m21.885 2.146c-1.981-4.87-10.21-5.941-19.116-2.79l-3.952-2.476c-1.23-.703-2.636.153-2.704 1.577l.003 4.021C3.491 14.896-.959 21.516.936 26.176c2.195 5.383 12.031 6.121 21.97 1.644 9.941-4.475 16.221-12.47 14.03-17.855M44.835 16.984l-.859 3.16c-.128.482-.226.92-.305 1.298-.081.398-.115.682-.115.858 0 .338.092.597.28.792.198.193.459.288.78.288.504 0 1.028-.284 1.57-.852.54-.57 1.058-1.383 1.564-2.45a30.466 30.466 0 001.477-4.05c.367-1.328.56-2.374.56-3.118 0-.54-.112-.976-.33-1.3-.218-.328-.498-.496-.826-.496-.748 0-1.43.484-2.055 1.436-.625.963-1.205 2.436-1.741 4.434M39.44 9.64a77.6 77.6 0 003.812-.402 54.665 54.665 0 003.496-.557l-.945 3.39c.944-1.311 1.844-2.274 2.707-2.866.846-.612 1.726-.903 2.652-.903 1.258 0 2.236.398 2.914 1.19.69.8 1.027 1.936 1.027 3.405 0 1.24-.23 2.55-.701 3.916a15.342 15.342 0 01-1.97 3.823c-.977 1.373-2.008 2.402-3.11 3.084-1.108.686-2.275 1.033-3.52 1.033-.51 0-.986-.07-1.438-.224a4.153 4.153 0 01-1.208-.664l-.968 3.675c-.066.22-.118.456-.144.686a4.152 4.152 0 00-.046.682c0 .44.126.76.388.94.262.177.793.286 1.59.337v.859h-9.024v-.896a.76.76 0 00.132-.015.615.615 0 01.13-.02c.56 0 .978-.144 1.258-.439.283-.293.57-1.057.872-2.303l3.592-14.63c.063-.234.11-.472.15-.699a3.58 3.58 0 00.057-.519c0-.402-.122-.672-.356-.82-.243-.165-.692-.24-1.347-.24V9.64z"/><path d="M55.998 1.57c1.35-.11 2.637-.257 3.89-.435A44.106 44.106 0 0063.418.5l-4.956 19.617a9.16 9.16 0 00-.112.408c-.065.254-.089.416-.089.503 0 .23.043.415.133.541a.47.47 0 00.406.196c.178 0 .38-.122.612-.374.23-.247.674-.896 1.337-1.948l.79.6c-.994 1.665-1.953 2.876-2.854 3.625-.901.748-1.837 1.12-2.816 1.12-.863 0-1.537-.239-2.003-.725-.47-.487-.7-1.188-.7-2.094 0-.445.24-1.626.716-3.541l.048-.193 3.29-12.768c.03-.118.07-.292.124-.522.21-.84.301-1.381.301-1.614 0-.322-.108-.555-.332-.711-.219-.15-.56-.232-1.033-.232h-.283v-.819z"/><path d="M71.514 11.729c0-.47-.099-.841-.304-1.121a.95.95 0 00-.803-.415c-.472 0-.925.23-1.365.696-.44.472-.944 1.25-1.522 2.341-.674 1.3-1.204 2.567-1.584 3.816-.39 1.26-.584 2.326-.584 3.21 0 .537.108.952.322 1.266.214.296.51.447.868.447.532 0 1.074-.316 1.637-.963.561-.642 1.092-1.55 1.595-2.716.528-1.3.944-2.568 1.262-3.776.316-1.217.478-2.144.478-2.785m5.978-2.879l-2.644 9.704v.035c-.402 1.495-.605 2.364-.605 2.613 0 .231.04.415.133.559.087.145.2.208.352.208.428 0 .987-.515 1.658-1.548.202-.295.358-.528.465-.69l.768.605c-.863 1.514-1.723 2.634-2.6 3.348-.877.716-1.825 1.069-2.835 1.069-.84 0-1.484-.187-1.917-.556-.447-.383-.664-.927-.664-1.653 0-.216.016-.495.063-.822.038-.332.108-.761.2-1.285-.799 1.46-1.67 2.547-2.61 3.248a5.04 5.04 0 01-3.136 1.068c-1.192 0-2.129-.37-2.818-1.115-.692-.752-1.038-1.772-1.038-3.07 0-1.495.327-3.068.998-4.732.661-1.643 1.55-3.114 2.672-4.376.884-1.015 1.798-1.795 2.75-2.342.96-.546 1.875-.816 2.756-.816.843 0 1.496.206 1.983.612.485.414.804 1.042.957 1.878l.487-1.942h4.625z"/><path d="M75.952 10.193v-.896c1.288-.144 2.592-.323 3.921-.523 1.319-.201 2.037-.299 2.137-.299.531 0 1.226 2.335 2.067 7.012.341 1.862.621 3.362.841 4.484 1.003-2.033 1.688-3.517 2.059-4.445.37-.923.55-1.61.55-2.048 0-.34-.309-.753-.925-1.224-.614-.476-.929-1.023-.929-1.627 0-.7.213-1.264.648-1.692.425-.421.995-.633 1.705-.633.703 0 1.258.212 1.655.633.39.428.593 1.027.593 1.788 0 .958-.46 2.5-1.37 4.622-.914 2.117-2.162 4.5-3.742 7.168-1.788 3.04-3.42 5.246-4.884 6.644-1.465 1.396-2.876 2.09-4.232 2.09-.901 0-1.606-.2-2.122-.601-.514-.404-.772-.956-.772-1.66 0-.64.22-1.159.669-1.58.444-.417 1.007-.624 1.692-.624.536 0 1.112.215 1.727.637.612.43 1.029.632 1.232.632.369 0 .785-.31 1.256-.926.484-.626.725-1.212.725-1.782 0-.414-.039-.944-.112-1.578a52.355 52.355 0 00-.337-2.354 158.76 158.76 0 00-.943-5.446c-.323-1.631-.61-2.92-.867-3.86-.226-.808-.454-1.334-.685-1.582-.23-.245-.604-.366-1.137-.366h-.042a2.911 2.911 0 01-.378.035"/><path d="M96.571 20.365c-.996 1.404-1.975 2.482-2.928 3.226-.944.752-1.807 1.125-2.59 1.125-.633 0-1.126-.21-1.49-.613-.364-.414-.55-.967-.55-1.66 0-.244.026-.515.074-.819.044-.307.115-.647.21-1.005l2.842-11.115h-2.993l.278-.956c1.287-.281 2.424-.895 3.418-1.844.988-.953 1.885-2.27 2.673-3.955h1.021L95.2 8.33h2.735l-.276 1.175H94.84L92.111 20.24c-.063.244-.11.457-.144.659-.023.196-.044.376-.044.528 0 .357.077.626.239.818.148.191.373.283.646.283.358 0 .778-.208 1.275-.644.496-.427 1.124-1.128 1.877-2.095l.611.576z"/><path d="M99.363 16.706c2.2-.105 4.055-.708 5.541-1.794 1.499-1.104 2.238-2.343 2.238-3.748 0-.471-.12-.824-.358-1.062-.23-.228-.59-.345-1.07-.345-1.334 0-2.572.604-3.706 1.836-1.134 1.24-2.013 2.941-2.645 5.113m-.26 1.178a9.294 9.294 0 00-.215 1.15c-.054.356-.07.691-.07.994 0 .93.226 1.641.69 2.13.456.491 1.13.854 2.007.854.864 0 1.857-.411 2.95-1.004 1.107-.59 2.351-1.483 3.722-2.676l.724 1.096c-1.636 1.474-3.176 2.565-4.624 3.261-1.443.71-2.856 1.057-4.244 1.057-1.359 0-2.425-.412-3.173-1.221-.755-.82-1.13-1.968-1.13-3.465 0-1.431.294-2.887.88-4.362a13.313 13.313 0 012.403-3.929c.983-1.095 2.064-1.925 3.228-2.507 1.181-.574 2.385-.872 3.625-.872 1.143 0 2.038.268 2.699.799.66.527.993 1.253.993 2.179 0 1.665-.97 3.112-2.893 4.328-1.927 1.213-4.45 1.937-7.572 2.188"/><path d="M120.599 18.112l-.043 2.104c-1.036 1.516-2.158 2.647-3.381 3.401a7.526 7.526 0 01-4.003 1.12c-1.582 0-2.876-.529-3.87-1.601-.988-1.055-1.482-2.46-1.482-4.205 0-1.283.28-2.591.84-3.926a11.744 11.744 0 012.326-3.586c.908-.956 1.926-1.703 3.056-2.215 1.118-.521 2.262-.79 3.44-.79 1.237 0 2.218.289 2.95.853.73.565 1.098 1.316 1.098 2.262 0 .562-.187 1.048-.571 1.448-.379.404-.827.602-1.35.602-.429 0-.774-.135-1.04-.419-.263-.28-.395-.643-.395-1.096 0-.316.102-.677.32-1.099.209-.414.31-.673.31-.777 0-.195-.102-.35-.322-.472-.22-.121-.507-.181-.882-.181-.761 0-1.532.232-2.326.712-.788.488-1.478 1.144-2.07 1.977a12.565 12.565 0 00-1.67 3.223c-.384 1.133-.575 2.234-.575 3.325 0 1.232.31 2.217.935 2.936.632.72 1.48 1.208 2.553 1.208.847 0 1.679-.396 2.496-.924.823-.537 2.184-1.607 3.656-3.88"/><path d="M118.734 24.756l5.598-20.284c.034-.124.054-.25.068-.386.021-.124.027-.253.027-.357 0-.361-.092-.61-.266-.75-.178-.123-.686-.191-1.515-.191h-1.275l.198-.926a18.997 18.997 0 002.882-.337 15.366 15.366 0 002.519-.74h1.012l-3.875 14.01c1.984-2.022 3.812-3.587 5.475-4.715 1.658-1.108 2.984-1.671 3.972-1.671.521 0 .898.124 1.15.372.243.256.375.644.375 1.165 0 .163-.027.356-.075.59a12.06 12.06 0 01-.176.789L132 20.869c-.049.183-.096.39-.132.61a3.672 3.672 0 00-.058.649c0 .122.058.229.16.328.101.093.225.26.358.26.277 0 .664-.304 1.148-.68.488-.376 1-.891 1.542-1.542l.576.495c-.974 1.208-1.912 2.139-2.812 2.772-.904.64-1.739.963-2.499.963-.497 0-.89-.123-1.176-.363-.292-.245-.43-.57-.43-.996 0-.15.012-.31.045-.483.03-.17.085-.356.153-.56l2.905-9.87c.054-.216.088-.382.107-.494.017-.108.023-.216.023-.306 0-.252-.068-.444-.215-.58-.139-.126-.341-.191-.608-.191-.413 0-1.024.257-1.828.78-.81.521-1.735 1.267-2.799 2.23-.95.854-1.653 1.58-2.094 2.182a6.334 6.334 0 00-.964 1.875l-1.927 6.808c-.22-.034-.999-.059-1.225-.074-.226-.016.104-.016-.13-.016-.236 0-.472 0-.7.016-.22.015-.45.04-.686.074M85.482 30.335v.264c-.002.136.013.26.05.379.08.32.34.48.784.48.166 0 .315-.023.45-.07.302-.091.456-.32.465-.675a.655.655 0 00-.299-.568 4.351 4.351 0 00-.5-.274l-.586-.265a3.313 3.313 0 01-.579-.317c-.323-.226-.485-.547-.485-.968.004-.462.186-.787.542-.98.267-.146.63-.22 1.095-.224.565 0 .975.106 1.224.32.199.173.299.512.299 1.016v.094h-.804v-.113l-.016-.245c-.05-.368-.288-.548-.715-.54-.541 0-.814.218-.821.652 0 .276.17.5.508.674.212.11.448.219.712.33.267.11.483.216.648.316.388.237.583.592.583 1.07-.008.863-.58 1.298-1.72 1.298-.487.006-.863-.076-1.126-.242a1.036 1.036 0 01-.501-.842l-.01-.38v-.19h.802zM88.574 28.714c.003-.39.04-.674.108-.855.11-.285.345-.49.71-.61.265-.089.549-.133.854-.133.3 0 .584.044.852.134.36.118.595.324.705.609.068.177.107.465.112.855v1.588c0 .285-.016.534-.048.741-.09.625-.622.943-1.598.945-.708 0-1.183-.145-1.424-.44-.184-.22-.275-.637-.271-1.246v-1.588zm.805 1.582c.003.399.032.66.087.776.055.118.16.214.31.283.153.068.309.103.47.103.145 0 .287-.027.42-.087.256-.101.396-.283.421-.543.013-.148.02-.324.023-.532V28.71c.005-.344-.035-.587-.115-.726-.126-.224-.378-.337-.75-.334-.144 0-.28.02-.406.07a.612.612 0 00-.44.551 2.925 2.925 0 00-.02.439v1.586zM92.643 27.184h.803v3.162l.008.417c.028.46.296.692.803.695.508 0 .786-.216.834-.651.019-.152.028-.305.03-.461v-3.162h.805v3.212a6.577 6.577 0 01-.028.611.877.877 0 01-.268.552c-.293.287-.743.427-1.348.43-.628-.003-1.081-.142-1.357-.422a.904.904 0 01-.262-.56 6.581 6.581 0 01-.02-.61v-3.213zM98.021 27.184h.48c.186 0 .356.018.511.043.593.095.893.472.903 1.137 0 .35-.079.611-.235.796-.152.172-.45.288-.885.351v-.003c.272.027.468.068.588.124.172.086.28.224.322.412.028.124.044.272.052.439l.035.557a2.655 2.655 0 00.185.88h-.837l-.081-.302a1.62 1.62 0 01-.044-.327l-.032-.425-.027-.444c-.037-.339-.201-.544-.49-.611a2.107 2.107 0 00-.42-.039h-.557v2.148h-.806v-4.736h1.338zm-.532.534v1.52h.575c.172 0 .316-.01.445-.03.246-.038.416-.137.511-.297.061-.105.09-.28.09-.525 0-.263-.089-.447-.269-.548-.13-.078-.371-.118-.732-.12h-.62zM102.94 28.434l-.004-.22c-.02-.38-.244-.567-.676-.564-.384 0-.633.1-.75.298a.59.59 0 00-.105.29l-.006.39v1.87c.002.338.035.557.097.653.133.204.363.307.69.307.425-.003.667-.205.72-.606l.034-.305v-.163h.804v.165l-.007.296c-.027.354-.145.624-.364.814-.132.116-.29.196-.468.242a2.613 2.613 0 01-.696.087 2.812 2.812 0 01-.617-.056c-.663-.124-.995-.565-.999-1.328v-1.887c-.001-.206.01-.396.039-.573.03-.216.101-.397.216-.539.256-.32.716-.484 1.378-.489.927.005 1.427.3 1.498.881.013.112.02.236.02.374v.184h-.804v-.121zM104.446 27.184h2.63v.534h-1.826v1.501h1.713v.533h-1.713v1.634h1.877v.534h-2.681v-4.736zM109.212 28.714c.001-.39.036-.674.107-.855.106-.285.344-.49.709-.61.264-.089.548-.133.853-.133.3 0 .586.044.855.134.357.118.593.324.705.609.068.177.106.465.111.855v1.588c0 .285-.016.534-.045.741-.095.625-.624.943-1.603.945-.71 0-1.184-.145-1.423-.44-.184-.22-.273-.637-.269-1.246v-1.588zm.803 1.582c.004.399.033.66.089.776a.597.597 0 00.308.283c.152.068.31.103.47.103.147 0 .286-.027.422-.087.252-.101.392-.283.417-.543.015-.148.023-.324.025-.532V28.71c.005-.344-.034-.587-.114-.726-.128-.224-.38-.337-.75-.334-.146 0-.28.02-.406.07a.609.609 0 00-.438.551 2.755 2.755 0 00-.023.439v1.586zM115.848 27.184v.534h-1.758v1.497h1.692v.532h-1.692v2.173h-.806v-4.736h2.564zM118.524 30.335v.264c-.005.136.01.26.048.379.08.32.342.48.782.48.166 0 .316-.023.452-.07.3-.091.455-.32.466-.675a.652.652 0 00-.3-.568 4.377 4.377 0 00-.502-.274l-.585-.265a3.556 3.556 0 01-.581-.317c-.32-.226-.482-.547-.482-.968.007-.462.186-.787.544-.98.264-.146.63-.22 1.092-.224.566 0 .974.106 1.227.32.199.173.296.512.296 1.016v.094h-.803v-.113l-.016-.245c-.05-.368-.288-.548-.716-.54-.544 0-.813.218-.821.652 0 .276.172.5.51.674.209.11.447.219.711.33.266.11.483.216.65.316.385.237.581.592.581 1.07-.01.863-.581 1.298-1.719 1.298-.489.006-.865-.076-1.126-.242a1.025 1.025 0 01-.5-.842l-.014-.38v-.19h.806zM121.644 27.184h.802v3.162l.007.417c.028.46.299.692.803.695.508 0 .786-.216.836-.651a5.3 5.3 0 00.028-.461v-3.162h.805v3.212a5.627 5.627 0 01-.03.611.858.858 0 01-.265.552c-.296.287-.746.427-1.349.43-.628-.003-1.083-.142-1.36-.422a.915.915 0 01-.259-.56 7.175 7.175 0 01-.018-.61v-3.213zM128.057 28.434l-.004-.22c-.019-.38-.247-.567-.679-.564-.382 0-.63.1-.748.298a.618.618 0 00-.105.29l-.007.39v1.87c.004.338.036.557.101.653.13.204.36.307.686.307.426-.003.668-.205.724-.606l.032-.305v-.163h.804v.165l-.008.296c-.023.354-.147.624-.364.814a1.14 1.14 0 01-.468.242 2.624 2.624 0 01-.695.087 2.782 2.782 0 01-.617-.056c-.663-.124-.995-.565-.996-1.328v-1.887a3.247 3.247 0 01.036-.573c.027-.216.097-.397.215-.539.257-.32.716-.484 1.38-.489.928.005 1.428.3 1.497.881.012.112.02.236.02.374v.184h-.804v-.121zM131.94 28.434l-.004-.22c-.02-.38-.243-.567-.678-.564-.384 0-.632.1-.75.298a.561.561 0 00-.102.29l-.01.39v1.87c.004.338.038.557.1.653.133.204.362.307.688.307.428-.003.668-.205.722-.606l.033-.305v-.163h.804v.165l-.006.296c-.027.354-.148.624-.364.814-.132.116-.29.196-.47.242-.21.06-.445.087-.696.087a2.785 2.785 0 01-.616-.056c-.662-.124-.994-.565-.998-1.328v-1.887c-.005-.206.01-.396.038-.573.028-.216.098-.397.214-.539.257-.32.718-.484 1.381-.489.928.005 1.427.3 1.497.881.014.112.02.236.02.374v.184h-.804v-.121zM133.444 27.184h2.63v.534h-1.826v1.501h1.712v.533h-1.712v1.634h1.878v.534h-2.682v-4.736zM137.307 30.335v.264c-.003.136.013.26.05.379.08.32.34.48.782.48.165 0 .317-.023.452-.07.3-.091.456-.32.468-.675a.664.664 0 00-.302-.568 4.377 4.377 0 00-.502-.274l-.584-.265a3.38 3.38 0 01-.58-.317c-.32-.226-.483-.547-.483-.968.005-.462.184-.787.543-.98.264-.146.628-.22 1.093-.224.565 0 .973.106 1.227.32.197.173.296.512.296 1.016v.094h-.804v-.113l-.016-.245c-.05-.368-.29-.548-.716-.54-.54 0-.815.218-.82.652 0 .276.17.5.506.674.211.11.45.219.715.33.265.11.48.216.648.316.385.237.583.592.583 1.07-.01.863-.58 1.298-1.72 1.298-.49.006-.864-.076-1.126-.242a1.019 1.019 0 01-.5-.842l-.014-.38v-.19h.804zM141.035 30.335v.264c-.004.136.012.26.048.379.08.32.342.48.782.48.167 0 .316-.023.45-.07.302-.091.457-.32.47-.675a.661.661 0 00-.302-.568 4.268 4.268 0 00-.503-.274l-.583-.265a3.38 3.38 0 01-.58-.317c-.322-.226-.484-.547-.484-.968.006-.462.187-.787.543-.98.265-.146.628-.22 1.095-.224.566 0 .972.106 1.224.32.198.173.3.512.3 1.016v.094h-.804v-.113l-.019-.245c-.048-.368-.288-.548-.716-.54-.538 0-.813.218-.818.652 0 .276.168.5.509.674.208.11.447.219.71.33.267.11.482.216.647.316.388.237.584.592.584 1.07-.01.863-.581 1.298-1.718 1.298-.488.006-.863-.076-1.126-.242a1.02 1.02 0 01-.501-.842l-.015-.38v-.19h.807z"/></g></svg>