<svg xmlns="http://www.w3.org/2000/svg" viewBox="0 0 65 30"><path d="M55.9 11.6c-3.2.2-1.8 4.4 1.8 4.2 3.5-.2 1.7-4.4-1.8-4.2z" fill="#f19021"/><path d="M54.6 9c-5.7 0-10.4 4.7-10.4 10.5S48.9 30 54.6 30 65 25.3 65 19.5 60.3 9 54.6 9zm0 19.8c-5.1 0-9.3-4.2-9.3-9.4s4.2-9.4 9.3-9.4c5.1 0 9.3 4.2 9.3 9.4s-4.2 9.4-9.3 9.4zM54.3 1.7c-2.5 1.9-2 4.8-2 4.8S50.7 2.4 48.7 0c-.3 3.2.7 7.4.7 7.4S48.1 4.8 45 4.6c2.6 1.5 3.6 4.2 3.8 4.9 1.5-.9 3.3-1.5 5.1-1.5-.2-.8-.9-3.6.4-6.3z" fill="#f19021"/><path d="M.9 20.5v2.2H0v-5.6h1.9c.6 0 1.1.2 1.5.5s.5.7.5 1.3c0 .5-.2 1-.5 1.3s-.8.5-1.4.5H.9v-.2zm2-1.8c0-.3-.1-.6-.3-.7-.2-.2-.5-.3-.9-.3H.8v2h.9c.8 0 1.2-.3 1.2-1zM7.6 22.6l-1.4-2.3h-.6v2.3h-.9V17h2c.6 0 1.1.2 1.5.5s.5.7.5 1.2c0 .4-.1.8-.4 1.1s-.6.5-1.1.5l1.5 2.3H7.6zm-2.1-2.9h1c.7 0 1.1-.3 1.1-1 0-.3-.1-.5-.3-.7-.2-.2-.5-.3-.8-.3h-1v2zM12.7 21.4h-2.4l-.4 1.2h-1L11 17h1l2.1 5.6h-1l-.4-1.2zm-.2-.7l-.9-2.6-.9 2.6h1.8zM18.7 17.4c.4.3.8.8.9 1.4h-1c-.1-.3-.3-.6-.6-.7-.3-.2-.6-.3-1-.3-.3 0-.7.1-.9.2-.3.2-.5.4-.7.7s-.2.7-.2 1.1c0 .4.1.8.2 1.1s.4.5.7.7c.3.2.7.3 1 .2.4 0 .9-.1 1.2-.4.3-.3.5-.7.6-1.2h-2.1v-.7h2.8v.9c-.1.4-.2.8-.4 1.1-.2.3-.5.6-.9.8s-.8.3-1.3.3-1-.1-1.4-.4c-.4-.2-.7-.6-1-1-.5-.9-.5-2 0-3 .2-.4.6-.8 1-1s.9-.4 1.4-.4c.7.2 1.3.3 1.7.6zM26.1 17.1v5.6h-.9v-4.2l-1.6 4.2h-.8l-1.6-4.2v4.2h-.9v-5.6h1.1l1.8 4.4 1.8-4.4h1.1zM30.5 21.4h-2.4l-.4 1.2h-1l2.1-5.6h1l2.1 5.6h-1l-.4-1.2zm-.2-.7l-.9-2.6-.9 2.6h1.8zM35.8 17v.7h-1.6v4.9h-.9v-4.9h-1.5V17h4zM37.2 17v5.6h-.9V17h.9zM42.3 17.5c.5.4.8.9.9 1.4h-1c-.1-.3-.3-.6-.6-.8-.3-.2-.7-.3-1.1-.3-.3 0-.6.1-.9.2-.3.2-.5.4-.6.7-.3.7-.3 1.5 0 2.1.1.3.4.5.6.7.3.2.6.3.9.2.4 0 .7-.1 1.1-.3.3-.2.5-.5.6-.8h1c-.1.6-.5 1.1-.9 1.4-.5.3-1 .5-1.7.5-.5 0-1-.1-1.4-.4-.4-.2-.7-.6-.9-1-.4-.9-.4-2 0-3 .2-.4.5-.8.9-1s.9-.4 1.4-.4c.7.2 1.3.4 1.7.8zM47.5 20.5v2.2h-.9v-5.6h1.9c.6 0 1.1.2 1.5.5.3.3.5.7.5 1.3 0 .5-.2 1-.5 1.3s-.8.5-1.4.5h-1.1v-.2zm2-1.8c0-.3-.1-.6-.3-.7-.2-.2-.5-.3-.9-.3h-.9v2h.9c.9 0 1.2-.3 1.2-1zM52 21.9h1.9v.7h-2.8V17h.9v4.9zM58.1 21.4h-2.4l-.4 1.2h-1l2.1-5.6h1l2.1 5.6h-1l-.4-1.2zm-.2-.7l-.9-2.6-.9 2.6h1.8zM63.1 17l-1.9 3.6v2.1h-.9v-2.1L58.4 17h1l1.3 2.6L62 17h1.1z" fill="#fff"/></svg>