<svg xmlns="http://www.w3.org/2000/svg" viewBox="0 0 146.667 16.25"><g fill="#fff"><path d="M.555.924h2.963c1.603 0 2.759.148 3.468.444a3.527 3.527 0 011.676 1.437c.409.662.614 1.455.614 2.38 0 1.024-.268 1.876-.803 2.555-.536.678-1.263 1.151-2.181 1.416-.539.154-1.52.23-2.943.23v6.217H.555V.924zm2.794 5.738h.888c.698 0 1.184-.05 1.457-.15s.487-.265.644-.496c.156-.23.235-.509.235-.836 0-.567-.22-.981-.659-1.242-.319-.193-.912-.29-1.776-.29h-.789v3.014zM11.91.924h2.804v9.492c0 .817.072 1.396.215 1.735.143.339.379.609.708.813.329.202.727.304 1.192.304.492 0 .916-.113 1.272-.339s.602-.514.739-.862c.136-.349.204-1.016.204-1.999V.924h2.804v8.751c0 1.477-.083 2.501-.25 3.073s-.484 1.124-.953 1.656c-.469.532-1.009.927-1.621 1.183s-1.324.384-2.136.384c-1.064 0-1.991-.244-2.779-.733s-1.352-1.101-1.691-1.836-.509-1.978-.509-3.727V.924h.001zM32.795 2.92l-2.069 1.826c-.727-1.011-1.466-1.517-2.219-1.517-.367 0-.667.098-.9.294-.233.196-.35.418-.35.664 0 .247.083.479.25.699.227.293.91.921 2.049 1.886 1.066.892 1.712 1.454 1.939 1.687.566.572.968 1.119 1.204 1.642.237.522.355 1.093.355 1.711 0 1.204-.417 2.199-1.249 2.983-.833.785-1.918 1.178-3.256 1.178-1.046 0-1.957-.256-2.732-.769-.776-.512-1.44-1.316-1.993-2.414l2.349-1.417c.706 1.297 1.519 1.945 2.438 1.945.479 0 .883-.14 1.209-.419.327-.279.49-.602.49-.968 0-.333-.123-.665-.37-.998s-.79-.842-1.629-1.527c-1.6-1.304-2.632-2.31-3.099-3.019-.467-.708-.7-1.415-.7-2.12 0-1.018.388-1.891 1.164-2.62.775-.728 1.733-1.092 2.872-1.092.732 0 1.43.169 2.093.509s1.381.958 2.154 1.856zM35.708.924h2.834v5.538h4.899V.924h2.824v14.678h-2.824V9.167h-4.899v6.436h-2.834V.924z"/></g><g fill="#fff"><path d="M67.249 3.319l-1.967 1.946c-1.245-1.317-2.697-1.976-4.354-1.976-1.445 0-2.655.479-3.63 1.437s-1.463 2.122-1.463 3.492c0 1.417.506 2.618 1.519 3.602 1.012.985 2.261 1.478 3.746 1.478.965 0 1.78-.203 2.442-.609.663-.405 1.197-1.041 1.603-1.905h-4.251V8.159h7.384l.02.619c0 1.284-.333 2.501-.998 3.652-.665 1.15-1.526 2.028-2.584 2.634-1.058.605-2.298.908-3.722.908-1.523 0-2.882-.331-4.076-.993-1.194-.661-2.139-1.604-2.834-2.828a7.896 7.896 0 01-1.043-3.962c0-1.942.642-3.632 1.926-5.069C56.49 1.411 58.472.556 60.914.556c1.277 0 2.471.236 3.583.708.936.399 1.854 1.084 2.752 2.055zM75.34.924h2.833l5.646 14.678h-2.903l-1.148-3.023h-5.99l-1.194 3.023h-2.903L75.34.924zm1.433 3.892l-1.969 5.039h3.927l-1.958-5.039zM87.402.924h2.722l3.402 10.238L96.96.924h2.721l2.463 14.678h-2.702l-1.574-9.27-3.118 9.27h-2.462l-3.091-9.27-1.611 9.27H84.86L87.402.924zM104.169.924h2.774v14.678h-2.774V.924zM110.097.924h2.68l6.281 9.659V.924h2.794v14.678h-2.688l-6.272-9.629v9.629h-2.794V.924h-.001zM138.755 3.319l-1.968 1.946c-1.245-1.317-2.696-1.976-4.354-1.976-1.445 0-2.655.479-3.631 1.437-.975.958-1.463 2.122-1.463 3.492 0 1.417.506 2.618 1.519 3.602 1.012.985 2.261 1.478 3.746 1.478.966 0 1.779-.203 2.442-.609.662-.405 1.197-1.041 1.604-1.905h-4.251V8.159h7.384l.02.619c0 1.284-.332 2.501-.997 3.652-.666 1.15-1.527 2.028-2.585 2.634s-2.298.908-3.722.908c-1.523 0-2.882-.331-4.076-.993-1.194-.661-2.139-1.604-2.834-2.828a7.896 7.896 0 01-1.043-3.962c0-1.942.643-3.632 1.926-5.069 1.523-1.709 3.506-2.564 5.947-2.564 1.277 0 2.472.236 3.582.708.937.399 1.855 1.084 2.754 2.055z"/></g><g fill="#fff"><path d="M140.501.918h1.843v.625h-.607v2.708h-.644V1.544h-.592V.918zM143.103.918h.618l.772 2.325.78-2.325h.617l.56 3.333h-.613l-.357-2.105-.709 2.105h-.559l-.702-2.105-.366 2.105h-.618l.577-3.333z"/></g></svg>