<svg xmlns="http://www.w3.org/2000/svg" viewBox="0 0 124 30"><g fill="#f48422"><path d="M67.4-.1h.7c.7.2 1.3.7 1.5 1.3s0 1.2-.3 1.7c-3.4 4.8-6.7 9.6-10.1 14.5-.5.7-1.5 1-2.2.7-.8-.3-1.3-1.2-1.2-2.1.1-.6.5-1 .8-1.5 3.1-4.4 6.2-8.9 9.3-13.3.3-.6.8-1.2 1.5-1.3zM3.4.8C4.7.1 6.2-.2 7.7.1c1.4.3 2.6 1 3.6 2 1.2 1.3 1.9 3 1.7 4.8-.1.5-.4 1-.8 1.3-.4.3-.9.3-1.4.2-.7-.1-1.2-.7-1.4-1.3-.1-.3-.1-.7-.1-1-.1-.7-.6-1.4-1.2-1.8-.9-.6-2-.6-2.9 0-.6.4-1 .9-1.2 1.5-.2.6-.1 1.2-.3 1.7-.4.8-1.3 1.2-2.1 1C.9 8.4.5 7.8.2 7.2V5.4c0 .1.1.2.1.2C.3 3.5 1.7 1.7 3.4.8zM17.1.4c.3-.3.8-.3 1.2-.4.5.1 1 .3 1.4.7.3.4.5.8.5 1.3v15.8c-.6-.4-1.3-.7-2-.6-.6 0-1.2.3-1.7.6V2c-.1-.7.1-1.3.6-1.6zM26.9.1c.5-.1 1.2-.1 1.6.2.5.3.9 1 .8 1.6v15.8c-.8-.6-1.8-.8-2.7-.6-.4.1-.7.4-1.1.5V2.4c0-.4 0-.8.1-1.2.3-.5.7-1 1.3-1.1zM34.3 0c.9-.3 1.9.3 2.2 1.1.1.3.1.6.1.9v22.6c0 1-.9 1.9-1.9 1.8-1 0-1.9-.9-1.8-1.8V1.8c0-.8.6-1.6 1.4-1.8zM43.8.6c2.2-1.1 4.9-.8 6.8.7 1.6 1.2 2.6 3.2 2.6 5.1 0 .3-.1.6-.2 1-.3.4-.7.9-1.2 1-1 .3-2-.3-2.3-1.3-.1-.6-.1-1.2-.4-1.8-.6-1.3-2.2-1.9-3.5-1.3-1 .4-1.7 1.4-1.7 2.5 0 .5-.2 1.1-.6 1.5-.8.8-2.2.6-2.8-.3-.4-.6-.4-1.3-.3-2 .3-2.2 1.7-4.1 3.6-5.1zM56.2.5c.7-.7 2-.7 2.7.1.3.4.5.8.5 1.3v6.6c-1 1.4-2 2.9-3 4.3l-.6.9v-.1h-.2V1.9c0-.5.3-1 .6-1.4zM76.1.1c1.2-.2 2.6-.1 3.7.4 2.1.9 3.7 3 3.9 5.3.1.6.1 1.2-.2 1.7-.4.7-1.3 1.1-2.1.8-.6-.1-1.1-.6-1.3-1.2-.2-.5 0-1-.2-1.5-.4-1.4-1.9-2.2-3.3-1.8-1 .2-1.8 1.1-2 2.1-.1.4 0 .9-.2 1.3-.3.8-1.3 1.3-2.2 1.1-.5-.1-.9-.4-1.1-.8-.4-.5-.3-1.2-.2-1.8.2-1.7 1.2-3.4 2.6-4.4.7-.6 1.6-1 2.6-1.2zM88.5 0c.4-.1.9 0 1.3 0h3.4c.8 0 1.7 0 2.5.3 2.2.7 3.9 2.8 4.3 5.1.2 1 .1 2 .1 3 0 .8-.1 1.7-.4 2.5-.6 1.8-1.9 3.3-3.6 4-.9.4-1.9.6-2.9.6h-4.4c-.5 0-1-.2-1.4-.6-.5-.5-.7-1.3-.4-1.9.2-.7 1-1.3 1.8-1.3h4.8c1.2 0 2.3-.9 2.6-2 .2-.9.1-1.8.1-2.7 0-.7-.1-1.3-.4-1.9-.5-.8-1.5-1.3-2.4-1.3h-4.7c-.9 0-1.7-.6-1.8-1.5-.2-1 .5-2.1 1.5-2.3zM103.8.1c.6-.1 1.2-.2 1.7.2s.9 1 .8 1.7v22.5c0 .8-.4 1.5-1.1 1.9-.4.2-.9.2-1.4.1-.8-.2-1.4-1-1.4-1.8V1.8c.2-.8.7-1.5 1.4-1.7zM110.6.1c.6-.1 1.3-.1 1.8.3s.7.9.9 1.5c3.5 7.3 6.9 14.5 10.4 21.9.2.4.2.9.2 1.3 0 .6-.5 1.1-1 1.3-.9.5-2.1.1-2.6-.9-3.5-7.3-7-14.5-10.4-21.9-.2-.5-.6-1-.6-1.6 0-.8.5-1.7 1.3-1.9zM120.2 1.8c0-1.2 1.3-2.1 2.4-1.7.7.2 1.2.8 1.4 1.6v20.2c-1.2-2.6-2.4-5.1-3.7-7.7-.2-.3-.1-.7-.1-1.1V1.8z"/><path d="M87 4.2c.5.3 1 .6 1.6.6h2.2v5.8c-1.2.1-2.7-.3-3.7.6H87v-7zM109.4 4.9c1.2 2.4 2.3 4.8 3.4 7.1.1.3.3.6.3.9v11.6c0 .7-.4 1.5-1.1 1.8-.8.4-1.9.1-2.4-.7-.2-.3-.3-.7-.3-1.1.1-6.4 0-13 .1-19.6zM74.8 8.7c.3-.3.5-.7.7-1.1.8 1 1.4 2 2.2 3 1.3 1.9 2.6 3.8 4 5.7.2.2.4.5.5.8-.8 0-1.6.2-2.1.7-.5.4-.7.9-.9 1.4-1.3-1.8-2.6-3.7-3.9-5.5-.9-1.3-1.9-2.6-2.8-4 .8-.1 1.7-.4 2.3-1zM0 8.9c.5.4 1.2.7 1.9.7s1.3-.3 1.9-.6v8.7c-.6-.3-1.2-.7-1.9-.6-.7 0-1.3.3-1.9.7V8.9zM11.1 9.6c.7 0 1.4-.3 1.9-.7v8.7c-.8-.5-1.7-.8-2.6-.5-.4.1-.8.4-1.2.5V8.9c.6.4 1.2.7 1.9.7zM40.1 8.9c.5.3 1 .6 1.5.6.8.1 1.6-.1 2.2-.6.1.3.1.5.1.8v5.6c.1.7 0 1.5 0 2.2-.2.1-.3-.1-.4-.1-.6-.4-1.4-.5-2.1-.3-.5.1-.9.4-1.3.6.1-2.9 0-5.9 0-8.8zM63.9 12.5c.1-.2.2.1.2.2l5.1 10.8c.1.2.2.5.3.8.1.6-.1 1.3-.6 1.7-.5.5-1.2.6-1.9.5-.5-.2-.9-.5-1.1-1-1.4-3-2.8-6-4.3-9-.1-.2-.3-.4-.1-.7.9-1.1 1.6-2.2 2.4-3.3zM87 16c.5.3 1.1.6 1.7.6h2.1c.1 2.6 0 5.3 0 7.9 0 .9-.6 1.7-1.5 1.9-.4 0-.8.1-1.2-.1-.7-.3-1.1-1-1.1-1.8V16zM1.1 18.3c.6-.3 1.5-.2 2 .2s.7 1 .7 1.6c0 1.1.8 2.1 1.9 2.5 1 .4 2.3 0 3-.9.5-.5.6-1.2.6-1.9.1-1 1-1.8 1.9-1.7 1 0 1.8.9 1.9 1.8 0 1.3-.4 2.7-1.1 3.7-.2.3-.4.5-.6.8.3.7.7 1.3 1 1.9.3.5.7 1.1.7 1.7.1.9-.7 1.7-1.5 1.9h-.7c-.6-.1-1.2-.6-1.4-1.2-.4-.8-.9-1.6-1.3-2.4-1.5.3-3.1.2-4.5-.6-2-1-3.4-3.1-3.6-5.3v-.8c.1-.5.4-1.1 1-1.3zM17.8 18.2c.6-.1 1.2 0 1.7.4s.6 1 .7 1.6c0 1.1.9 2.1 1.9 2.4 1.2.4 2.6-.2 3.2-1.4.2-.4.3-.9.3-1.3 0-.8.6-1.6 1.4-1.8 1.1-.3 2.3.6 2.3 1.7.1 1.7-.6 3.4-1.7 4.6-1.2 1.3-3 2.2-4.8 2.1-1.6 0-3.1-.6-4.3-1.6-1.5-1.2-2.3-3.1-2.3-5.1.2-.7.8-1.5 1.6-1.6zM41.6 18.2c.7-.2 1.6.1 2 .8.3.4.4.9.4 1.4.1 1.6 1.9 2.8 3.4 2.3 1-.2 1.8-1 2-2 .1-.5 0-1 .3-1.5.3-.7 1-1.1 1.8-1.1.7 0 1.3.4 1.6 1 .2.4.2.9.2 1.4-.2 1.9-1.2 3.8-2.8 4.9-1.1.7-2.3 1.1-3.6 1.1-1.8 0-3.5-.7-4.7-2-1.2-1.2-1.8-2.9-1.8-4.5-.3-.8.4-1.7 1.2-1.8z"/><path d="M72.3 18.1c.9-.2 1.8.3 2.1 1.1.2.5.1 1.1.3 1.7.4 1.3 2 2.2 3.4 1.7.8-.2 1.5-.9 1.8-1.8.1-.4.1-.7.2-1.1.1-.7.6-1.4 1.4-1.6.6-.2 1.4 0 1.8.4.4.3.6.8.6 1.3 0 1.7-.6 3.3-1.7 4.5-.9 1.1-2.3 1.8-3.7 2-1.6.3-3.3 0-4.6-.9-1.9-1.2-3.1-3.4-3-5.7 0-.7.6-1.4 1.4-1.6zM55.7 18.7c.7.5 1.6.8 2.5.6.5-.1.9-.4 1.3-.6v5.8c0 .7-.4 1.4-1 1.7-.8.4-1.8.2-2.4-.5-.3-.4-.5-.8-.4-1.3 0-1.8-.1-3.7 0-5.7z"/></g></svg>