<svg xmlns="http://www.w3.org/2000/svg" viewBox="0 0 208.632 38.796"><g fill-rule="evenodd"><path data-name="Logo Type White" d="M202.821 21.214l5.81 9.41-6.623.006-5.479-8.836h-.06v8.836H190.5V7.718h8.911a8.962 8.962 0 015.8 1.7 6.409 6.409 0 012.191 5.3 6.98 6.98 0 01-1.325 4.264 4.711 4.711 0 01-3.256 2.232zm-1.98-7.586a2.35 2.35 0 00-.946-.884 4.208 4.208 0 00-1.309-.411 10.437 10.437 0 00-1.538-.106h-.578v5.728h.578a10.37 10.37 0 001.538-.106 4.208 4.208 0 001.309-.411 2.326 2.326 0 00.946-.884 3.252 3.252 0 000-2.926zm-27.086-5.909h13.06v5.073h-7.068v3.689h7.068v5.227h-7.068v3.689h7.068v5.227h-13.06zm-86.346 5.073h-7.068v3.689h7.068v5.227h-7.068v3.689h7.068v5.227h-13.06V7.719h13.06zM65.268 30.63l-5.479-8.836h-.06v8.836H53.76V7.718h8.912a8.967 8.967 0 015.8 1.7 6.41 6.41 0 012.191 5.3 6.986 6.986 0 01-1.325 4.264 5.624 5.624 0 01-3.7 2.225l6.254 9.41zm-1.169-17a2.346 2.346 0 00-.946-.884 4.19 4.19 0 00-1.308-.411 10.459 10.459 0 00-1.539-.106h-.577v5.728h.577a10.392 10.392 0 001.539-.106 4.191 4.191 0 001.308-.411 2.314 2.314 0 00.946-.884 3.244 3.244 0 000-2.926zm38.981-5.043a10.6 10.6 0 013.458 2.445 11.421 11.421 0 012.32 3.677 12.37 12.37 0 01-.013 8.933 11.426 11.426 0 01-2.337 3.66 10.805 10.805 0 01-3.458 2.445 10.017 10.017 0 01-4.136.882h-7.819V7.72h7.819a10.238 10.238 0 014.166.864zm-6.47 4.178v12.82h1.237a7.2 7.2 0 002.362-.378 5.252 5.252 0 003.261-3.19 7.781 7.781 0 00.479-2.841 6.461 6.461 0 00-1.658-4.709 5.858 5.858 0 00-4.391-1.7zm37.967 0h-4.932v17.864h-5.964V12.765h-4.933V7.721h15.829zm9.608 17.869h-5.97V7.655h5.97zm6.805-19.75a10.285 10.285 0 013.665-2.35 13.065 13.065 0 014.67-.812 10.8 10.8 0 015.781 1.51 9.884 9.884 0 013.809 4.5l-5.246 2.221a5.49 5.49 0 00-1.779-2.506 4.476 4.476 0 00-2.819-.911 4.8 4.8 0 00-2.341.569 5.168 5.168 0 00-1.75 1.553 7.439 7.439 0 00-1.072 2.193 8.5 8.5 0 000 4.929 7.142 7.142 0 001.086 2.179 5.193 5.193 0 001.778 1.524 5.037 5.037 0 002.382.555 4.774 4.774 0 003.074-.968 3.823 3.823 0 001.382-2.764h-4.511V17.92h10.969a25.761 25.761 0 01-.464 4.728 10.02 10.02 0 01-1.708 3.762 9.46 9.46 0 01-3.776 3.176 11.8 11.8 0 01-4.992 1.04 12.518 12.518 0 01-4.569-.812 10.445 10.445 0 01-3.61-2.322 10.223 10.223 0 01-2.342-3.6 12.534 12.534 0 01-.818-4.6 12.96 12.96 0 01.831-4.729 10.577 10.577 0 012.37-3.682z" fill="#f6f6f6"/><path data-name="Logo Symbol Red on Black" d="M28.986 12.725c-.021.624.029 1.322-.945 1.641-.577.189-1.286-.6-1.324-1.15a2.462 2.462 0 011.135-.839c.906-.342 1.121-.407 1.134.348zm-16.732 1.641c-.974-.32-.924-1.017-.945-1.641.013-.755.227-.69 1.134-.347a2.458 2.458 0 011.134.839c-.039.553-.747 1.339-1.324 1.15zm22.063 18.251a5.625 5.625 0 001.6-1.14c2.273-2.427 2.715-5.223 2.987-8.459.071-.843.056-1.693.1-2.558.006-.133.027-.733.088-.732a2.211 2.211 0 01.418.669 9.067 9.067 0 01.527 2.342 17.6 17.6 0 01.134 4.762 4.341 4.341 0 01-.54 1.567c-1.421 2.38-2.992 4.587-4.493 6.929-.124.193-.215-.178-.3-.241l-.12-.121c-.341-.184-.473-.206-.637-.094-.053.1-.1.2-.15.3a47.713 47.713 0 01-1.427 2.824.259.259 0 01-.484-.128c0-.893.006-1.786-.006-2.679-.007-.557.006-1.237-.766-1.236-.753 0-.776.658-.785 1.229-.008.521 0 1.043 0 1.643a.261.261 0 01-.4.224 8.2 8.2 0 00-2.077-1.136 3.882 3.882 0 00-3.635.4l.162-.147a3.8 3.8 0 013.364-.9 3.755 3.755 0 001 .08.258.258 0 00.228-.348c-.466-1.239-1.922-5.78 1.071-7.322a.264.264 0 00.146-.2c.105-.834 1.625-4.439-2.506-6.791-.648.576-1.447 1.921-2.466 2.782 1.8.387 2.75-.7 3.621-1.449-.357 2.1-1.992 2.25-3.295 3.013 1.122-.482 2.239.172 3.572-.532-.964 1.846-2.873.935-4.046 1.909 1.125.727 2.164.33 3.195.218a2.549 2.549 0 01.875.033 5.732 5.732 0 01-.839.964 4 4 0 01-1.333.66 2.75 2.75 0 01-1.513.041c-1.474-.461-2.921-1.01-4.359-1.576a1.071 1.071 0 01-.57-.68c-.09-.468.018-.969-.027-1.451a1.131 1.131 0 01.9-1.319 6.278 6.278 0 003.376-2.326 3.925 3.925 0 00.591-1.336.25.25 0 010-.027 3.663 3.663 0 00-.227-1.293 1.81 1.81 0 01.025-1l.025-.107v-.015h.006l.293-1.259a1.677 1.677 0 01.659-.964l.089-.054a.734.734 0 01.112-.074 10.03 10.03 0 011.721-.705 7.421 7.421 0 004.367-4.71 4.374 4.374 0 00.179-2.229c-.2.407-.509 1.223-.7 1.634a1.511 1.511 0 01-1.585.993c-1.915.014-3.76.337-4.808 2.333a4.9 4.9 0 01-2.284 2.475 4.76 4.76 0 01.261-1.705c-.89-.366-.539-.884-.064-1.4.647-.7 1.3-1.392 1.986-2.123a3.383 3.383 0 01-1.537-.854h3.744c0-.038.006-.075.01-.113a10.628 10.628 0 01-3.265-1.169c1.739-1.073 5.354-.54 5.964-.735.007-.145-.5-.253-1.019-.422-1.2-.31-1.651-.407-2.848-.731a15.376 15.376 0 01-3.412-1.383h4.916a14.637 14.637 0 00-5.424-1.8 29.52 29.52 0 00-2.522-.056l-.005-.315v.315a29.514 29.514 0 00-2.522.056 14.642 14.642 0 00-5.425 1.8h4.916a15.369 15.369 0 01-3.413 1.383c-1.2.323-1.648.42-2.847.731-.52.169-1.026.277-1.019.422.61.2 4.225-.337 5.964.735a10.622 10.622 0 01-3.264 1.169c0 .038.006.075.01.113h3.744a3.378 3.378 0 01-1.536.854c.685.731 1.34 1.423 1.986 2.123.475.514.826 1.032-.064 1.4a4.752 4.752 0 01.262 1.705 4.9 4.9 0 01-2.285-2.475c-1.047-2-2.893-2.32-4.808-2.333a1.511 1.511 0 01-1.585-.993c-.19-.411-.5-1.226-.7-1.634a4.364 4.364 0 00.18 2.229 7.417 7.417 0 004.367 4.71 10.037 10.037 0 011.72.705.734.734 0 01.112.074c.029.017.059.034.089.054a1.677 1.677 0 01.659.964l.293 1.259h.005a.077.077 0 010 .015l.025.107a1.815 1.815 0 01.024 1 3.676 3.676 0 00-.227 1.293.084.084 0 010 .027 3.926 3.926 0 00.592 1.336 6.271 6.271 0 003.375 2.326 1.131 1.131 0 01.9 1.319c-.044.481.063.983-.027 1.451a1.071 1.071 0 01-.57.68c-1.438.566-2.886 1.115-4.359 1.576a2.75 2.75 0 01-1.513-.04 4.007 4.007 0 01-1.333-.66 5.707 5.707 0 01-.838-.964 2.542 2.542 0 01.874-.033c1.032.112 2.069.509 3.2-.218-1.174-.974-3.083-.063-4.046-1.909 1.333.7 2.45.05 3.571.532-1.3-.763-2.938-.915-3.295-3.013.872.748 1.825 1.836 3.622 1.449-1.019-.861-1.818-2.206-2.467-2.782-4.131 2.352-2.612 5.958-2.506 6.791a.263.263 0 00.146.2c2.993 1.542 1.536 6.083 1.07 7.322a.262.262 0 00.026.232.259.259 0 00.2.117 3.758 3.758 0 001-.08 3.8 3.8 0 013.364.9l.163.147a3.881 3.881 0 00-3.634-.4 8.179 8.179 0 00-2.078 1.136.261.261 0 01-.4-.224v-1.643c-.009-.572-.032-1.227-.785-1.229-.772 0-.759.679-.767 1.236-.012.893-.008 1.786-.006 2.679a.259.259 0 01-.484.128 48.01 48.01 0 01-1.427-2.824c-.045-.1-.1-.2-.15-.3-.164-.113-.3-.091-.637.094l-.12.121c-.084.063-.176.434-.3.241-1.5-2.343-3.073-4.549-4.493-6.929a4.321 4.321 0 01-.54-1.567 17.557 17.557 0 01.134-4.762 9.047 9.047 0 01.527-2.342 2.2 2.2 0 01.417-.669c.061 0 .082.6.088.732.044.865.029 1.715.1 2.558.272 3.236.714 6.032 2.987 8.459a5.629 5.629 0 001.6 1.141.26.26 0 00.33-.355c-.693-1.411-1.441-2.8-2-4.263-.569-1.491-.95-3.056-1.387-4.6a.258.258 0 01.328-.318c.324.112.758.289 1.1.421a.259.259 0 00.341-.314c-.433-1.49-1.84-5.849-1.84-5.849.085.1.908 1.3.966 1.407a24.994 24.994 0 011.735 3.326c.235.608.427 1.047.531 1.277.047.1.065.219-.021.292-1.168.99-.223 2.878.272 3.466a7.215 7.215 0 011.442 2.822c.07.212.161.515.261.834a.258.258 0 00.5-.095c-.088-1.333-.323-3.142-.763-3.556-.678-.638-.535-2.837.225-3.229.707-.364.866-.751.509-1.372a.264.264 0 01.094-.363l3.252-1.861a.26.26 0 00-.087-.483 4.453 4.453 0 00-3.145.925 1.43 1.43 0 01-2.093-.8 3.951 3.951 0 01-.172-.507c-.038-.141.09-.26.23-.3 1.6-.4 1.84-.482 1.92-.967a.26.26 0 00-.254-.3 3.166 3.166 0 01-1.647-.2 2.093 2.093 0 01-.576-1.157.26.26 0 01.35-.311c.564.24.718.232 1.028-.006a.266.266 0 00.043-.379 1.518 1.518 0 00-.235-.239c-1.173-.915-2.975-5.969-2.915-7.461A3.4 3.4 0 003.301 9.62c-1.239-.506-2.184-.665-2.008-2.412l1.372.71s.072-.531-.664-1.146C.423 5.453.184 3.699.134 1.793A1.679 1.679 0 012.68.214c3.063 1.44 7.284 2.89 10.769 2.443l.114-.024.011-.006-.008.005a34 34 0 016.589-.7h.019a33.995 33.995 0 016.589.7l-.008-.005.01.006.115.024c3.484.447 7.7-1 10.768-2.443a1.679 1.679 0 012.547 1.579c-.05 1.906-.289 3.661-1.868 4.979-.736.615-.663 1.146-.663 1.146l1.372-.71c.176 1.747-.77 1.906-2.008 2.412a3.4 3.4 0 00-1.018-1.515c.06 1.492-1.741 6.546-2.914 7.461a1.552 1.552 0 00-.236.239.262.262 0 00-.059.2.265.265 0 00.1.18c.31.238.463.246 1.029.006a.259.259 0 01.349.311 2.1 2.1 0 01-.575 1.157 3.169 3.169 0 01-1.648.2.261.261 0 00-.254.3c.08.485.316.566 1.919.967.14.035.268.155.23.3a3.951 3.951 0 01-.172.507 1.431 1.431 0 01-2.093.8 4.452 4.452 0 00-3.145-.925.26.26 0 00-.086.483l3.252 1.861a.265.265 0 01.094.363c-.357.622-.2 1.009.508 1.372.761.391.9 2.591.226 3.229-.44.414-.675 2.224-.764 3.556a.258.258 0 00.5.095c.1-.319.191-.621.261-.834a7.234 7.234 0 011.442-2.822c.5-.588 1.441-2.476.273-3.466a.236.236 0 01-.022-.292c.1-.23.3-.669.531-1.277a25.167 25.167 0 011.735-3.326 33.37 33.37 0 01.966-1.407s-1.406 4.359-1.839 5.849a.259.259 0 00.34.314c.342-.132.776-.309 1.1-.421a.257.257 0 01.328.318c-.437 1.542-.817 3.107-1.387 4.6-.56 1.462-1.308 2.852-2 4.263a.259.259 0 00.33.355zM12.944 21.102l-.143.073c.052-.025.101-.048.144-.073zM7.074 2.059q.406.1.781.182a5.607 5.607 0 00-.78-.182zm-.341.372c-3.611-.283-2.942 2.38-2.242 3.962l.583.965a.483.483 0 01.083.13c0 .009.008.018.011.027.9 2.123 1.648 6.638 5.98 8.369q-.249-.144-.495-.319a12.147 12.147 0 01-3.006-3.821c-1.934-3.891-1.427-6.331-1.662-7.3.374.13 1.7.414 1.96.506.025-.06-2.327-1.08-3-1.434a2.476 2.476 0 01.98-.353c1.526-.158 2.1.326 3.088.467a5.934 5.934 0 001.971-.154zm20.616 18.672c.043.025.092.049.143.073zm5.09-18.861a56.8 56.8 0 00.781-.182 5.581 5.581 0 00-.781.181zm2.686 5.275c0-.009.008-.018.012-.027a.472.472 0 01.083-.13l.582-.965c.7-1.582 1.369-4.245-2.241-3.962l-4.254 1.043a5.935 5.935 0 001.971.154c.988-.142 1.562-.625 3.088-.467a2.478 2.478 0 01.98.353c-.671.354-3.023 1.374-3 1.434.263-.091 1.587-.376 1.96-.506-.236.974.271 3.413-1.663 7.3a12.14 12.14 0 01-3.006 3.821 6.172 6.172 0 01-.495.319c4.335-1.734 5.083-6.244 5.983-8.368zM20.137 21.342c-.519 0-1.08 0-1.8-.013a4.753 4.753 0 01-1.907-.368 1.048 1.048 0 01-.43-1.052c.037-.545.746-.93.746-.93-.026 1.275 1.08 1.617 3.389 1.637h.021c2.309-.021 3.415-.362 3.389-1.637 0 0 .708.385.745.93a1.049 1.049 0 01-.431 1.052 4.751 4.751 0 01-1.907.368c-.717.013-1.278.017-1.8.013l-.01-.057zm.01 13.659c.068 1.682-2.822 1.827-5.263.365-.138-.52.13-1.415-.153-1.611-.421-.291-1.091.093-1.515.363s-.7.789-1.116 1.113c.18-2.6 2.772-4.958 6.757-5.18.437-.024.88-.053 1.291-.051s.854.027 1.291.051c3.984.221 6.577 2.582 6.757 5.18-.42-.324-.69-.842-1.116-1.113s-1.095-.653-1.515-.363c-.283.2-.016 1.091-.153 1.611-2.443 1.462-5.333 1.317-5.265-.365z" fill="#d71920"/></g></svg>