<svg xmlns="http://www.w3.org/2000/svg" viewBox="0 0 334.345 104.646"><g fill="#fff"><path d="M32.26 0H0v59.955h13.757V35.913h12.14l13.67 24.042h15.321L39.802 35.559C54.15 35.56 59.92 0 32.26 0zm.236 23.774h-18.62V12.106h18.62c7.779 0 7.779 11.668 0 11.668zM70.11 29.977c0 16.556 11.73 29.978 28.286 29.978h21.586V49.63H98.396c-9.297-.164-14.699-6.706-15.98-15.457h37.566V24.047H82.724c1.709-7.904 6.995-13.691 15.672-13.844v-.005h22.586V0H98.396C81.84 0 70.11 13.421 70.11 29.977zM152.26 32.64V0h-13.546V42.9c0 9.42 7.635 17.055 17.055 17.055.545 0 1.082-.033 1.615-.084v.084h22.426V47.873h-13.643c-12.188 0-13.906-1.846-13.906-15.232zM219.28.144l-26.819 59.81h15.446l4.638-13.622h24.97l6.092 13.696h15.363L232.871 0 219.28.144zm-2.552 34.068l8.985-20.63 8.894 20.677-17.88-.047z"/><circle cx="325.302" cy="9.043" r="9.043"/><circle cx="279.703" cy="9.043" r="9.043"/><circle cx="279.703" cy="50.912" r="9.043"/><circle transform="rotate(-10.901 324.845 50.912)" cx="324.845" cy="50.912" r="9.043"/><circle transform="rotate(-58.283 302.108 29.977)" cx="302.108" cy="29.977" r="9.043"/><g><path d="M18.847 103.463c-1.248.448-3.712 1.183-6.624 1.183-3.264 0-5.952-.832-8.063-2.847-1.856-1.792-3.008-4.672-3.008-8.032.032-6.431 4.447-11.134 11.679-11.134 2.496 0 4.448.544 5.375.99l-.671 2.273c-1.152-.512-2.592-.928-4.768-.928-5.248 0-8.671 3.264-8.671 8.671 0 5.472 3.295 8.704 8.319 8.704 1.824 0 3.072-.256 3.712-.577v-6.43h-4.384v-2.24h7.104v10.367zM70.111 97.64l-2.24 6.783h-2.88l7.328-21.567h3.36l7.36 21.567h-2.976l-2.304-6.784H70.11zm7.072-2.176l-2.112-6.208c-.48-1.409-.8-2.688-1.12-3.936h-.064a64.957 64.957 0 01-1.088 3.903l-2.112 6.24h6.496zM147.774 94.951c-.16-3.008-.352-6.623-.32-9.31h-.096c-.736 2.527-1.632 5.214-2.72 8.19l-3.807 10.464h-2.112l-3.488-10.272c-1.024-3.04-1.887-5.823-2.496-8.383h-.064a289.92 289.92 0 01-.416 9.536l-.575 9.247h-2.656l1.504-21.567h3.551l3.68 10.432c.896 2.655 1.632 5.023 2.176 7.263h.096c.544-2.176 1.312-4.543 2.272-7.263l3.84-10.432h3.551l1.344 21.567h-2.72l-.544-9.472zM201.631 82.856v21.567h-2.784V82.856h2.784zM250.015 104.423V82.856h3.04l6.911 10.911c1.6 2.529 2.848 4.8 3.872 7.008l.064-.032c-.256-2.88-.32-5.504-.32-8.863v-9.024h2.624v21.567h-2.816l-6.848-10.944c-1.504-2.4-2.943-4.863-4.03-7.199l-.097.032c.16 2.72.224 5.312.224 8.896v9.215h-2.624zM331.005 103.463c-1.248.448-3.712 1.183-6.624 1.183-3.263 0-5.95-.832-8.062-2.847-1.857-1.792-3.008-4.672-3.008-8.032.031-6.431 4.447-11.134 11.679-11.134 2.496 0 4.447.544 5.376.99l-.672 2.273c-1.153-.512-2.592-.928-4.769-.928-5.247 0-8.67 3.264-8.67 8.671 0 5.472 3.295 8.704 8.319 8.704 1.824 0 3.072-.256 3.712-.577v-6.43h-4.384v-2.24h7.103v10.367z"/></g></g></svg>