<svg xmlns="http://www.w3.org/2000/svg" viewBox="0 0 190 30"><linearGradient id="a" gradientUnits="userSpaceOnUse" x1="0" y1="-731" x2="28.7" y2="-731" gradientTransform="matrix(1 0 0 -1 0 -716)"><stop offset="0" stop-color="#2dc0d5"/><stop offset="1" stop-color="#9e4796"/></linearGradient><path d="M28.7 10.8S24.1 0 14.5 0H0v15.5c0 1.6 2 4 3.9 4h16.3l-.2 2H7.2C2 21.5 0 19.2 0 19.2S4.3 30 15.4 30h13.3V15c0-1.7-1-4.3-4.7-4.3H8.5V8.3h13.7c3.3.1 6.5 2.5 6.5 2.5z" fill="url(#a)"/><g fill="#fff"><path d="M72.2 4.1h.7c0 .8.6 2.4-.7 2.3V4.1zM36.3 5.1c1.8-1.1 4.1-1.1 6.1-1 1.7.2 3.6.7 4.7 2.2.7.9.8 2 .9 3h-.8c.1-1.9-1.2-3.6-2.9-4.1-2.1-.5-4.2-.5-6.3 0-1.4.3-2.6 1.5-2.7 3-.1 1.3.7 2.5 1.8 3 3 1.4 6.6 1.1 9.5 2.8 2.3 1.3 2.4 5.2.1 6.5-2.6 1.6-6 1.7-8.9.8-1.8-.5-3.3-1.9-3.7-3.8-.1-.7-.5-2.1.7-1.9-.3 1.9.7 3.8 2.4 4.7 1.8 1 3.9.8 5.9.8 1.8-.2 3.9-1 4.4-2.9.5-1.7-.5-3.5-2.1-3.9-2.8-.9-5.7-1.2-8.4-2.2-1.3-.6-2.5-1.9-2.4-3.4-.2-1.5.5-2.9 1.7-3.6zM189.2 4.2l.6.3c.1 5.1 0 10.1 0 15.2 0 .6.1 1.3.2 1.9h-.8c0-5.8-.1-11.6 0-17.4zM80.2 11l.1-.1c1.6-2.4 5.2-2.6 7.5-1.3 1.1.7 1.9 1.9 1.9 3.2v8.4c0 .2-.2.4-.4.4h-.1c-.2 0-.4-.2-.4-.4v-7.7c0-1-.2-2-.9-2.7-1.1-1.3-2.9-1.4-4.5-1.2-2.1.3-3.7 2.4-3.7 4.6v7c0 .2-.2.4-.5.4-.2 0-.3-.2-.3-.4V10.3c.1-.5-.1-1.8.7-1.2v2.1c.3 0 .5-.1.6-.2zM100.8 8.9c1.4-.2 2.9.2 4.2.8 3.3 2 3.8 7 1.5 10-2.6 3.1-8.2 3-10.3-.6-1.6-2.9-1.3-7.2 1.5-9.1.9-.7 2-1 3.1-1.1m-1.5 1c-3.4 1.3-4.2 6.2-2.3 9.1 1.7 2.6 5.5 2.9 7.9 1.2 3-2.3 3-7.7-.2-9.8-1.6-1-3.6-1.1-5.4-.5zM139.7 9.7c2.5-1.4 5.9-1.1 8 1 1.2 1.3 1.3 3.1 1.6 4.8-3.8.1-7.7 0-11.5.1-.5 2.3 1.2 5.2 3.7 5.4 2.1.5 4.8-.1 6-2.1.4-.4.5-1.4 1.4-.9-1.3 3.9-6.5 4.8-9.6 2.8-1.7-1.1-2.2-3.2-2.3-5.1-.3-2.3.6-4.8 2.7-6m.5.5c-1.6.9-2.5 2.8-2.6 4.7h10.8c-.2-1.6-.6-3.3-1.9-4.2-1.9-1.4-4.4-1.5-6.3-.5zM155.4 11.4c1.5-2.9 5.5-3.2 8-1.6 1 .7 1.6 1.8 1.6 3 .1 2.9 0 5.9 0 8.8h-.9v-8.7c0-1.8-1.8-3.2-3.4-3.2-2.5-.5-5.2 1.4-5.5 4 0 2.7-.1 5.3 0 8h-.8c.1-4.1 0-8.3 0-12.4.2 0 .6-.1.8-.1.1.6 0 1.4.2 2.2zM171.8 11.2c1.7-2.5 5.4-3 8-1.6 1 .5 1.4 1.5 2.3 2.1 0-1-.1-1.9-.1-2.9h.7v12.8c-.2 0-.6 0-.8-.1.1-.9.2-1.8.1-2.7-.8.8-1.4 1.8-2.4 2.3-2.5 1.3-6.1.9-7.8-1.6-1.6-2.4-1.6-5.9 0-8.3m2.9-1.3c-3.4 1.3-4.2 6-2.5 9 1.5 2.8 5.6 3.1 7.9 1.1 2.5-2.1 2.6-6.3.6-8.7-1.5-1.8-4-2.1-6-1.4zM58 9.3c2.3-1 5.2-.5 6.9 1.4 1.9 2.3 2 5.9.6 8.5-1.6 2.8-5.5 3.5-8.2 2.1-1-.5-1.6-1.4-2.2-2.2V26c-.2 0-.6.1-.8.1V9.2c.2 0 .6 0 .8.1 0 .9-.1 1.7-.1 2.6 1-1 1.7-2.2 3-2.6m1 .4c-4.1.9-5 6.7-2.7 9.8 1.3 1.7 3.6 2 5.6 1.6 2.1-.4 3.6-2.5 3.8-4.6.3-2-.1-4.4-1.7-5.8-1.4-1.2-3.3-1.3-5-1zM116.7 9.2c2.1-.8 5-.2 5.8 2.1 1.4-2.5 4.9-3.2 7.3-1.7 1.1.7 1.5 2 1.5 3.3v8.8c-.2 0-.6-.1-.8-.1v-8.7c0-1.6-1.3-3.2-2.9-3.2-2.1-.4-4.6 1-4.9 3.3-.1 2.9 0 5.8 0 8.7h-.8v-8.8c0-1.3-.8-2.7-2.1-3.1-1.4-.4-3-.3-4.1.6-1.2 1-1.7 2.7-1.7 4.2v7h-.7V9.1h.7c0 .7-.1 1.3-.1 2 1.1-.5 1.6-1.7 2.8-1.9zM72.1 9.1h.9c-.1 4.2 0 8.4 0 12.5-.2-.1-.6-.1-.8-.2-.1-4.1.1-8.2-.1-12.3z"/></g></svg>