<svg xmlns="http://www.w3.org/2000/svg" viewBox="0 0 1255.059 342.234"><g fill="#fff"><path d="M407.136 148.282l-76.964 2.397a4.94 4.94 0 00-3.494 1.625 4.947 4.947 0 00-1.272 3.643l1.405 20.93c.18 2.625 2.38 4.653 4.987 4.609l20.92-.257 4.713 98.437a5.03 5.03 0 001.643 3.459 4.948 4.948 0 003.614 1.234l23.63-1.592a4.946 4.946 0 004.599-5.067l-2.743-96.958 20.702-.268c1.341 0 2.626-.598 3.54-1.58.93-1.001 1.4-2.33 1.302-3.688l-1.492-22.343a4.95 4.95 0 00-5.09-4.581zm89.635 6.397l-23.273-1.285c-2.678-.045-4.835 2.04-4.977 4.677l-.358 51.338-10.13 2.185-2.56-58.228a4.934 4.934 0 00-4.873-4.715l-22.929.575c-1.34 0-2.62.53-3.556 1.47a4.951 4.951 0 00-1.439 3.553l4.193 129.484c.037 2.654 2.196 4.822 4.883 4.85l22.927-.581c1.343 0 2.6-.503 3.534-1.425a4.954 4.954 0 001.444-3.525l-2.509-43.367 9.004.632 1.589 38.807a4.873 4.873 0 001.35 3.598 4.932 4.932 0 003.525 1.542l23.949 1.665h.293c2.536-.128 4.61-2.196 4.687-4.766l.106-121.394a4.992 4.992 0 00-1.371-3.581 4.905 4.905 0 00-3.509-1.509zm86.289-10.895l-21.18 1.615c-2.554.184-4.537 2.313-4.56 4.883 0 0 .207 81.012-.092 91.633-.184 6.28.657 16.839-6.207 17.152-4.724.212-6.403-6.738-6.495-16.538-.103-11.017.813-86.386.821-87.168.028-2.542-1.874-4.693-4.402-4.95l-24.047-2.57c-1.405-.157-2.79.318-3.838 1.268a4.903 4.903 0 00-1.606 3.698s.91 94.94.983 98.293c.274 12.302 9.775 34.416 36.472 33.661 29.95-.81 35.358-18.632 37.198-39.438.769-8.66 2.185-87.789 2.263-96.566a4.913 4.913 0 00-1.572-3.643 4.93 4.93 0 00-3.738-1.33zm93.08 5.185l-21.96 1.056a5.06 5.06 0 00-3.453 1.654 5.03 5.03 0 00-1.226 3.626l3.637 60.826-22.8-62.838a4.952 4.952 0 00-5.152-3.195l-22.03 2.436a4.945 4.945 0 00-4.408 4.966l3.637 119.887a4.922 4.922 0 004.568 4.894l22.088 1.626a4.945 4.945 0 003.808-1.397 4.976 4.976 0 001.472-3.783l-3.44-52.467 19.047 54.495a4.967 4.967 0 004.347 3.207l23.244-.027c.168.016.347.016.52 0a4.987 4.987 0 003.168-1.358 4.946 4.946 0 001.525-3.637l-1.413-125.088a5 5 0 00-1.553-3.542 4.87 4.87 0 00-3.626-1.34zm29.437-2.536c-1.544 0-3.1.01-4.71.05a4.917 4.917 0 00-4.793 4.771l-3.961 124.563c-.093 2.637 1.913 4.866 4.54 5.078.117 0 2.91.23 7.296.23 15.468 0 52.39-2.811 60.912-28.78 7.107-21.604 5.965-51.115 4.168-65.133-3.52-27.443-24.275-40.78-63.452-40.78zm32.905 82.05c-2.645 21.052-9.221 22.377-16.456 24.874l3.402-78.224c2.509.66 5.693.587 9.758 6.012 5.92 7.889 5.869 26.784 3.296 47.339zm102.63 30.45l-28.867 2.274-1.333-26.986 18.686-1.022c2.41-.162 4.352-2.017 4.595-4.414l1.752-16.577a4.917 4.917 0 00-1.324-3.922c-1.009-1.044-2.397-1.586-3.861-1.53l-20.261 1.039v-29.276h29.985c2.769.044 4.953-2.201 4.953-4.94 0-.379-.047-.737-.131-1.094l-1.668-17.566c-.26-2.586-2.428-4.508-5.067-4.47l-54.84 1.347c-2.698.084-4.835 2.296-4.802 4.99l1.74 123.21a4.93 4.93 0 004.94 4.866l55.468.017c2.659 0 4.843-2.129 4.93-4.8l.439-16.079c.05-1.397-.526-2.737-1.531-3.72a5.059 5.059 0 00-3.802-1.347zm89.72-72.252c-1.23-17.28-7.221-40.237-44.825-40.237-8.076 0-17.551 1.056-28.13 3.123a4.95 4.95 0 00-3.987 4.922l1.716 120.529a4.947 4.947 0 004.547 4.85l17.27 1.34a4.771 4.771 0 003.726-1.285c1.023-.927 1.581-2.24 1.581-3.626l.015-38.863 8.807-.475 9.766 41.612a4.916 4.916 0 004.844 4.017c.126 0 .263 0 .4-.011l17.255-1.352a4.9 4.9 0 003.52-1.9 4.96 4.96 0 00.955-3.883l-12.252-46.3c8.554-6.575 16.513-18.448 14.792-42.46zm-31.176 17.007c-4.444 4.777-12.073 6.207-16.911 6.604v-35.528a22.35 22.35 0 014.732-.508c6.595 0 14.682 2.961 15.76 17.107.4 5.252-.779 9.286-3.58 12.325zm97.024 18.337c7.135-9.409 25.192-31.22 23.315-69.43a4.898 4.898 0 00-1.648-3.453 4.927 4.927 0 00-3.596-1.229l-20.546 1.369c-2.72.184-4.788 2.525-4.587 5.252.713 10.816-6.444 33.902-16.713 48.44l1.472-46.97a4.94 4.94 0 00-1.42-3.599c-.946-.938-2.24-1.48-3.578-1.452l-26.449.413a4.973 4.973 0 00-3.497 1.497 4.98 4.98 0 00-1.36 3.526l2.656 124.746a4.879 4.879 0 001.718 3.643 4.924 4.924 0 003.844 1.14l20.625-2.726c2.424-.33 4.251-2.38 4.274-4.822l.32-36.573c4.197 2.526 16.452 20.31 18.55 37.87.285 2.496 2.413 4.385 4.914 4.357l21.753-.09c.1 0 .209-.016.312-.016a4.9 4.9 0 003.196-1.48 4.873 4.873 0 001.394-3.554c-.095-4.509-7.514-42.819-24.949-56.859zm61.583-76.72l-23.515 3.022a4.921 4.921 0 00-4.308 4.877l-.215 122.227c0 1.369.564 2.682 1.57 3.62a4.977 4.977 0 003.581 1.32h.145l25.58-1.906a4.893 4.893 0 004.57-4.972l-1.846-123.367c-.033-1.414-.637-2.744-1.712-3.654a4.833 4.833 0 00-3.85-1.168zm50.024 3.564c-7.132.458-30.525 4.648-32.467 39.097-.25 4.38-.494 8.549-.734 12.499-1.428 23.432-2.43 40.377.57 55.043 1.807 8.76 9.148 29.153 38.167 29.153 1.805 0 3.682-.084 5.573-.24 12.107-1 21.08-4.878 26.69-11.543 7.96-9.465 6.883-21.605 6.318-28.125l-.111-1.285c-.21-2.67-2.47-4.637-5.13-4.548l-18.314.799a4.976 4.976 0 00-3.598 1.81c-.882 1.112-1.268 2.525-1.039 3.911.408 2.453.819 10.314-2.385 14.14-.81.995-2.313 2.325-5.76 2.364l-.246.017c-2.64 0-4.62-.782-6.19-2.453-2.685-2.81-5.68-9.671-4.822-26.488.21-3.894.385-8.453.58-13.291.495-12.577 1.062-26.83 2.23-35.774l.02-.302c.89-6.805 2.19-9.688 7.883-9.944 4.08-.174 6.914.659 8.422 2.458 1.9 2.307 1.693 6.235 1.45 7.52a4.97 4.97 0 00.997 4.062 4.925 4.925 0 003.785 1.826l22.044.313c2.643-.01 4.908-2.078 4.997-4.749.026-.57.383-14.04-9.768-24.527-8.582-8.888-21.795-12.872-39.162-11.743zm146.65 125.003c-.335-1.441-9.872-38.835-29.225-56.529 9.495-8.934 28.829-26.611 22.387-66.76a4.969 4.969 0 00-5.409-4.128l-25.49 2.855a4.962 4.962 0 00-3.389 1.916 5.047 5.047 0 00-.936 3.766c.06.397 5.252 29.421-14.495 46.87l.486-49.496a4.998 4.998 0 00-1.632-3.699 4.978 4.978 0 00-3.849-1.229l-25.488 2.844c-2.548.285-4.43 2.47-4.388 5.023l2.98 123.892c.045 1.385.643 2.698 1.693 3.598a4.846 4.846 0 003.414 1.212c.114 0 .243 0 .374-.016l21.56-2.409a4.948 4.948 0 004.378-4.642l1.804-38.707c6.786 7.05 18.228 25.069 20.041 40.182a4.923 4.923 0 005.445 4.307l25.482-2.844a4.92 4.92 0 003.47-2.039 4.991 4.991 0 00.787-3.967zM300.938 234.166l10.488-73.266-43.882-91.944-29.81 10.213-38.907-41.714L130.097 0l-15.045 55.556-10.618-29.17-52.792 51.571-29.533 51.606-1.304 53.471L0 173.134l14.182 85.665 32.16 55.168 75.884 26.006 62.153 2.261 107.175-39.166 30.839-76.254-21.455 7.352zm-46.37-40.672l-60.758 1.64-2.19 68.354-3.278 40.467-52.936-.549v-38.82l-4.376-67.815-63.488 2.734-2.189-65.623 93.51-.546 96.8-2.732 1.639 8.752-2.735 54.138z"/></g></svg>