<svg xmlns="http://www.w3.org/2000/svg" xmlns:xlink="http://www.w3.org/1999/xlink" viewBox="0 0 96 30"><path d="M37.6 17c0 .9.7 1.6 1.6 1.6.2 0 .4 0 .9-.2l.7 1.7c-.6.3-1.1.3-1.5.3-1.9 0-3.4-1.5-3.4-3.4V6h1.8v2.7h3.1v1.8h-3.1l-.1 6.5zM41.9 17v-5.5c0-1.9 1.5-3.4 3.4-3.4s3.4 1.5 3.4 3.4V17c0 1.9-1.5 3.4-3.4 3.4-1.8 0-3.4-1.5-3.4-3.4m3.5-7.1c-.9 0-1.6.7-1.6 1.6V17c0 .9.7 1.6 1.6 1.6.9 0 1.6-.7 1.6-1.6v-5.5c0-.9-.8-1.6-1.6-1.6M58.9 11.2c0-.7-.6-1.2-1.3-1.2-.7 0-1.3.6-1.3 1.2v9h-1.8v-9c0-.7-.6-1.2-1.3-1.2s-1.3.6-1.3 1.2v9h-1.8v-9c0-1.7 1.4-3 3-3 .8 0 1.6.3 2.2.9.5-.6 1.3-.9 2.1-.9 1.7 0 3.1 1.4 3.1 3v9h-1.8l.2-9zM70.4 11.5c0-.9-.7-1.6-1.6-1.6s-1.6.7-1.6 1.6v8.7h-1.8V3.8h1.8v4.7c.5-.3 1-.4 1.6-.4 1.9 0 3.4 1.5 3.4 3.4v8.7h-1.8v-8.7zM73.8 17v-5.5c0-1.9 1.5-3.4 3.4-3.4s3.4 1.5 3.4 3.4V17c0 1.9-1.5 3.4-3.4 3.4-1.8 0-3.4-1.5-3.4-3.4m3.4-7.1c-.9 0-1.6.7-1.6 1.6V17c0 .9.7 1.6 1.6 1.6.9 0 1.6-.7 1.6-1.6v-5.5c0-.9-.7-1.6-1.6-1.6M85.7 9.9c-.9 0-1.6.7-1.6 1.6v8.7h-1.8v-8.7c0-1.9 1.5-3.4 3.4-3.4 1.2 0 2.3.6 3 1.9l-1.5.9c-.5-.7-1-1-1.5-1M94.2 11.5c0-.9-.7-1.6-1.6-1.6s-1.6.7-1.6 1.6v8.7h-1.8v-8.7c0-1.9 1.5-3.4 3.4-3.4S96 9.6 96 11.5v8.7h-1.8v-8.7z" fill="#fff"/><path d="M50.8 28.7v-3.1c0-.7.6-1.3 1.3-1.3.5 0 1 .3 1.3.9l-.6.2c-.1-.3-.4-.5-.7-.5-.4 0-.7.3-.7.7v3.1c0 .4.3.7.7.7s.7-.3.7-.7V28h-1v-.6h1.6v1.3c0 .7-.6 1.3-1.3 1.3-.7 0-1.3-.6-1.3-1.3M58.3 28.2h-1.4V30h-.6v-4.4c0-.7.6-1.3 1.3-1.3.7 0 1.3.6 1.3 1.3V30h-.6v-1.8zm-.7-3.3c-.4 0-.7.3-.7.7v2h1.4v-2c0-.4-.3-.7-.7-.7M64.6 26.3l-.9 2.5h-.3l-.9-2.5V30h-.6v-5.7h.6l1.1 3.1 1-3.1h.6V30h-.6zM68.7 24.3h.6v5.6h-.6zM73.3 26.2V30h-.7v-5.7h.7l1.4 3.8v-3.8h.6V30h-.6zM78.2 28.7v-3.1c0-.7.6-1.3 1.3-1.3.5 0 1 .3 1.3.9l-.6.2c-.1-.3-.4-.5-.7-.5-.4 0-.7.3-.7.7v3.1c0 .4.3.7.7.7.4 0 .7-.3.7-.7V28h-1v-.6h1.6v1.3c0 .7-.6 1.3-1.3 1.3-.7 0-1.3-.6-1.3-1.3" fill="#21b3e8"/><path fill="none" d="M0 0h95.9v30H0z"/><defs><path id="a" d="M4.5 4.4c-5.9 5.8-5.9 15.3-.1 21.1-1.1-1.1-1.1-2.9 0-3.9 1.1-1.1 2.9-1.1 4 0-3.7-3.7-3.6-9.6 0-13.2 3.7-3.6 9.7-3.6 13.3 0 1.1 1.1 2.9 1.1 4 0s1.1-2.9 0-3.9C22.8 1.6 18.9.1 15 .1 11.3 0 7.4 1.5 4.5 4.4"/></defs><clipPath id="b"><use xlink:href="#a" overflow="visible"/></clipPath><linearGradient id="c" gradientUnits="userSpaceOnUse" x1="-25.343" y1="-312.807" x2="-25.143" y2="-312.807" gradientTransform="scale(-149.5112) rotate(-32 532.632 -200.306)"><stop offset="0" stop-color="#c7e3f8"/><stop offset=".28" stop-color="#26b1e7"/><stop offset="1" stop-color="#223b86"/></linearGradient><path clip-path="url(#b)" fill="url(#c)" d="M18.9-12.6L-13 7.2l19.5 31 31.9-19.8z"/><g><defs><path id="d" d="M25.7 8.4c-1.1 1.1-2.9 1.1-4 0 3.7 3.7 3.6 9.6 0 13.2-3.7 3.6-9.7 3.6-13.3 0l-.2-.2-.2-.2c-.1 0-.1-.1-.2-.1-.8-.4-1.8-.4-2.6 0h-.1c-.1.1-.3.2-.4.3l-.2.2c-1.1 1.1-1.1 2.9 0 3.9 5.9 5.9 15.4 5.9 21.3.1 5.9-5.8 5.9-15.3.1-21.1 1 1 .9 2.8-.2 3.9"/></defs><clipPath id="e"><use xlink:href="#d" overflow="visible"/></clipPath><linearGradient id="f" gradientUnits="userSpaceOnUse" x1="-27.765" y1="-309.771" x2="-27.566" y2="-309.771" gradientTransform="scale(149.5112) rotate(-32 526.584 -203.266)"><stop offset="0" stop-color="#c7e3f8"/><stop offset=".28" stop-color="#26b1e7"/><stop offset="1" stop-color="#223b86"/></linearGradient><path clip-path="url(#e)" fill="url(#f)" d="M11.3 44.1l32.5-20.3-20.1-32L-8.9 12z"/></g></svg>