<svg width="374pt" height="49pt" viewBox="0 0 374 49" xmlns="http://www.w3.org/2000/svg"><g fill="#d7b75f"><path d="M111.34 3.49c4.04-1.37 8.45-1.46 12.62-.7 9.39 1.88 16.9 10.59 17.36 20.15.26 5.52-1.21 11.29-4.77 15.59-4.43 5.47-11.49 8.79-18.56 8.27-9.06-.2-17.48-6.59-20.26-15.2-3.98-11.02 2.48-24.41 13.61-28.11m-7.57 10.52c4.98 3.15 10.12 6.02 15.23 8.96 5.09-2.94 10.12-5.98 15.25-8.86-5.03-2.29-10.18-4.33-15.27-6.5-5.06 2.15-10.13 4.29-15.21 6.4m-1.04 1.24c.09 5.95.31 11.9.06 17.85 5.19 3.03 10.39 6.04 15.59 9.05-.06-5.97-.26-11.94-.06-17.91-5.19-3.01-10.35-6.07-15.59-8.99m17 8.92c.23 5.97.02 11.95-.05 17.92 5.13-2.96 10.19-6.05 15.35-8.98.35-5.85-.06-11.7-.04-17.55-5.05 2.95-10.2 5.7-15.26 8.61z"/><path d="M117.43 12.49c1.58-.57 3.25-.04 4.71.61 1.09 3.56-7.43 3.54-6.26-.03.39-.14 1.17-.43 1.55-.58zM130.89 24.56c-2.38-1.14-1.26-4.43.84-5.14 2.69.89.32 3.88-.84 5.14zM124.23 23.45c2.78-.2.58 6.17-2.03 4.28-.37-1.62.24-3.82 2.03-4.28zM112.2 24.2c2.35-1.14 4.21 2.44 3.31 4.36-2.29.91-3.74-2.47-3.31-4.36zM108.49 26.55c2.03-1.73 4.17 2.43 3.34 4.27-2.32.74-3.85-2.32-3.34-4.27zM127.44 26.43c3.28-1.23 1.68 5.52-1.28 4.43-.6-1.6-.28-3.53 1.28-4.43zM105.14 27.94c2.21.9 3.31 3.07 3.04 5.43-2.7-.13-4.3-3.09-3.04-5.43zM130.68 29.59c3.88-2.44 1.91 6.21-1.01 3.88-.71-1.3-.07-2.99 1.01-3.88zM123.34 33.25c3.63-1.81 2.18 5.24-.86 4.34-.92-1.45-.21-3.19.86-4.34z"/></g><g fill="#fff"><path d="M147.67 12.81c3.23-5.79 9.67-9.62 16.31-9.56 6.38-.03 12.76.01 19.14 0 0 2.27 0 4.54.01 6.81-6.41.03-12.82-.03-19.22.01-6.35-.08-11.96 5.65-11.9 11.97-.21 6.14 4.95 11.88 11.1 12.23 4.4.25 8.8.04 13.2.1v-7.24c-4.06-.01-8.13 0-12.19-.01v-6.81h19c.01 6.96 0 13.92 0 20.88-6.37-.03-12.75.06-19.12-.04-6.23.01-12.31-3.31-15.69-8.54-3.89-5.79-4.15-13.77-.64-19.8zM228.19 3.17c6.33 4.87 12.64 9.75 18.97 14.62 6.32-4.87 12.63-9.75 18.96-14.61.01 12.67 0 25.34 0 38.01-2.27 0-4.54 0-6.81-.01V17.09c-4.06 3.11-8.11 6.24-12.16 9.36-4.05-3.12-8.09-6.25-12.15-9.37v24.11h-6.81c-.01-12.67-.01-25.35 0-38.02zM271.43 3.25c2.27 0 4.53 0 6.79-.03.07 12.64.01 25.27.03 37.91-2.28 0-4.57 0-6.84-.05.06-12.61.01-25.22.02-37.83zM314.69 3.25h6.88c-.01 12.66 0 25.31-.01 37.97-10.38-7.98-20.74-16-31.12-23.99-.01 7.99 0 15.97 0 23.96h-6.82c0-12.62 0-25.25.01-37.87 10.36 7.97 20.7 15.97 31.06 23.94 0-8-.01-16.01 0-24.01zM329.1 13.27c3.03-5.78 9.24-9.8 15.8-9.99 6.55-.1 13.09 0 19.64-.03v6.81c-6.55.05-13.11-.09-19.66.05-6.08.29-11.24 5.87-11.19 11.93-.21 6.22 5.07 11.99 11.3 12.25 4.33.21 8.67.03 13.01.08v-7.25c-4.07.01-8.13.01-12.19 0v-6.81h18.73c.01 6.96 0 13.92 0 20.88-6.51-.05-13.03.1-19.54-.07-6.4-.19-12.51-3.96-15.64-9.54-3.2-5.52-3.3-12.69-.26-18.31zM205.65 3.17c6.49 12.66 12.92 25.35 19.38 38.02-2.57 0-5.13 0-7.7-.01-3.87-7.65-7.79-15.28-11.66-22.93-3.93 7.63-7.77 15.31-11.71 22.94h-7.65c6.41-12.69 12.9-25.34 19.34-38.02zM7.35 6.53c2.5-.04 5-.04 7.51-.03 3.9 7.62 7.76 15.27 11.67 22.89 3.85-7.63 7.78-15.22 11.61-22.86 2.57-.04 5.14-.03 7.72-.04-6.41 12.68-12.9 25.32-19.33 37.98C20.15 31.82 13.49 19.3 7.35 6.53zM49.06 6.5h6.82v37.88c-2.28 0-4.55 0-6.82-.01V6.5zM59.09 6.5c2.54 0 5.09 0 7.64-.01 3.97 7.6 7.77 15.3 11.73 22.91 3.84-7.66 7.75-15.27 11.64-22.9h7.68c-6.44 12.67-12.9 25.32-19.34 37.99C71.98 31.83 65.53 19.17 59.09 6.5z"/></g></svg>