<svg xmlns="http://www.w3.org/2000/svg" viewBox="0 0 120 30"><g fill="#fff"><path d="M100.4 10.5c.8-.6 2-.8 3-.7 1.2.1 2.3.5 3.3 1.3-.4.5-.8 1.1-1.2 1.6-.8-.5-1.7-1-2.7-1-.4 0-.9.1-1.2.4s-.2.9.2 1.1c.4.3 1 .4 1.4.5 1.1.3 2.2.5 3 1.3.8.7.8 1.9.6 2.9-.3 1-1.2 1.7-2.2 1.9-2 .5-4.2-.1-5.8-1.4.4-.5.9-1.1 1.3-1.6.8.6 1.7 1.1 2.8 1.2.5.1 1.1 0 1.5-.3.4-.4.4-1.1-.2-1.4-1.3-.6-2.9-.6-4.1-1.5-.7-.5-1-1.3-.9-2.1.1-.8.5-1.7 1.2-2.2zM47.8 10.3c1.2-.5 2.5-.5 3.8-.3 1 .2 1.8.6 2.5 1.2-.5.6-1 1.1-1.4 1.7-.6-.5-1.4-1-2.3-1-.9-.1-1.9.2-2.5.9-1.1 1.1-1.2 2.9-.3 4.1 1 1.5 3.3 1.6 4.7.7v-1.1h-1.1v-1.7h3.3v3.8c-1.2 1-2.9 1.6-4.4 1.6s-3-.5-4-1.6c-1.3-1.3-1.6-3.3-1.2-5 .3-1.5 1.5-2.7 2.9-3.3zM58.9 10.3c1.3-.6 2.7-.6 4-.4.9.2 1.7.6 2.4 1.2-.5.6-1 1.1-1.4 1.7-.6-.5-1.5-1-2.3-1-1-.1-2 .3-2.6 1.1-1.1 1.3-1 3.5.5 4.6 1.2.9 2.9.8 4.1.1v-1.1h-1.1v-1.7h3.3v3.8c-1.2 1.1-2.9 1.6-4.6 1.6-1.5 0-3.1-.6-4.1-1.7-1.1-1.3-1.5-3.1-1.1-4.7.5-1.5 1.5-2.8 2.9-3.5zM34.6 10h2.6c.8 1.5 1.6 3 2.5 4.4.8-1.5 1.7-3 2.5-4.4h2.6c-1.3 2.3-2.7 4.5-4 6.8-.1 1.1 0 2.1 0 3.2h-2.3v-3c0-.2-.1-.3-.1-.4-1.2-2.2-2.5-4.4-3.8-6.6zM67.7 10h3.8c1.6.1 3.2.6 4.2 1.9 1.5 1.8 1.5 4.7-.1 6.4-1 1.1-2.5 1.7-4 1.7h-3.8c-.1-3.3-.1-6.7-.1-10m2.2 2v6c.7 0 1.5.1 2.3-.1.7-.2 1.3-.6 1.7-1.3.5-.7.5-1.7.3-2.5s-.8-1.5-1.7-1.9c-.8-.3-1.7-.2-2.6-.2zM78.1 10h4.1c1 0 2.1.1 2.9.7.7.5 1.2 1.2 1.3 2 .1.9 0 2-.6 2.7-.4.5-1 .8-1.5 1.1.8 1.2 1.7 2.4 2.5 3.5h-2.7c-.7-1.1-1.5-2.1-2.2-3.2h-.6v-2c.7-.1 1.6.2 2.3-.3.9-.5.7-2.1-.3-2.4-.9-.3-1.9-.1-2.9-.2v8h-2.3V10zM87.5 20c1.5-3.3 3-6.7 4.4-10H94c1.5 3.3 3 6.7 4.4 10H96c-.3-.7-.6-1.5-1-2.3h-3.4c.3-.6.5-1.3.8-2h1.8c-.5-1.1-.9-2.1-1.4-3.2-1.1 2.5-2.1 4.9-3.1 7.4-.7.1-1.4.1-2.2.1zM108.8 10h2.3v10h-2.3c-.1-3.3-.1-6.7 0-10zM112.9 10h2.3v8h4.8v2h-7.1V10z"/></g><g fill="#f96431"><path d="M9.8.9C11 .5 12.2.2 13.4 0c.3 2.3 1 4.4 2.1 6.5 1.1-2 1.8-4.2 2.1-6.5 1.2.2 2.4.5 3.6.9-.3 1.9-.7 3.6-1.5 5.3 2-.7 3.8-1.9 5.2-3.3 1 .7 1.9 1.5 2.7 2.4-2.4 2.5-5.7 4.3-9.2 4.9 1 1.1 2.3 2.1 3.5 2.9 2.2-2.1 4.9-3.6 7.8-4.5.5 1.1.9 2.2 1.2 3.4-2 .6-3.8 1.6-5.3 2.9 1.8.6 3.7 1 5.7 1.1-.1 1.2-.3 2.4-.7 3.5-5.7-.3-11.1-2.8-14.9-6.8-3.9 4-9.3 6.5-15 6.8C.3 18.3.1 17.2 0 16c1.9-.1 3.8-.4 5.7-1.1C4.1 13.6 2.3 12.7.4 12c.3-1.2.6-2.3 1.2-3.4 2.9.9 5.6 2.5 7.8 4.5 1.3-.8 2.5-1.7 3.5-2.9-3.5-.6-6.8-2.4-9.2-4.9.8-1 1.7-1.7 2.6-2.5 1.4 1.5 3.2 2.7 5.2 3.3-.9-1.6-1.4-3.4-1.7-5.2z"/><path d="M8.4 18.2c1.2-.5 2.2-1.1 3.3-1.7 1.3 1.6 2.6 3.2 3.9 4.9 1.3-1.6 2.6-3.2 3.9-4.9 1.1.6 2.2 1.2 3.3 1.7-1.7 2.2-3.5 4.4-5.3 6.7-.1 1.7 0 3.3 0 5-1.2.2-2.5.2-3.7 0v-5c-1.9-2.3-3.6-4.5-5.4-6.7z"/></g></svg>